  0
SECTION
  2
HEADER
  9
$ACADVER
  1
AC1009
  9
$INSBASE
 10
0.0
 20
0.0
 30
0.0
  9
$EXTMIN
 10
1711872.206
 20
5028019.579
 30
-0.001
  9
$EXTMAX
 10
1716117.07
 20
5031047.614
 30
34.497
  9
$LIMMIN
 10
1711924.0
 20
5028095.0
  9
$LIMMAX
 10
1715602.219
 20
5030983.0
  9
$ORTHOMODE
 70
     0
  9
$REGENMODE
 70
     1
  9
$FILLMODE
 70
     1
  9
$QTEXTMODE
 70
     0
  9
$MIRRTEXT
 70
     1
  9
$DRAGMODE
 70
     2
  9
$LTSCALE
 40
1.0
  9
$OSMODE
 70
    33
  9
$ATTMODE
 70
     1
  9
$TEXTSIZE
 40
0.2
  9
$TRACEWID
 40
0.05
  9
$TEXTSTYLE
  7
STYLE1
  9
$CLAYER
  8
0
  9
$CELTYPE
  6
CONTINUOUS
  9
$CECOLOR
 62
   256
  9
$DIMSCALE
 40
1.0
  9
$DIMASZ
 40
0.18
  9
$DIMEXO
 40
0.063
  9
$DIMDLI
 40
0.38
  9
$DIMRND
 40
0.0
  9
$DIMDLE
 40
0.0
  9
$DIMEXE
 40
0.18
  9
$DIMTP
 40
0.0
  9
$DIMTM
 40
0.0
  9
$DIMTXT
 40
0.18
  9
$DIMCEN
 40
0.09
  9
$DIMTSZ
 40
0.0
  9
$DIMTOL
 70
     0
  9
$DIMLIM
 70
     0
  9
$DIMTIH
 70
     1
  9
$DIMTOH
 70
     1
  9
$DIMSE1
 70
     0
  9
$DIMSE2
 70
     0
  9
$DIMTAD
 70
     0
  9
$DIMZIN
 70
     0
  9
$DIMBLK
  1

  9
$DIMASO
 70
     1
  9
$DIMSHO
 70
     1
  9
$DIMPOST
  1

  9
$DIMAPOST
  1

  9
$DIMALT
 70
     0
  9
$DIMALTD
 70
     2
  9
$DIMALTF
 40
25.4
  9
$DIMLFAC
 40
1.0
  9
$DIMTOFL
 70
     0
  9
$DIMTVP
 40
0.0
  9
$DIMTIX
 70
     0
  9
$DIMSOXD
 70
     0
  9
$DIMSAH
 70
     0
  9
$DIMBLK1
  1

  9
$DIMBLK2
  1

  9
$DIMSTYLE
  2
STANDARD
  9
$DIMCLRD
 70
     0
  9
$DIMCLRE
 70
     0
  9
$DIMCLRT
 70
     0
  9
$DIMTFAC
 40
1.0
  9
$DIMGAP
 40
0.09
  9
$LUNITS
 70
     2
  9
$LUPREC
 70
     4
  9
$SKETCHINC
 40
0.1
  9
$FILLETRAD
 40
0.0
  9
$AUNITS
 70
     0
  9
$AUPREC
 70
     0
  9
$MENU
  1
.
  9
$ELEVATION
 40
0.0
  9
$PELEVATION
 40
0.0
  9
$THICKNESS
 40
0.0
  9
$LIMCHECK
 70
     0
  9
$BLIPMODE
 70
     0
  9
$CHAMFERA
 40
0.0
  9
$CHAMFERB
 40
0.0
  9
$SKPOLY
 70
     0
  9
$TDCREATE
 40
2451386.515
  9
$TDUPDATE
 40
2451578.678
  9
$TDINDWG
 40
0.529
  9
$TDUSRTIMER
 40
0.529
  9
$USRTIMER
 70
     1
  9
$ANGBASE
 50
0.0
  9
$ANGDIR
 70
     0
  9
$PDMODE
 70
     0
  9
$PDSIZE
 40
0.0
  9
$PLINEWID
 40
0.0
  9
$COORDS
 70
     1
  9
$SPLFRAME
 70
     0
  9
$SPLINETYPE
 70
     6
  9
$SPLINESEGS
 70
     8
  9
$ATTDIA
 70
     0
  9
$ATTREQ
 70
     1
  9
$HANDLING
 70
 22529
  9
$HANDSEED
  5
434
  9
$SURFTAB1
 70
     6
  9
$SURFTAB2
 70
     6
  9
$SURFTYPE
 70
     6
  9
$SURFU
 70
     6
  9
$SURFV
 70
     6
  9
$UCSNAME
  2

  9
$UCSORG
 10
0.0
 20
0.0
 30
0.0
  9
$UCSXDIR
 10
1.0
 20
0.0
 30
0.0
  9
$UCSYDIR
 10
0.0
 20
1.0
 30
0.0
  9
$PUCSNAME
  2

  9
$PUCSORG
 10
0.0
 20
0.0
 30
0.0
  9
$PUCSXDIR
 10
1.0
 20
0.0
 30
0.0
  9
$PUCSYDIR
 10
0.0
 20
1.0
 30
0.0
  9
$USERI1
 70
     0
  9
$USERI2
 70
     0
  9
$USERI3
 70
     0
  9
$USERI4
 70
     0
  9
$USERI5
 70
     0
  9
$USERR1
 40
0.0
  9
$USERR2
 40
0.0
  9
$USERR3
 40
0.0
  9
$USERR4
 40
0.0
  9
$USERR5
 40
0.0
  9
$WORLDVIEW
 70
     1
  9
$SHADEDGE
 70
     3
  9
$SHADEDIF
 70
    70
  9
$TILEMODE
 70
     1
  9
$MAXACTVP
 70
    48
  9
$PLIMCHECK
 70
     0
  9
$PEXTMIN
 10
1.000E+020
 20
1.000E+020
 30
1.000E+020
  9
$PEXTMAX
 10
-1.000E+020
 20
-1.000E+020
 30
-1.000E+020
  9
$PLIMMIN
 10
0.0
 20
0.0
  9
$PLIMMAX
 10
12.0
 20
9.0
  9
$UNITMODE
 70
     0
  9
$VISRETAIN
 70
     1
  9
$PLINEGEN
 70
     0
  9
$PSLTSCALE
 70
     1
  0
ENDSEC
  0
SECTION
  2
TABLES
  0
TABLE
  2
VPORT
 70
     1
  0
VPORT
  2
*ACTIVE
 70
     0
 10
0.0
 20
0.0
 11
1.0
 21
1.0
 12
1713994.638
 22
5029533.596
 13
0.0
 23
0.0
 14
1.0
 24
1.0
 15
0.0
 25
0.0
 16
0.0
 26
0.0
 36
1.0
 17
0.0
 27
0.0
 37
0.0
 40
3060.363
 41
1.692
 42
50.0
 43
0.0
 44
0.0
 50
0.0
 51
0.0
 71
     0
 72
   100
 73
     1
 74
     1
 75
     0
 76
     0
 77
     0
 78
     0
  0
ENDTAB
  0
TABLE
  2
LTYPE
 70
     1
  0
LTYPE
  2
CONTINUOUS
 70
     0
  3
Solid line
 72
    65
 73
     0
 40
0.0
  0
ENDTAB
  0
TABLE
  2
LAYER
 70
    15
  0
LAYER
  2
0
 70
     0
 62
     7
  6
CONTINUOUS
  0
LAYER
  2
11B2
 70
     0
 62
    13
  6
CONTINUOUS
  0
LAYER
  2
12A1
 70
     0
 62
    13
  6
CONTINUOUS
  0
LAYER
  2
12B2
 70
     0
 62
    13
  6
CONTINUOUS
  0
LAYER
  2
14G7
 70
     0
 62
     5
  6
CONTINUOUS
  0
LAYER
  2
14O15
 70
     0
 62
     5
  6
CONTINUOUS
  0
LAYER
  2
16C3
 70
     0
 62
     8
  6
CONTINUOUS
  0
LAYER
  2
16Q17
 70
     0
 62
     6
  6
CONTINUOUS
  0
LAYER
  2
16N14
 70
     0
 62
     3
  6
CONTINUOUS
  0
LAYER
  2
16D4
 70
     0
 62
     8
  6
CONTINUOUS
  0
LAYER
  2
16P16
 70
     0
 62
     6
  6
CONTINUOUS
  0
LAYER
  2
16L12
 70
     0
 62
     3
  6
CONTINUOUS
  0
LAYER
  2
16O15
 70
     0
 62
     2
  6
CONTINUOUS
  0
LAYER
  2
16M13
 70
     0
 62
     2
  6
CONTINUOUS
  0
LAYER
  2
16K11
 70
     0
 62
     7
  6
CONTINUOUS
  0
ENDTAB
  0
TABLE
  2
STYLE
 70
     3
  0
STYLE
  2
STANDARD
 70
     0
 40
0.0
 41
1.0
 50
0.0
 71
     0
 42
0.2
  3
SIMPLEX
  4

  0
STYLE
  2
STYLE1
 70
     0
 40
0.0
 41
0.75
 50
15.0
 71
     0
 42
0.2
  3
romans.shx
  4

  0
STYLE
  2
ROMANS
 70
     0
 40
0.0
 41
1.0
 50
0.0
 71
     0
 42
10.0
  3
C:\ACADR13\COMMON\FONTS\romans.shx
  4

  0
ENDTAB
  0
TABLE
  2
VIEW
 70
     0
  0
ENDTAB
  0
TABLE
  2
UCS
 70
     0
  0
ENDTAB
  0
TABLE
  2
APPID
 70
     1
  0
APPID
  2
ACAD
 70
     0
  0
ENDTAB
  0
TABLE
  2
DIMSTYLE
 70
     1
  0
DIMSTYLE
  2
STANDARD
 70
     0
  3

  4

  5

  6

  7

 40
1.0
 41
0.18
 42
0.063
 43
0.38
 44
0.18
 45
0.0
 46
0.0
 47
0.0
 48
0.0
140
0.18
141
0.09
142
0.0
143
25.4
144
1.0
145
0.0
146
1.0
147
0.09
 71
     0
 72
     0
 73
     1
 74
     1
 75
     0
 76
     0
 77
     0
 78
     0
170
     0
171
     2
172
     0
173
     0
174
     0
175
     0
176
     0
177
     0
178
     0
  0
ENDTAB
  0
ENDSEC
  0
SECTION
  2
BLOCKS
  0
BLOCK
  8
0
  2
$MODEL_SPACE
 70
     0
 10
0.0
 20
0.0
 30
0.0
  3
$MODEL_SPACE
  1

  0
ENDBLK
  5
9
  8
0
  0
BLOCK
 67
     1
  8
0
  2
$PAPER_SPACE
 70
     0
 10
0.0
 20
0.0
 30
0.0
  3
$PAPER_SPACE
  1

  0
ENDBLK
  5
E
 67
     1
  8
0
  0
ENDSEC
  0
SECTION
  2
ENTITIES
  0
TEXT
  5
25
  8
16O15
 10
1715721.857
 20
5030631.644
 30
0.0
 40
27.5
  1
147011
 50
1.931
  0
TEXT
  5
27
  8
16N14
 10
1715471.999
 20
5030623.213
 30
0.0
 40
25.0
  1
Elemento n.
 50
1.931
  0
TEXT
  5
29
  8
16O15
 10
1715531.662
 20
5030551.899
 30
0.0
 40
30.0
  1
S. BENEDETTO
 50
1.931
  0
TEXT
  5
2A
  8
16L12
 10
1715536.22
 20
5030795.471
 30
0.0
 40
15.0
  1
SERVIZIO CARTOGRAFICO
 50
1.931
  0
TEXT
  5
2C
  8
16L12
 10
1715395.289
 20
5030820.735
 30
0.0
 40
17.5
  1
SEGRETERIA REGIONALE PER IL TERRITORIO
 50
1.931
  0
TEXT
  5
2D
  8
16K11
 10
1715464.153
 20
5030869.994
 30
0.0
 40
27.5
  1
REGIONE DEL VENETO
 50
1.931
  0
TEXT
  5
2F
  8
16M13
 10
1715408.996
 20
5030711.13
 30
0.0
 40
20.0
  1
CARTA TECNICA REGIONALE NUMERICA
 50
1.931
  0
TEXT
  5
31
  8
16Q17
 10
1716039.182
 20
5029797.755
 30
0.0
 40
7.5
  1
E
 50
1.911
 41
0.867
  0
TEXT
  5
33
  8
16Q17
 10
1715985.946
 20
5029814.986
 30
0.0
 40
7.5
  1
U.T.M.
 50
1.931
 41
0.867
  0
TEXT
  5
34
  8
16Q17
 10
1716019.448
 20
5029776.168
 30
0.0
 40
7.5
  1
242 368
 50
1.931
 41
0.867
  0
TEXT
  5
35
  8
16Q17
 10
1716020.202
 20
5029756.797
 30
0.0
 40
7.5
  1
245 629
 50
1.931
 41
0.867
  0
TEXT
  5
36
  8
16Q17
 10
1716020.812
 20
5029735.741
 30
0.0
 40
7.5
  1
242 254
 50
1.931
 41
0.867
  0
TEXT
  5
37
  8
16Q17
 10
1716021.468
 20
5029716.277
 30
0.0
 40
7.5
  1
245 516
 50
1.931
 41
0.867
  0
TEXT
  5
38
  8
16Q17
 10
1715917.759
 20
5030400.5
 30
0.0
 40
5.5
  1
450
 50
1.911
 41
0.909
  0
TEXT
  5
39
  8
16Q17
 10
1715871.58
 20
5030277.869
 30
0.0
 40
5.5
  1
400
 50
1.941
 41
0.909
  0
TEXT
  5
3A
  8
16Q17
 10
1715718.028
 20
5030393.755
 30
0.0
 40
5.5
  1
250
 50
1.911
 41
0.909
  0
TEXT
  5
3B
  8
16Q17
 10
1715771.617
 20
5030274.498
 30
0.0
 40
5.5
  1
300
 50
1.911
 41
0.909
  0
TEXT
  5
3C
  8
16Q17
 10
1715672.494
 20
5030271.146
 30
0.0
 40
5.5
  1
200
 50
1.941
 41
0.909
  0
TEXT
  5
3D
  8
16Q17
 10
1715818.236
 20
5030397.134
 30
0.0
 40
5.5
  1
350
 50
1.941
 41
0.909
  0
TEXT
  5
3E
  8
16Q17
 10
1715753.238
 20
5030150.583
 30
0.0
 40
7.5
  1
europeo unificato (E.D. 1950)
 50
1.931
 41
0.867
  0
TEXT
  5
3F
  8
16Q17
 10
1715775.948
 20
5030065.21
 30
0.0
 40
7.5
  1
nazionale Gauss-Boaga
 50
1.931
 41
0.867
  0
TEXT
  5
40
  8
16Q17
 10
1715761.118
 20
5030130.543
 30
0.0
 40
7.5
  1
12  27'10",93
 50
1.931
 41
0.867
  0
TEXT
  5
41
  8
16Q17
 10
1715763.34
 20
5030110.506
 30
0.0
 40
7.5
  1
41  55'31",49
 50
1.931
 41
0.867
  0
TEXT
  5
42
  8
16Q17
 10
1715814.566
 20
5030052.28
 30
0.0
 40
6.5
  1
12  27'08",40
 50
1.931
  0
TEXT
  5
43
  8
16Q17
 10
1715816.513
 20
5030037.722
 30
0.0
 40
6.5
  1
41  55'25",51
 50
1.931
  0
TEXT
  5
44
  8
16Q17
 10
1715618.359
 20
5030390.389
 30
0.0
 40
5.5
  1
150
 50
1.911
 41
0.909
  0
TEXT
  5
45
  8
16Q17
 10
1715519.995
 20
5030387.067
 30
0.0
 40
5.5
  1
50
 50
1.891
 41
0.909
  0
TEXT
  5
46
  8
16Q17
 10
1715572.178
 20
5030267.703
 30
0.0
 40
5.5
  1
100
 50
1.941
 41
0.909
  0
TEXT
  5
47
  8
16Q17
 10
1715450.035
 20
5030384.703
 30
0.0
 40
5.0
  1
20
 50
1.921
  0
TEXT
  5
48
  8
16Q17
 10
1715472.477
 20
5030385.464
 30
0.0
 40
5.0
  1
0
 50
1.921
  0
TEXT
  5
49
  8
16Q17
 10
1715410.058
 20
5030383.355
 30
0.0
 40
5.0
  1
60
 50
1.921
  0
TEXT
  5
4A
  8
16Q17
 10
1715430.047
 20
5030384.029
 30
0.0
 40
5.0
  1
40
 50
1.921
  0
TEXT
  5
4B
  8
16Q17
 10
1715367.987
 20
5030366.522
 30
0.0
 40
5.0
  1
9
 50
1.921
  0
TEXT
  5
4C
  8
16Q17
 10
1715367.582
 20
5030381.917
 30
0.0
 40
5.0
  1
100
 50
1.961
  0
TEXT
  5
4D
  8
16Q17
 10
1715390.07
 20
5030382.68
 30
0.0
 40
5.0
  1
80
 50
1.921
  0
TEXT
  5
4E
  8
16Q17
 10
1715479.154
 20
5030340.869
 30
0.0
 40
5.0
  1
6
 50
2.041
  0
TEXT
  5
4F
  8
16Q17
 10
1715479.828
 20
5030320.88
 30
0.0
 40
5.0
  1
4
 50
1.921
  0
TEXT
  5
50
  8
16Q17
 10
1715481.176
 20
5030280.908
 30
0.0
 40
5.0
  1
0
 50
1.921
  0
TEXT
  5
51
  8
16Q17
 10
1715463.843
 20
5030272.104
 30
0.0
 40
5.0
  1
10
 50
1.921
  0
TEXT
  5
52
  8
16Q17
 10
1715476.121
 20
5030264.514
 30
0.0
 40
5.0
  1
0
 50
1.941
  0
TEXT
  5
53
  8
16Q17
 10
1715423.866
 20
5030270.756
 30
0.0
 40
5.0
  1
50
 50
1.921
  0
TEXT
  5
54
  8
16Q17
 10
1715443.855
 20
5030271.43
 30
0.0
 40
5.0
  1
30
 50
1.921
  0
TEXT
  5
55
  8
16Q17
 10
1715480.502
 20
5030300.897
 30
0.0
 40
5.0
  1
2
 50
1.921
  0
TEXT
  5
56
  8
16Q17
 10
1715368.66
 20
5030346.538
 30
0.0
 40
5.0
  1
7
 50
1.921
  0
TEXT
  5
57
  8
16Q17
 10
1715369.34
 20
5030326.545
 30
0.0
 40
5.0
  1
5
 50
1.921
  0
TEXT
  5
58
  8
16Q17
 10
1715370.014
 20
5030306.556
 30
0.0
 40
5.0
  1
3
 50
1.921
  0
TEXT
  5
59
  8
16Q17
 10
1715370.688
 20
5030286.568
 30
0.0
 40
5.0
  1
1
 50
1.921
  0
TEXT
  5
5A
  8
16Q17
 10
1715383.889
 20
5030269.403
 30
0.0
 40
5.0
  1
90
 50
1.981
  0
TEXT
  5
5B
  8
16Q17
 10
1715370.196
 20
5030260.942
 30
0.0
 40
5.0
  1
100 m
 50
1.921
  0
TEXT
  5
5C
  8
16Q17
 10
1715403.877
 20
5030270.082
 30
0.0
 40
5.0
  1
70
 50
1.921
  0
TEXT
  5
5D
  8
16Q17
 10
1715478.475
 20
5030360.863
 30
0.0
 40
5.0
  1
8
 50
1.921
  0
TEXT
  5
5E
  8
16Q17
 10
1715533.026
 20
5030027.802
 30
0.0
 40
6.5
  1
Latitudine                                    = 
 50
1.931
  0
TEXT
  5
5F
  8
16Q17
 10
1715532.525
 20
5030042.668
 30
0.0
 40
6.5
  1
Longitudine di Roma (M.Mario) da Greenwich      = 
 50
1.931
  0
TEXT
  5
60
  8
16Q17
 10
1715532.042
 20
5030056.985
 30
0.0
 40
6.5
  1
Le coordinate piane sono definite nel sistema
 50
1.931
  0
TEXT
  5
61
  8
16Q17
 10
1715479.869
 20
5030100.842
 30
0.0
 40
7.5
  1
Latitudine                                    = 
 50
1.931
 41
0.867
  0
TEXT
  5
62
  8
16Q17
 10
1715479.374
 20
5030121.022
 30
0.0
 40
7.5
  1
Longitudine di Roma (M.Mario) da Greenwich      = 
 50
1.931
 41
0.867
  0
TEXT
  5
63
  8
16Q17
 10
1715478.504
 20
5030141.319
 30
0.0
 40
7.5
  1
Le coordinate geografiche sono definite nel sistema 
 50
1.931
 41
0.867
  0
TEXT
  5
64
  8
16P16
 10
1715487.28
 20
5030165.473
 30
0.0
 40
10.0
  1
UNIVERSALE TRASVERSA DI MERCATORE (U.T.M.)
 50
1.931
  0
TEXT
  5
66
  8
16P16
 10
1715562.143
 20
5030188.464
 30
0.0
 40
10.0
  1
RAPPRESENTAZIONE CONFORME
 50
1.931
  0
TEXT
  5
67
  8
16L12
 10
1715603.431
 20
5030412.183
 30
0.0
 40
15.0
  1
Scala  1:5000
 50
1.931
  0
TEXT
  5
68
  8
16Q17
 10
1715838.657
 20
5029994.509
 30
0.0
 40
7.5
  1
sono, per questo elemento:
 50
1.931
 41
0.867
  0
TEXT
  5
69
  8
16Q17
 10
1715974.214
 20
5029795.559
 30
0.0
 40
7.5
  1
N
 50
1.911
 41
0.867
  0
TEXT
  5
6A
  8
16Q17
 10
1715908.251
 20
5029793.335
 30
0.0
 40
7.5
  1
E
 50
1.911
 41
0.867
  0
TEXT
  5
6B
  8
16Q17
 10
1715848.452
 20
5029831.021
 30
0.0
 40
7.5
  1
FUSO EST
 50
1.941
 41
0.867
  0
TEXT
  5
6C
  8
16Q17
 10
1715843.294
 20
5029791.139
 30
0.0
 40
7.5
  1
N
 50
1.911
 41
0.867
  0
TEXT
  5
6D
  8
16Q17
 10
1715836.175
 20
5029809.96
 30
0.0
 40
7.5
  1
GAUSS - BOAGA
 50
1.941
 41
0.867
  0
TEXT
  5
6E
  8
16Q17
 10
1715885.368
 20
5029771.536
 30
0.0
 40
7.5
  1
2 262 303
 50
1.931
 41
0.867
  0
TEXT
  5
6F
  8
16Q17
 10
1715669.893
 20
5029988.667
 30
0.0
 40
7.5
  1
E.D. 1950 al sistema
 50
1.931
 41
0.867
  0
TEXT
  5
70
  8
16Q17
 10
1715777.326
 20
5029788.905
 30
0.0
 40
7.5
  1
E
 50
1.981
 41
0.867
  0
TEXT
  5
71
  8
16Q17
 10
1715712.363
 20
5029786.719
 30
0.0
 40
7.5
  1
N
 50
1.911
 41
0.867
  0
TEXT
  5
72
  8
16Q17
 10
1715728.022
 20
5029806.458
 30
0.0
 40
7.5
  1
U.T.M.
 50
1.931
 41
0.867
  0
TEXT
  5
73
  8
16Q17
 10
1715723.659
 20
5029826.793
 30
0.0
 40
7.5
  1
FUSO 32
 50
1.931
 41
0.867
  0
TEXT
  5
74
  8
16Q17
 10
1715785.412
 20
5029992.713
 30
0.0
 40
7.5
  1
nazionale
 50
1.941
 41
0.867
  0
TEXT
  5
75
  8
16Q17
 10
1715780.731
 20
5029942.092
 30
0.0
 40
7.5
  1
E = + 2019935 m
 50
1.931
 41
0.867
  0
TEXT
  5
76
  8
16Q17
 10
1715780.132
 20
5029959.841
 30
0.0
 40
7.5
  1
N = - 172 m
 50
1.941
 41
0.867
  0
TEXT
  5
77
  8
16Q17
 10
1715819.629
 20
5029749.183
 30
0.0
 40
7.5
  1
5 032 448
 50
1.931
 41
0.867
  0
TEXT
  5
78
  8
16Q17
 10
1715820.337
 20
5029728.78
 30
0.0
 40
7.5
  1
5 029 803
 50
1.931
 41
0.867
  0
TEXT
  5
79
  8
16Q17
 10
1715821.122
 20
5029709.506
 30
0.0
 40
7.5
  1
5 029 670
 50
1.931
 41
0.867
  0
TEXT
  5
7A
  8
16Q17
 10
1715886.046
 20
5029751.423
 30
0.0
 40
7.5
  1
2 265 564
 50
1.931
 41
0.867
  0
TEXT
  5
7B
  8
16Q17
 10
1715887.415
 20
5029711.731
 30
0.0
 40
7.5
  1
2 265 452
 50
1.931
 41
0.867
  0
TEXT
  5
7C
  8
16Q17
 10
1715886.764
 20
5029731.02
 30
0.0
 40
7.5
  1
2 262 189
 50
1.931
 41
0.867
  0
TEXT
  5
7D
  8
16Q17
 10
1715859.121
 20
5029607.969
 30
0.0
 40
7.5
  1
fuso 33
 50
1.941
 41
0.867
  0
TEXT
  5
7E
  8
16Q17
 10
1715857.497
 20
5029632.683
 30
0.0
 40
7.5
  1
fuso est
 50
1.931
 41
0.867
  0
TEXT
  5
7F
  8
16Q17
 10
1715757.466
 20
5029727.466
 30
0.0
 40
7.5
  1
 712 070
 50
1.931
 41
0.867
  0
TEXT
  5
80
  8
16Q17
 10
1715756.721
 20
5029747.322
 30
0.0
 40
7.5
  1
 715 238
 50
1.931
 41
0.867
  0
TEXT
  5
81
  8
16Q17
 10
1715758.156
 20
5029707.007
 30
0.0
 40
7.5
  1
 715 333
 50
1.941
 41
0.867
  0
TEXT
  5
82
  8
16Q17
 10
1715690.524
 20
5029705.037
 30
0.0
 40
7.5
  1
5 028 383
 50
1.931
 41
0.867
  0
TEXT
  5
83
  8
16Q17
 10
1715689.934
 20
5029725.048
 30
0.0
 40
7.5
  1
5 028 272
 50
1.931
 41
0.867
  0
TEXT
  5
84
  8
16Q17
 10
1715689.26
 20
5029745.047
 30
0.0
 40
7.5
  1
5 031 160
 50
2.091
 41
0.867
  0
TEXT
  5
85
  8
16Q17
 10
1715716.145
 20
5029603.202
 30
0.0
 40
7.5
  1
fuso 32
 50
1.941
 41
0.867
  0
TEXT
  5
86
  8
16Q17
 10
1715714.69
 20
5029627.977
 30
0.0
 40
7.5
  1
fuso ovest
 50
1.931
 41
0.867
  0
TEXT
  5
87
  8
16Q17
 10
1715756.047
 20
5029767.305
 30
0.0
 40
7.5
  1
 711 977
 50
1.941
 41
0.867
  0
TEXT
  5
88
  8
16Q17
 10
1715688.656
 20
5029764.873
 30
0.0
 40
7.5
  1
5 031 050
 50
1.931
 41
0.867
  0
TEXT
  5
89
  8
16Q17
 10
1715818.951
 20
5029769.297
 30
0.0
 40
7.5
  1
5 032 580
 50
1.931
 41
0.867
  0
TEXT
  5
8A
  8
16Q17
 10
1715519.313
 20
5029950.081
 30
0.0
 40
7.5
  1
= - 5",6
 50
1.931
 41
0.867
  0
TEXT
  5
8B
  8
16Q17
 10
1715519.881
 20
5029933.23
 30
0.0
 40
7.5
  1
= - 12  27' 11",1
 50
1.931
 41
0.867
  0
TEXT
  5
8C
  8
16Q17
 10
1715647.4
 20
5029784.523
 30
0.0
 40
7.5
  1
E
 50
1.911
 41
0.867
  0
TEXT
  5
8D
  8
16Q17
 10
1715581.438
 20
5029782.289
 30
0.0
 40
7.5
  1
N
 50
1.981
 41
0.867
  0
TEXT
  5
8E
  8
16Q17
 10
1715584.079
 20
5029822.066
 30
0.0
 40
7.5
  1
FUSO OVEST
 50
1.931
 41
0.867
  0
TEXT
  5
8F
  8
16Q17
 10
1715438.228
 20
5029796.506
 30
0.0
 40
7.5
  1
(E.D. 1950)
 50
1.941
 41
0.867
  0
TEXT
  5
90
  8
16Q17
 10
1715439.171
 20
5029817.179
 30
0.0
 40
7.5
  1
GEOGRAFICHE
 50
1.941
 41
0.867
  0
TEXT
  5
91
  8
16Q17
 10
1715560.788
 20
5029700.046
 30
0.0
 40
7.5
  1
5 028 206
 50
1.931
 41
0.867
  0
TEXT
  5
92
  8
16Q17
 10
1715560.008
 20
5029720.672
 30
0.0
 40
7.5
  1
5 028 095
 50
1.931
 41
0.867
  0
TEXT
  5
93
  8
16Q17
 10
1715559.334
 20
5029740.655
 30
0.0
 40
7.5
  1
5 030 983
 50
1.931
 41
0.867
  0
TEXT
  5
94
  8
16Q17
 10
1715558.66
 20
5029760.644
 30
0.0
 40
7.5
  1
5 030 873
 50
1.931
 41
0.867
  0
TEXT
  5
95
  8
16Q17
 10
1715597.81
 20
5029624.356
 30
0.0
 40
7.5
  1
nazionale
 50
1.931
 41
0.867
  0
TEXT
  5
96
  8
16Q17
 10
1715410.093
 20
5029715.606
 30
0.0
 40
7.5
  1
45  22' 30''
 50
1.931
 41
0.867
  0
TEXT
  5
97
  8
16Q17
 10
1715409.419
 20
5029735.595
 30
0.0
 40
7.5
  1
45  24' 00"
 50
1.931
 41
0.867
  0
TEXT
  5
98
  8
16Q17
 10
1715408.745
 20
5029755.579
 30
0.0
 40
7.5
  1
45  24' 00"
 50
1.931
 41
0.867
  0
TEXT
  5
99
  8
16Q17
 10
1715410.767
 20
5029695.613
 30
0.0
 40
7.5
  1
45  22' 30"
 50
1.931
 41
0.867
  0
TEXT
  5
9A
  8
16Q17
 10
1715360.626
 20
5029713.803
 30
0.0
 40
7.5
  1
S O
 50
1.941
 41
0.867
  0
TEXT
  5
9B
  8
16Q17
 10
1715359.952
 20
5029733.797
 30
0.0
 40
7.5
  1
N E
 50
1.921
 41
0.867
  0
TEXT
  5
9C
  8
16Q17
 10
1715359.278
 20
5029753.78
 30
0.0
 40
7.5
  1
N O
 50
1.941
 41
0.867
  0
TEXT
  5
9D
  8
16Q17
 10
1715361.313
 20
5029693.125
 30
0.0
 40
7.5
  1
S E
 50
1.941
 41
0.867
  0
TEXT
  5
9E
  8
16Q17
 10
1715344.771
 20
5029590.699
 30
0.0
 40
7.5
  1
per la parametratura U.T.M.
 50
1.931
 41
0.867
  0
TEXT
  5
9F
  8
16Q17
 10
1715345.613
 20
5029565.713
 30
0.0
 40
7.5
  1
L'altimetria e' riferita al livello medio del mare 
 50
1.931
 41
0.867
  0
TEXT
  5
A0
  8
16Q17
 10
1715343.928
 20
5029615.69
 30
0.0
 40
7.5
  1
per la parametratura non tracciata del sistema
 50
1.931
 41
0.867
  0
TEXT
  5
A1
  8
16Q17
 10
1715343.086
 20
5029640.665
 30
0.0
 40
7.5
  1
A margine degli elementi della zona di 
 50
1.931
 41
0.867
  0
TEXT
  5
A2
  8
16Q17
 10
1715485.725
 20
5029698.145
 30
0.0
 40
7.5
  1
11  45' 00"
 50
1.931
 41
0.867
  0
TEXT
  5
A3
  8
16Q17
 10
1715485.05
 20
5029718.139
 30
0.0
 40
7.5
  1
11  42' 30''
 50
1.931
 41
0.867
  0
TEXT
  5
A4
  8
16Q17
 10
1715484.376
 20
5029738.123
 30
0.0
 40
7.5
  1
11  45' 00''
 50
1.931
 41
0.867
  0
TEXT
  5
A5
  8
16Q17
 10
1715483.702
 20
5029758.111
 30
0.0
 40
7.5
  1
11  42' 30"
 50
1.931
 41
0.867
  0
TEXT
  5
A6
  8
16Q17
 10
1715395.693
 20
5029979.431
 30
0.0
 40
7.5
  1
Le costanti medie additive per passare dal sistema 
 50
1.931
 41
0.867
  0
TEXT
  5
A7
  8
16Q17
 10
1715625.599
 20
5029702.597
 30
0.0
 40
7.5
  1
1 715 280
 50
1.931
 41
0.867
  0
TEXT
  5
A8
  8
16Q17
 10
1715624.939
 20
5029722.481
 30
0.0
 40
7.5
  1
1 712 018
 50
1.931
 41
0.867
  0
TEXT
  5
A9
  8
16Q17
 10
1715624.297
 20
5029742.851
 30
0.0
 40
7.5
  1
1 715 185
 50
1.931
 41
0.867
  0
TEXT
  5
AA
  8
16Q17
 10
1715623.623
 20
5029762.835
 30
0.0
 40
7.5
  1
1 711 924
 50
1.931
 41
0.867
  0
TEXT
  5
AB
  8
16Q17
 10
1715572.291
 20
5029800.891
 30
0.0
 40
7.5
  1
GAUSS - BOAGA
 50
1.931
 41
0.867
  0
TEXT
  5
AC
  8
16P16
 10
1715598.886
 20
5029841.386
 30
0.0
 40
10.0
  1
COORDINATE DEI VERTICI
 50
1.931
  0
TEXT
  5
AD
  8
16Q17
 10
1715551.454
 20
5029647.657
 30
0.0
 40
7.5
  1
sovrapposizione sono indicati i seguenti inviti:
 50
1.931
 41
0.867
  0
TEXT
  5
AE
  8
16Q17
 10
1715595.446
 20
5029574.153
 30
0.0
 40
7.5
  1
del mareografo di Genova anno medio 1942
 50
1.931
 41
0.867
  0
TEXT
  5
AF
  8
16Q17
 10
1715972.323
 20
5030281.271
 30
0.0
 40
5.5
  1
500m
 50
1.941
 41
0.909
  0
TEXT
  5
B0
  8
16Q17
 10
1715981.754
 20
5029835.746
 30
0.0
 40
7.5
  1
FUSO 33
 50
1.931
 41
0.867
  0
TEXT
  5
B1
  8
16Q17
 10
1715952.81
 20
5029774.091
 30
0.0
 40
7.5
  1
5 032 753
 50
1.931
 41
0.867
  0
TEXT
  5
B2
  8
16Q17
 10
1715953.472
 20
5029754.457
 30
0.0
 40
7.5
  1
5 032 621
 50
1.931
 41
0.867
  0
TEXT
  5
B3
  8
16Q17
 10
1715954.179
 20
5029733.494
 30
0.0
 40
7.5
  1
5 029 976
 50
1.931
 41
0.867
  0
TEXT
  5
B4
  8
16Q17
 10
1715954.836
 20
5029714.03
 30
0.0
 40
7.5
  1
5 029 843
 50
1.931
 41
0.867
  0
TEXT
  5
B5
  8
16C3
  6
CONTINUOUS
 10
1714955.809
 20
5030980.271
 30
0.0
 40
10.0
  1
1 715 000
 50
1.932
  7
ROMANS
 72
     1
 11
1714999.831
 21
5030981.756
 31
0.0
  0
TEXT
  5
B8
  8
16C3
  6
CONTINUOUS
 10
1714455.809
 20
5030963.404
 30
0.0
 40
10.0
  1
1 714 500
 50
1.932
  7
ROMANS
 72
     1
 11
1714499.831
 21
5030964.889
 31
0.0
  0
TEXT
  5
B9
  8
16C3
  6
CONTINUOUS
 10
1714488.31
 20
5030988.351
 30
0.0
 40
9.0
  1
11%%d 44' 30"
 50
1.932
  7
ROMANS
 72
     4
 11
1714530.748
 21
5030995.143
 31
0.0
  0
TEXT
  5
BA
  8
16C3
  6
CONTINUOUS
 10
1715253.724
 20
5030017.817
 30
0.0
 40
9.0
  1
45%%d 23' 30"
 50
91.938
  7
ROMANS
 72
     4
 11
1715246.95
 21
5030059.612
 31
0.0
  0
TEXT
  5
BB
  8
16C3
  6
CONTINUOUS
 10
1715233.752
 20
5029958.4
 30
0.0
 40
9.0
  1
5 030 000
 50
91.938
  7
ROMANS
 72
     1
 11
1715232.433
 21
5029997.377
 31
0.0
  0
TEXT
  5
BC
  8
16C3
  6
CONTINUOUS
 10
1715216.834
 20
5030457.945
 30
0.0
 40
9.0
  1
5 030 500
 50
91.938
  7
ROMANS
 72
     1
 11
1715215.515
 21
5030496.922
 31
0.0
  0
TEXT
  5
BD
  8
16Q17
 10
1716055.685
 20
5029042.357
 30
0.0
 40
7.5
  1
DENTRO
 50
1.931
 41
0.867
  0
TEXT
  5
BE
  8
16Q17
 10
1716037.861
 20
5029053.017
 30
0.0
 40
7.5
  1
SELVAZZANO       
 50
1.931
 41
0.867
  0
TEXT
  5
BF
  8
16Q17
 10
1715862.541
 20
5029475.684
 30
0.0
 40
5.0
  1
m
 50
1.951
  0
TEXT
  5
C0
  8
16Q17
 10
1715849.405
 20
5029469.858
 30
0.0
 40
5.0
  1
Km
 50
1.951
  0
TEXT
  5
C1
  8
16Q17
 10
1715760.437
 20
5029411.041
 30
0.0
 40
7.5
  1
tolleranza 1 m
 50
1.931
 41
0.867
  0
TEXT
  5
C2
  8
16Q17
 10
1715760.433
 20
5029430.592
 30
0.0
 40
7.5
  1
tolleranza 0.20 m
 50
1.931
 41
0.867
  0
TEXT
  5
C3
  8
16Q17
 10
1715759.072
 20
5029470.944
 30
0.0
 40
7.5
  1
tolleranza 0.01 D
 50
1.931
 41
0.867
  0
TEXT
  5
C4
  8
16Q17
 10
1715759.731
 20
5029451.42
 30
0.0
 40
7.5
  1
e.q.m.   0.20 m
 50
1.931
 41
0.867
  0
TEXT
  5
C5
  8
16Q17
 10
1715757.369
 20
5029075.642
 30
0.0
 40
7.5
  1
CERVARESE
 50
1.931
 41
0.867
  0
TEXT
  5
C6
  8
16Q17
 10
1715353.257
 20
5029339.337
 30
0.0
 40
7.5
  1
L'equidistanza e' di:
 50
1.931
 41
0.867
  0
TEXT
  5
C7
  8
16Q17
 10
1715469.039
 20
5029318.237
 30
0.0
 40
7.5
  1
25 m per le curve direttrici
 50
1.931
 41
0.867
  0
TEXT
  5
C8
  8
16Q17
 10
1715473.53
 20
5029481.481
 30
0.0
 40
7.5
  1
Rete di raffittimento:
 50
1.931
 41
0.867
  0
TEXT
  5
C9
  8
16Q17
 10
1715538.478
 20
5029124.342
 30
0.0
 40
7.5
  1
Nr
 50
2.561
 41
0.867
  0
TEXT
  5
CA
  8
16Q17
 10
1715541.46
 20
5029099.559
 30
0.0
 40
7.5
  1
N
 50
1.891
 41
0.867
  0
TEXT
  5
CB
  8
16Q17
 10
1715540.719
 20
5029074.65
 30
0.0
 40
7.5
  1
Nm
 50
1.281
 41
0.867
  0
TEXT
  5
CC
  8
16Q17
 10
1715526.032
 20
5029104.877
 30
0.0
 40
7.5
  1
Nr
 50
4.685
 41
0.867
  0
TEXT
  5
CD
  8
16Q17
 10
1715499.326
 20
5029113.825
 30
0.0
 40
7.5
  1
Nm
 50
3.435
 41
0.867
  0
TEXT
  5
CE
  8
16Q17
 10
1715557.295
 20
5029075.074
 30
0.0
 40
6.5
  1
= NORD MAGNETICO
 50
1.941
 41
0.846
  0
TEXT
  5
CF
  8
16Q17
 10
1715556.452
 20
5029100.059
 30
0.0
 40
6.5
  1
= NORD GEOGRAFICO
 50
1.931
 41
0.846
  0
TEXT
  5
D0
  8
16Q17
 10
1715550.607
 20
5029124.881
 30
0.0
 40
6.5
  1
 = NORD RETICOLATO
 50
1.931
 41
0.846
  0
TEXT
  5
D1
  8
16Q17
 10
1715476.805
 20
5029117.724
 30
0.0
 40
7.5
  1
N
 50
4.005
 41
0.867
  0
TEXT
  5
D2
  8
16Q17
 10
1715474.879
 20
5029293.415
 30
0.0
 40
7.5
  1
5 m per le curve ordinarie
 50
1.931
 41
0.867
  0
TEXT
  5
D3
  8
16P16
 10
1715399.517
 20
5029159.279
 30
0.0
 40
10.0
  1
AL CENTRO DELL'ELEMENTO 1:5000
 50
1.931
  0
TEXT
  5
D4
  8
16P16
 10
1715390.67
 20
5029179.647
 30
0.0
 40
10.0
  1
E MODULO DI DEFORMAZIONE LINEARE
 50
1.931
  0
TEXT
  5
D5
  8
16P16
 10
1715375.005
 20
5029199.12
 30
0.0
 40
10.0
  1
DECLINAZIONE MAGNETICA, CONVERGENZA
 50
1.931
  0
TEXT
  5
D6
  8
16Q17
 10
1715475.721
 20
5029268.439
 30
0.0
 40
7.5
  1
1 m per le curve ausiliarie (tratteggiate)
 50
1.931
 41
0.867
  0
TEXT
  5
D7
  8
16Q17
 10
1715599.552
 20
5029405.671
 30
0.0
 40
7.5
  1
Quote fotogrammetriche    :
 50
1.931
 41
0.867
  0
TEXT
  5
D8
  8
16Q17
 10
1715491.056
 20
5029422.108
 30
0.0
 40
7.5
  1
Quote topografiche di determinazione diretta    :
 50
1.931
 41
0.867
  0
TEXT
  5
D9
  8
16Q17
 10
1715615.835
 20
5029446.187
 30
0.0
 40
7.5
  1
Vertici trigonometrici    :
 50
1.931
 41
0.867
  0
TEXT
  5
DA
  8
16Q17
 10
1715614.124
 20
5029466.216
 30
0.0
 40
7.5
  1
Caposaldi di livellazione  :
 50
1.931
 41
0.867
  0
TEXT
  5
DB
  8
16P16
 10
1715543.1
 20
5029511.133
 30
0.0
 40
10.0
  1
INDICI DELLA PRECISIONE ALTIMETRICA
 50
1.931
  0
TEXT
  5
DC
  8
16Q17
 10
1715686.135
 20
5028934.061
 30
0.0
 40
6.5
  1
 +6',2
 50
1.921
 41
0.846
  0
TEXT
  5
DD
  8
16Q17
 10
1715401.065
 20
5029019.902
 30
0.0
 40
7.5
  1
 =1  56' 36''
 50
1.941
 41
0.867
  0
TEXT
  5
DE
  8
16Q17
 10
1715400.391
 20
5029039.89
 30
0.0
 40
7.5
  1
 = +1  06'
 50
1.941
 41
0.867
  0
TEXT
  5
DF
  8
16Q17
 10
1715401.689
 20
5028999.912
 30
0.0
 40
7.5
  1
 = 1.0001613
 50
1.931
 41
0.867
  0
TEXT
  5
E0
  8
16Q17
 10
1715372.103
 20
5028923.636
 30
0.0
 40
6.0
  1
La declinazione magnetica e' al 1  Ottobre 1998 e
 50
1.951
 41
0.833
  0
TEXT
  5
E1
  8
16P16
 10
1715524.407
 20
5028712.004
 30
0.0
 40
10.0
  1
147011
 50
1.931
  0
TEXT
  5
E2
  8
16P16
 10
1715520.947
 20
5028811.944
 30
0.0
 40
10.0
  1
126132
 50
1.931
  0
TEXT
  5
E3
  8
16P16
 10
1715510.987
 20
5028788.325
 30
0.0
 40
7.5
  1
SACCOLONGO
 50
1.931
  0
TEXT
  5
E4
  8
16P16
 10
1715527.228
 20
5028612.042
 30
0.0
 40
10.0
  1
147012
 50
1.941
  0
TEXT
  5
E5
  8
16P16
 10
1715511.929
 20
5028688.305
 30
0.0
 40
7.5
  1
S. BENEDETTO
 50
1.931
  0
TEXT
  5
E6
  8
16P16
 10
1715528.662
 20
5028588.807
 30
0.0
 40
7.5
  1
ABBAZIA 
 50
1.931
  0
TEXT
  5
E7
  8
16P16
 10
1715404.848
 20
5028808.024
 30
0.0
 40
10.0
  1
126133
 50
1.931
  0
TEXT
  5
E8
  8
16P16
 10
1715405.313
 20
5028784.756
 30
0.0
 40
7.5
  1
FOSSONA
 50
1.931
  0
TEXT
  5
E9
  8
16P16
 10
1715408.069
 20
5028708.076
 30
0.0
 40
10.0
  1
147014
 50
1.931
  0
TEXT
  5
EA
  8
16P16
 10
1715411.149
 20
5028608.123
 30
0.0
 40
10.0
  1
147013
 50
1.931
  0
TEXT
  5
EB
  8
16P16
 10
1715398.354
 20
5028684.47
 30
0.0
 40
7.5
  1
MONTEMERLO
 50
1.931
  0
TEXT
  5
EC
  8
16P16
 10
1715651.952
 20
5028592.97
 30
0.0
 40
7.5
  1
TERME
 50
1.931
  0
TEXT
  5
ED
  8
16P16
 10
1715644.371
 20
5028615.997
 30
0.0
 40
10.0
  1
147023
 50
1.931
  0
TEXT
  5
EE
  8
16P16
 10
1715641.001
 20
5028715.941
 30
0.0
 40
10.0
  1
147024
 50
1.931
  0
TEXT
  5
EF
  8
16P16
 10
1715637.631
 20
5028815.884
 30
0.0
 40
10.0
  1
126143
 50
1.931
  0
TEXT
  5
F0
  8
16P16
 10
1715374.492
 20
5028843.906
 30
0.0
 40
10.0
  1
QUADRO D'UNIONE DEGLI ELEMENTI LIMITROFI
 50
1.931
 41
0.95
  0
TEXT
  5
F1
  8
16Q17
 10
1715551.382
 20
5028999.977
 30
0.0
 40
6.5
  1
= MODULO DEFORMAZIONE LINEARE
 50
2.071
 41
0.846
  0
TEXT
  5
F2
  8
16Q17
 10
1715543.988
 20
5029024.596
 30
0.0
 40
6.5
  1
 = CONVERGENZA DEL MERIDIANO
 50
1.931
 41
0.846
  0
TEXT
  5
F3
  8
16Q17
 10
1715543.145
 20
5029049.587
 30
0.0
 40
6.5
  1
 = DECLINAZIONE MAGNETICA
 50
1.931
 41
0.846
  0
TEXT
  5
F4
  8
16Q17
 10
1715583.267
 20
5028930.637
 30
0.0
 40
6.0
  1
varia annualmente di circa
 50
1.951
 41
0.833
  0
TEXT
  5
F5
  8
16P16
 10
1715637.32
 20
5028792.595
 30
0.0
 40
7.5
  1
MARAFON
 50
1.931
  0
TEXT
  5
F6
  8
16P16
 10
1715634.614
 20
5028692.447
 30
0.0
 40
7.5
  1
SELVAZZANO
 50
1.931
  0
TEXT
  5
F7
  8
16P16
 10
1715648.041
 20
5028672.879
 30
0.0
 40
7.5
  1
DENTRO
 50
1.931
  0
TEXT
  5
F8
  8
16Q17
 10
1715934.178
 20
5029059.972
 30
0.0
 40
7.5
  1
TEOLO
 50
1.931
 41
0.867
  0
TEXT
  5
F9
  8
16Q17
 10
1715762.553
 20
5029054.109
 30
0.0
 40
7.5
  1
S. CROCE
 50
1.931
 41
0.867
  0
TEXT
  5
FA
  8
16P16
 10
1715784.262
 20
5028857.614
 30
0.0
 40
10.0
  1
COPERTURA DI FOTOGRAFIE AEREE
 50
1.931
  0
TEXT
  5
FB
  8
16P16
 10
1715833.77
 20
5029234.317
 30
0.0
 40
10.0
  1
LIMITI AMMINISTRATIVI
 50
1.931
  0
TEXT
  5
FC
  8
16Q17
 10
1715844.297
 20
5028648.854
 30
0.0
 40
7.5
  1
STRISCIATA 6 Fotogr. 2151-2153
 50
1.931
 41
0.867
  0
TEXT
  5
FD
  8
16P16
 10
1715840.417
 20
5028765.86
 30
0.0
 40
7.5
  1
STRISCIATA 5 Fotogr. 2043-2045
 50
1.931
 41
0.867
  0
TEXT
  5
FE
  8
16Q17
 10
1715975.359
 20
5029197.543
 30
0.0
 40
7.5
  1
SACCOLONGO
 50
1.931
 41
0.867
  0
TEXT
  5
FF
  8
16Q17
 10
1715710.856
 20
5028416.1
 30
0.0
 40
7.5
  1
2
 50
1.941
 41
0.867
  0
TEXT
  5
100
  8
16Q17
 10
1715709.587
 20
5028453.583
 30
0.0
 40
7.5
  1
1
 50
1.941
 41
0.867
  0
TEXT
  5
101
  8
16Q17
 10
1715667.131
 20
5028414.625
 30
0.0
 40
7.5
  1
3
 50
1.941
 41
0.867
  0
TEXT
  5
102
  8
16Q17
 10
1715665.862
 20
5028452.109
 30
0.0
 40
7.5
  1
4
 50
1.901
 41
0.867
  0
TEXT
  5
103
  8
16Q17
 10
1715682.744
 20
5028430.365
 30
0.0
 40
10.0
  1
04
 50
1.931
  0
TEXT
  5
104
  8
16Q17
 10
1715712.12
 20
5028378.626
 30
0.0
 40
7.5
  1
1
 50
1.941
 41
0.867
  0
TEXT
  5
105
  8
16Q17
 10
1715668.395
 20
5028377.151
 30
0.0
 40
7.5
  1
4
 50
1.901
 41
0.867
  0
TEXT
  5
106
  8
16Q17
 10
1715685.272
 20
5028355.418
 30
0.0
 40
10.0
  1
08
 50
1.931
  0
TEXT
  5
107
  8
16Q17
 10
1715765.778
 20
5028441.88
 30
0.0
 40
7.5
  1
PROVINCIA DI PADOVA
 50
1.931
 41
0.867
  0
TEXT
  5
108
  8
16Q17
 10
1715765.104
 20
5028461.869
 30
0.0
 40
7.5
  1
REGIONE DEL VENETO
 50
1.931
 41
0.867
  0
TEXT
  5
109
  8
16Q17
 10
1715768.479
 20
5028361.931
 30
0.0
 40
7.5
  1
ESECUZIONE: RPA S.p.A. - Perugia
 50
1.931
 41
0.867
  0
TEXT
  5
10A
  8
16Q17
 10
1715766.422
 20
5028511.812
 30
0.0
 40
7.5
  1
Quota media relativa di volo: 2000 m.
 50
1.941
 41
0.867
  0
TEXT
  5
10B
  8
16Q17
 10
1715864.505
 20
5028185.067
 30
0.0
 40
7.5
  1
Ing. L. CHIAPPINI
 50
1.931
 41
0.867
  0
TEXT
  5
10C
  8
16Q17
 10
1715713.384
 20
5028341.142
 30
0.0
 40
7.5
  1
2
 50
1.941
 41
0.867
  0
TEXT
  5
10D
  8
16Q17
 10
1715714.647
 20
5028303.669
 30
0.0
 40
7.5
  1
1
 50
1.941
 41
0.867
  0
TEXT
  5
10E
  8
16Q17
 10
1715669.659
 20
5028339.668
 30
0.0
 40
7.5
  1
3
 50
1.941
 41
0.867
  0
TEXT
  5
10F
  8
16Q17
 10
1715670.922
 20
5028302.194
 30
0.0
 40
7.5
  1
4
 50
1.901
 41
0.867
  0
TEXT
  5
110
  8
16Q17
 10
1715715.916
 20
5028266.19
 30
0.0
 40
7.5
  1
2
 50
1.941
 41
0.867
  0
TEXT
  5
111
  8
16Q17
 10
1715672.186
 20
5028264.71
 30
0.0
 40
7.5
  1
3
 50
1.941
 41
0.867
  0
TEXT
  5
112
  8
16Q17
 10
1715688.467
 20
5028280.408
 30
0.0
 40
10.0
  1
12
 50
1.931
  0
TEXT
  5
113
  8
16Q17
 10
1715718.449
 20
5028191.233
 30
0.0
 40
7.5
  1
2
 50
1.941
 41
0.867
  0
TEXT
  5
114
  8
16Q17
 10
1715674.724
 20
5028189.753
 30
0.0
 40
7.5
  1
3
 50
1.941
 41
0.867
  0
TEXT
  5
115
  8
16Q17
 10
1715690.998
 20
5028205.501
 30
0.0
 40
10.0
  1
16
 50
1.931
  0
TEXT
  5
116
  8
16Q17
 10
1715717.18
 20
5028228.711
 30
0.0
 40
7.5
  1
1
 50
1.901
 41
0.867
  0
TEXT
  5
117
  8
16Q17
 10
1715673.455
 20
5028227.232
 30
0.0
 40
7.5
  1
4
 50
1.941
 41
0.867
  0
TEXT
  5
118
  8
16Q17
 10
1715771.181
 20
5028281.972
 30
0.0
 40
7.5
  1
COLLAUDO: Prof. Ing. M. FONDELLI
 50
1.931
 41
0.867
  0
TEXT
  5
119
  8
16Q17
 10
1715770.507
 20
5028301.96
 30
0.0
 40
7.5
  1
DIREZIONE LAVORI: Ing. M. DE GENNARO
 50
1.931
 41
0.867
  0
TEXT
  5
11A
  8
16Q17
 10
1715769.833
 20
5028321.954
 30
0.0
 40
7.5
  1
DIREZIONE TECNICA: Ing. R. BONTEMPELLI
 50
1.931
 41
0.867
  0
TEXT
  5
11B
  8
16D4
 10
1715775.952
 20
5028145.82
 30
0.0
 40
12.5
  1
147011 S. BENEDETTO
 50
1.931
  0
TEXT
  5
11D
  8
16P16
 10
1715522.655
 20
5028568.583
 30
0.0
 40
7.5
  1
DI PRAGLIA
 50
1.931
  0
TEXT
  5
11E
  8
16Q17
 10
1715623.401
 20
5028413.15
 30
0.0
 40
7.5
  1
2
 50
1.941
 41
0.867
  0
TEXT
  5
11F
  8
16Q17
 10
1715622.137
 20
5028450.629
 30
0.0
 40
7.5
  1
1
 50
1.941
 41
0.867
  0
TEXT
  5
120
  8
16Q17
 10
1715594.834
 20
5028427.401
 30
0.0
 40
10.0
  1
03
 50
1.931
  0
TEXT
  5
121
  8
16Q17
 10
1715579.681
 20
5028411.676
 30
0.0
 40
7.5
  1
3
 50
1.891
 41
0.867
  0
TEXT
  5
122
  8
16Q17
 10
1715578.412
 20
5028449.15
 30
0.0
 40
7.5
  1
4
 50
1.941
 41
0.867
  0
TEXT
  5
123
  8
16Q17
 10
1715624.67
 20
5028375.672
 30
0.0
 40
7.5
  1
1
 50
1.941
 41
0.867
  0
TEXT
  5
124
  8
16Q17
 10
1715580.944
 20
5028374.197
 30
0.0
 40
7.5
  1
4
 50
1.941
 41
0.867
  0
TEXT
  5
125
  8
16Q17
 10
1715597.362
 20
5028352.453
 30
0.0
 40
10.0
  1
07
 50
1.931
  0
TEXT
  5
126
  8
16Q17
 10
1715535.956
 20
5028410.197
 30
0.0
 40
7.5
  1
2
 50
1.941
 41
0.867
  0
TEXT
  5
127
  8
16Q17
 10
1715534.687
 20
5028447.675
 30
0.0
 40
7.5
  1
1
 50
1.941
 41
0.867
  0
TEXT
  5
128
  8
16Q17
 10
1715507.251
 20
5028424.232
 30
0.0
 40
10.0
  1
02
 50
1.931
  0
TEXT
  5
129
  8
16Q17
 10
1715490.962
 20
5028446.196
 30
0.0
 40
7.5
  1
4
 50
1.941
 41
0.867
  0
TEXT
  5
12A
  8
16Q17
 10
1715537.22
 20
5028372.718
 30
0.0
 40
7.5
  1
1
 50
1.891
 41
0.867
  0
TEXT
  5
12B
  8
16Q17
 10
1715493.495
 20
5028371.238
 30
0.0
 40
7.5
  1
4
 50
1.941
 41
0.867
  0
TEXT
  5
12C
  8
16Q17
 10
1715492.231
 20
5028408.722
 30
0.0
 40
7.5
  1
3
 50
1.941
 41
0.867
  0
TEXT
  5
12D
  8
16P16
 10
1715422.442
 20
5028565.199
 30
0.0
 40
7.5
  1
TEOLO
 50
1.931
  0
TEXT
  5
12E
  8
16Q17
 10
1715447.237
 20
5028444.721
 30
0.0
 40
7.5
  1
1
 50
1.941
 41
0.867
  0
TEXT
  5
12F
  8
16Q17
 10
1715421.105
 20
5028421.327
 30
0.0
 40
10.0
  1
01
 50
1.931
  0
TEXT
  5
130
  8
16Q17
 10
1715449.769
 20
5028369.764
 30
0.0
 40
7.5
  1
1
 50
1.941
 41
0.867
  0
TEXT
  5
131
  8
16Q17
 10
1715406.044
 20
5028368.289
 30
0.0
 40
7.5
  1
4
 50
1.941
 41
0.867
  0
TEXT
  5
132
  8
16Q17
 10
1715404.78
 20
5028405.768
 30
0.0
 40
7.5
  1
3
 50
1.941
 41
0.867
  0
TEXT
  5
133
  8
16Q17
 10
1715448.5
 20
5028407.248
 30
0.0
 40
7.5
  1
2
 50
1.901
 41
0.867
  0
TEXT
  5
134
  8
16Q17
 10
1715403.453
 20
5028443.195
 30
0.0
 40
7.5
  1
4
 50
1.891
 41
0.867
  0
TEXT
  5
135
  8
16Q17
 10
1715625.933
 20
5028338.193
 30
0.0
 40
7.5
  1
2
 50
1.941
 41
0.867
  0
TEXT
  5
136
  8
16Q17
 10
1715627.198
 20
5028300.7
 30
0.0
 40
7.5
  1
1
 50
1.941
 41
0.867
  0
TEXT
  5
137
  8
16Q17
 10
1715582.209
 20
5028336.714
 30
0.0
 40
7.5
  1
3
 50
1.941
 41
0.867
  0
TEXT
  5
138
  8
16Q17
 10
1715583.477
 20
5028299.24
 30
0.0
 40
7.5
  1
4
 50
1.941
 41
0.867
  0
TEXT
  5
139
  8
16Q17
 10
1715628.461
 20
5028263.236
 30
0.0
 40
7.5
  1
2
 50
1.901
 41
0.867
  0
TEXT
  5
13A
  8
16Q17
 10
1715584.743
 20
5028261.697
 30
0.0
 40
7.5
  1
3
 50
1.941
 41
0.867
  0
TEXT
  5
13B
  8
16Q17
 10
1715602.216
 20
5028277.499
 30
0.0
 40
10.0
  1
11
 50
1.931
  0
TEXT
  5
13C
  8
16Q17
 10
1715538.483
 20
5028335.239
 30
0.0
 40
7.5
  1
2
 50
1.941
 41
0.867
  0
TEXT
  5
13D
  8
16Q17
 10
1715539.752
 20
5028297.761
 30
0.0
 40
7.5
  1
1
 50
1.901
 41
0.867
  0
TEXT
  5
13E
  8
16Q17
 10
1715494.758
 20
5028333.765
 30
0.0
 40
7.5
  1
3
 50
1.941
 41
0.867
  0
TEXT
  5
13F
  8
16Q17
 10
1715496.027
 20
5028296.286
 30
0.0
 40
7.5
  1
4
 50
1.941
 41
0.867
  0
TEXT
  5
140
  8
16Q17
 10
1715541.011
 20
5028260.282
 30
0.0
 40
7.5
  1
2
 50
1.941
 41
0.867
  0
TEXT
  5
141
  8
16Q17
 10
1715513.097
 20
5028274.174
 30
0.0
 40
10.0
  1
10
 50
1.931
  0
TEXT
  5
142
  8
16Q17
 10
1715497.286
 20
5028258.807
 30
0.0
 40
7.5
  1
3
 50
1.941
 41
0.867
  0
TEXT
  5
143
  8
16Q17
 10
1715630.999
 20
5028188.279
 30
0.0
 40
7.5
  1
2
 50
1.901
 41
0.867
  0
TEXT
  5
144
  8
16Q17
 10
1715587.274
 20
5028186.799
 30
0.0
 40
7.5
  1
3
 50
1.941
 41
0.867
  0
TEXT
  5
145
  8
16Q17
 10
1715586.005
 20
5028224.283
 30
0.0
 40
7.5
  1
4
 50
1.941
 41
0.867
  0
TEXT
  5
146
  8
16Q17
 10
1715603.232
 20
5028202.541
 30
0.0
 40
10.0
  1
15
 50
1.931
  0
TEXT
  5
147
  8
16Q17
 10
1715543.549
 20
5028185.325
 30
0.0
 40
7.5
  1
2
 50
1.941
 41
0.867
  0
TEXT
  5
148
  8
16Q17
 10
1715542.28
 20
5028222.808
 30
0.0
 40
7.5
  1
1
 50
1.901
 41
0.867
  0
TEXT
  5
149
  8
16Q17
 10
1715499.824
 20
5028183.85
 30
0.0
 40
7.5
  1
3
 50
1.901
 41
0.867
  0
TEXT
  5
14A
  8
16Q17
 10
1715498.555
 20
5028221.329
 30
0.0
 40
7.5
  1
4
 50
1.941
 41
0.867
  0
TEXT
  5
14B
  8
16Q17
 10
1715515.722
 20
5028199.455
 30
0.0
 40
10.0
  1
14
 50
1.931
  0
TEXT
  5
14C
  8
16Q17
 10
1715629.73
 20
5028225.757
 30
0.0
 40
7.5
  1
1
 50
1.941
 41
0.867
  0
TEXT
  5
14D
  8
16Q17
 10
1715451.033
 20
5028332.29
 30
0.0
 40
7.5
  1
2
 50
1.901
 41
0.867
  0
TEXT
  5
14E
  8
16Q17
 10
1715452.297
 20
5028294.807
 30
0.0
 40
7.5
  1
1
 50
1.941
 41
0.867
  0
TEXT
  5
14F
  8
16Q17
 10
1715407.308
 20
5028330.811
 30
0.0
 40
7.5
  1
3
 50
1.941
 41
0.867
  0
TEXT
  5
150
  8
16Q17
 10
1715408.577
 20
5028293.332
 30
0.0
 40
7.5
  1
4
 50
1.901
 41
0.867
  0
TEXT
  5
151
  8
16Q17
 10
1715453.582
 20
5028256.848
 30
0.0
 40
7.5
  1
2
 50
1.901
 41
0.867
  0
TEXT
  5
152
  8
16Q17
 10
1715425.059
 20
5028271.455
 30
0.0
 40
10.0
  1
09
 50
1.931
  0
TEXT
  5
153
  8
16Q17
 10
1715409.841
 20
5028255.854
 30
0.0
 40
7.5
  1
3
 50
1.941
 41
0.867
  0
TEXT
  5
154
  8
16Q17
 10
1715456.099
 20
5028182.371
 30
0.0
 40
7.5
  1
2
 50
1.941
 41
0.867
  0
TEXT
  5
155
  8
16Q17
 10
1715454.83
 20
5028219.849
 30
0.0
 40
7.5
  1
1
 50
1.941
 41
0.867
  0
TEXT
  5
156
  8
16Q17
 10
1715428.476
 20
5028196.513
 30
0.0
 40
10.0
  1
13
 50
1.931
  0
TEXT
  5
157
  8
16Q17
 10
1715412.374
 20
5028180.896
 30
0.0
 40
7.5
  1
3
 50
1.941
 41
0.867
  0
TEXT
  5
158
  8
16Q17
 10
1715411.1
 20
5028218.525
 30
0.0
 40
7.5
  1
4
 50
1.941
 41
0.867
  0
TEXT
  5
159
  8
16Q17
 10
1715509.793
 20
5028349.59
 30
0.0
 40
10.0
  1
06
 50
1.931
  0
TEXT
  5
15A
  8
16Q17
 10
1715422.523
 20
5028346.648
 30
0.0
 40
10.0
  1
05
 50
1.931
  0
TEXT
  5
15B
  8
16P16
 10
1715407.644
 20
5028469.811
 30
0.0
 40
10.0
  1
POSIZIONE DELL'ELEMENTO NEL F 147
 50
1.931
  0
TEXT
  5
15C
  8
16Q17
 10
1715773.882
 20
5028202.017
 30
0.0
 40
7.5
  1
IL SEGRETARIO REGIONALE PER IL TERRITORIO
 50
1.931
 41
0.867
  0
TEXT
  5
15D
  8
16Q17
 10
1715767.805
 20
5028381.92
 30
0.0
 40
7.5
  1
RILIEVO AEROFOTOGRAMMETRICO ANNO 1997
 50
1.941
 41
0.867
  0
TEXT
  5
15E
  8
16Q17
 10
1715765.748
 20
5028531.8
 30
0.0
 40
7.5
  1
Ripresa: anno 1997         Camera Leica RC20
 50
1.921
 41
0.867
  0
TEXT
  5
15F
  8
16P16
 10
1715414.482
 20
5028584.957
 30
0.0
 40
7.5
  1
VILLA DI
 50
1.931
  0
TEXT
  5
160
  8
16C3
  6
CONTINUOUS
 10
1715280.06
 20
5029091.648
 30
0.0
 40
9.0
  1
45%%d 23' 00"
 50
91.938
  7
ROMANS
 72
     4
 11
1715273.286
 21
5029133.443
 31
0.0
  0
TEXT
  5
161
  8
16C3
  6
CONTINUOUS
 10
1715267.592
 20
5028957.039
 30
0.0
 40
9.0
  1
5 029 000
 50
91.938
  7
ROMANS
 72
     1
 11
1715266.273
 21
5028996.017
 31
0.0
  0
TEXT
  5
162
  8
16C3
  6
CONTINUOUS
 10
1715284.51
 20
5028457.789
 30
0.0
 40
9.0
  1
5 028 500
 50
91.938
  7
ROMANS
 72
     1
 11
1715283.191
 21
5028496.766
 31
0.0
  0
TEXT
  5
163
  8
16C3
  6
CONTINUOUS
 10
1714956.453
 20
5028180.253
 30
0.0
 40
10.0
  1
1 715 000
 50
1.932
  7
ROMANS
 72
     1
 11
1715000.476
 21
5028181.738
 31
0.0
  0
TEXT
  5
164
  8
16D4
 62
     6
 10
1714947.522
 20
5028129.28
 30
0.0
 40
8.0
  1
Nulla osta dell'I.G.M. alla diffusione n  322 del
 50
1.931
  0
TEXT
  5
165
  8
16C3
  6
CONTINUOUS
 10
1714456.453
 20
5028163.386
 30
0.0
 40
10.0
  1
1 714 500
 50
1.932
  7
ROMANS
 72
     1
 11
1714500.476
 21
5028164.871
 31
0.0
  0
TEXT
  5
166
  8
16C3
  6
CONTINUOUS
 10
1714585.741
 20
5028151.434
 30
0.0
 40
9.0
  1
11%%d 44' 30"
 50
1.932
  7
ROMANS
 72
     4
 11
1714628.179
 21
5028158.226
 31
0.0
  0
TEXT
  5
167
  8
16D4
 62
     6
 10
1714584.163
 20
5028117.027
 30
0.0
 40
8.0
  1
Controllato ai sensi della Legge n  68 del 2-2-1960.
 50
1.931
  0
TEXT
  5
168
  8
16D4
 62
     6
 10
1715250.273
 20
5028139.83
 30
0.0
 40
8.0
  1
18-09-1998
 50
1.931
  0
TEXT
  5
169
  8
16C3
  6
CONTINUOUS
 10
1715250.67
 20
5029457.997
 30
0.0
 40
9.0
  1
5 029 500
 50
91.938
  7
ROMANS
 72
     1
 11
1715249.351
 21
5029496.975
 31
0.0
  0
TEXT
  5
16A
  8
16C3
  6
CONTINUOUS
 10
1713837.319
 20
5030957.195
 30
0.0
 40
9.0
  1
11%%d 44' 00"
 50
1.932
  7
ROMANS
 72
     4
 11
1713879.757
 21
5030963.987
 31
0.0
  0
TEXT
  5
16B
  8
16C3
  6
CONTINUOUS
 10
1713455.809
 20
5030929.677
 30
0.0
 40
10.0
  1
1 713 500
 50
1.932
  7
ROMANS
 72
     1
 11
1713499.831
 21
5030931.162
 31
0.0
  0
TEXT
  5
16C
  8
16C3
  6
CONTINUOUS
 10
1713185.119
 20
5030935.195
 30
0.0
 40
9.0
  1
11%%d 43' 30"
 50
1.932
  7
ROMANS
 72
     4
 11
1713227.557
 21
5030941.987
 31
0.0
  0
TEXT
  5
16D
  8
16C3
  6
CONTINUOUS
 10
1712955.809
 20
5030912.81
 30
0.0
 40
10.0
  1
1 713 000
 50
1.932
  7
ROMANS
 72
     1
 11
1712999.831
 21
5030914.295
 31
0.0
  0
TEXT
  5
16E
  8
16C3
  6
CONTINUOUS
 10
1712532.751
 20
5030918.192
 30
0.0
 40
9.0
  1
11%%d 43' 00"
 50
1.932
  7
ROMANS
 72
     4
 11
1712575.189
 21
5030924.984
 31
0.0
  0
TEXT
  5
16F
  8
16C3
  6
CONTINUOUS
 10
1712455.809
 20
5030895.943
 30
0.0
 40
10.0
  1
1 712 500
 50
1.932
  7
ROMANS
 72
     1
 11
1712499.831
 21
5030897.428
 31
0.0
  0
TEXT
  5
170
  8
16C3
  6
CONTINUOUS
 10
1711955.809
 20
5030879.076
 30
0.0
 40
10.0
  1
1 712 000
 50
1.932
  7
ROMANS
 72
     1
 11
1711999.831
 21
5030880.561
 31
0.0
  0
TEXT
  5
171
  8
16D4
 10
1711901.983
 20
5030937.913
 30
0.0
 40
12.5
  1
147011 S. BENEDETTO
 50
1.941
  0
TEXT
  5
172
  8
16C3
  6
CONTINUOUS
 10
1711937.121
 20
5029904.36
 30
0.0
 40
9.0
  1
45%%d 23' 30"
 50
91.938
  7
ROMANS
 72
     4
 11
1711930.347
 21
5029946.155
 31
0.0
  0
TEXT
  5
173
  8
16C3
  6
CONTINUOUS
 10
1711949.86
 20
5029960.853
 30
0.0
 40
9.0
  1
5 030 000
 50
91.938
  7
ROMANS
 72
     1
 11
1711948.541
 21
5029999.831
 31
0.0
  0
TEXT
  5
174
  8
16C3
  6
CONTINUOUS
 10
1711932.942
 20
5030460.853
 30
0.0
 40
9.0
  1
5 030 500
 50
91.938
  7
ROMANS
 72
     1
 11
1711931.623
 21
5030499.831
 31
0.0
  0
TEXT
  5
175
  8
16C3
  6
CONTINUOUS
 10
1713456.453
 20
5028129.659
 30
0.0
 40
10.0
  1
1 713 500
 50
1.932
  7
ROMANS
 72
     1
 11
1713500.476
 21
5028131.144
 31
0.0
  0
TEXT
  5
176
  8
16C3
  6
CONTINUOUS
 10
1712956.453
 20
5028112.792
 30
0.0
 40
10.0
  1
1 713 000
 50
1.932
  7
ROMANS
 72
     1
 11
1713000.476
 21
5028114.277
 31
0.0
  0
TEXT
  5
177
  8
16C3
  6
CONTINUOUS
 10
1713281.676
 20
5028099.387
 30
0.0
 40
9.0
  1
11%%d 43' 30"
 50
1.932
  7
ROMANS
 72
     4
 11
1713324.114
 21
5028106.178
 31
0.0
  0
TEXT
  5
178
  8
16C3
  6
CONTINUOUS
 10
1711983.7
 20
5028960.853
 30
0.0
 40
9.0
  1
5 029 000
 50
91.938
  7
ROMANS
 72
     1
 11
1711982.381
 21
5028999.831
 31
0.0
  0
TEXT
  5
179
  8
16C3
  6
CONTINUOUS
 10
1711968.454
 20
5028978.36
 30
0.0
 40
9.0
  1
45%%d 23' 00"
 50
91.938
  7
ROMANS
 72
     4
 11
1711961.68
 21
5029020.155
 31
0.0
  0
TEXT
  5
17A
  8
16C3
  6
CONTINUOUS
 10
1712456.453
 20
5028095.925
 30
0.0
 40
10.0
  1
1 712 500
 50
1.932
  7
ROMANS
 72
     1
 11
1712500.476
 21
5028097.41
 31
0.0
  0
TEXT
  5
17B
  8
16C3
  6
CONTINUOUS
 10
1712000.618
 20
5028460.853
 30
0.0
 40
9.0
  1
5 028 500
 50
91.938
  7
ROMANS
 72
     1
 11
1711999.299
 21
5028499.831
 31
0.0
  0
TEXT
  5
17C
  8
16D4
 10
1712000.525
 20
5028019.571
 30
0.0
 40
12.5
  1
147011 S. BENEDETTO
 50
1.931
  0
TEXT
  5
17D
  8
16C3
  6
CONTINUOUS
 10
1712629.141
 20
5028085.434
 30
0.0
 40
9.0
  1
11%%d 43' 00"
 50
1.932
  7
ROMANS
 72
     4
 11
1712671.579
 21
5028092.226
 31
0.0
  0
TEXT
  5
17E
  8
16C3
  6
CONTINUOUS
 10
1711966.778
 20
5029460.853
 30
0.0
 40
9.0
  1
5 029 500
 50
91.938
  7
ROMANS
 72
     1
 11
1711965.459
 21
5029499.831
 31
0.0
  0
TEXT
  5
17F
  8
16C3
  6
CONTINUOUS
 10
1713955.809
 20
5030946.544
 30
0.0
 40
10.0
  1
1 714 000
 50
1.932
  7
ROMANS
 72
     1
 11
1713999.831
 21
5030948.029
 31
0.0
  0
TEXT
  5
180
  8
16C3
  6
CONTINUOUS
 10
1713956.453
 20
5028146.526
 30
0.0
 40
10.0
  1
1 714 000
 50
1.932
  7
ROMANS
 72
     1
 11
1714000.476
 21
5028148.011
 31
0.0
  0
TEXT
  5
181
  8
16C3
  6
CONTINUOUS
 10
1713937.929
 20
5028124.172
 30
0.0
 40
9.0
  1
11%%d 44' 00"
 50
1.932
  7
ROMANS
 72
     4
 11
1713980.367
 21
5028130.963
 31
0.0
  0
TEXT
  5
182
  8
14G7
 10
1714234.918
 20
5028308.086
 30
0.0
 40
7.5
  1
NICOLINI
 50
22.08
 41
0.733
  0
TEXT
  5
184
  8
14G7
 10
1714137.07
 20
5028269.117
 30
0.0
 40
7.5
  1
VIA
 50
21.28
 41
0.733
  0
TEXT
  5
185
  8
14O15
 62
     5
 10
1712406.367
 20
5028238.023
 30
0.0
 40
10.0
  1
LUNGA
 50
341.54
 51
15.0
  7
ROMANS
  0
TEXT
  5
187
  8
14O15
 62
     5
 10
1712293.039
 20
5028309.25
 30
0.0
 40
10.0
  1
FOSSA
 50
331.97
 51
15.0
  7
ROMANS
  0
TEXT
  5
188
  8
14G7
 10
1712657.816
 20
5028423.961
 30
0.0
 40
7.5
  1
BRESSEO
 50
305.24
 41
0.733
  0
TEXT
  5
189
  8
14G7
 10
1712573.371
 20
5028451.07
 30
0.0
 40
7.5
  1
VIA
 50
0.36
 41
0.733
  0
TEXT
  5
18A
  8
14G7
 10
1714452.473
 20
5028205.094
 30
0.0
 40
7.5
  1
VILLA
 50
21.2
 41
0.733
  0
TEXT
  5
18B
  8
14G7
 10
1714519.074
 20
5028235.852
 30
0.0
 40
7.5
  1
DEL  BOSCO
 50
20.04
 41
0.733
  0
TEXT
  5
18C
  8
14G7
 10
1714399.969
 20
5028186.992
 30
0.0
 40
7.5
  1
VIA
 50
20.82
 41
0.733
  0
TEXT
  5
18D
  8
14G7
 10
1714598.527
 20
5028873.734
 30
0.0
 40
7.5
  1
MOTTARELLO
 41
0.733
  0
TEXT
  5
18E
  8
14G7
 10
1714614.566
 20
5028887.102
 30
0.0
 40
7.5
  1
CASA 
 41
0.733
  0
TEXT
  5
18F
  8
14G7
 10
1714236.73
 20
5028531.539
 30
0.0
 40
7.5
  1
SELVE
 50
289.26
 41
0.733
  0
TEXT
  5
190
  8
14G7
 10
1714192.543
 20
5028661.867
 30
0.0
 40
7.5
  1
VIA
 50
287.98
 41
0.733
  0
TEXT
  5
191
  8
14G7
 10
1714161.293
 20
5028985.391
 30
0.0
 40
7.5
  1
CASA RUZZA
 41
0.733
  0
TEXT
  5
192
  8
14O15
 62
     5
 10
1713169.383
 20
5028693.0
 30
0.0
 40
10.0
  1
SPINOSELLA
 50
279.16
 51
15.0
  7
ROMANS
  0
TEXT
  5
193
  8
14O15
 62
     5
 10
1712966.313
 20
5028939.313
 30
0.0
 40
10.0
  1
FOSSO
 50
292.12
 51
15.0
  7
ROMANS
  0
TEXT
  5
194
  8
14G7
 10
1712534.094
 20
5028864.594
 30
0.0
 40
7.5
  1
COLOMBARE
 50
16.26
 41
0.733
  0
TEXT
  5
195
  8
14G7
 10
1712504.094
 20
5028943.992
 30
0.0
 40
7.5
  1
VIA
 50
283.89
 41
0.733
  0
TEXT
  5
196
  8
14G7
 10
1712139.02
 20
5029017.828
 30
0.0
 40
7.5
  1
REPOISE
 50
66.59
 41
0.733
  0
TEXT
  5
197
  8
14G7
 10
1712069.125
 20
5028853.477
 30
0.0
 40
7.5
  1
VIA
 50
68.19
 41
0.733
  0
TEXT
  5
198
  8
14G7
 10
1712445.672
 20
5029450.063
 30
0.0
 40
7.5
  1
VILLA MARIN
 41
0.733
  0
TEXT
  5
199
  8
14G7
 10
1713011.844
 20
5029303.516
 30
0.0
 40
7.5
  1
CASA CORA
 41
0.733
  0
TEXT
  5
19A
  8
14G7
 10
1713487.387
 20
5029271.383
 30
0.0
 40
7.5
  1
T.    LOMBARDO
 50
2.23
 41
0.733
  0
TEXT
  5
19B
  8
14G7
 10
1713197.191
 20
5029256.336
 30
0.0
 40
7.5
  1
VIA
 50
2.77
 41
0.733
  0
TEXT
  5
19C
  8
14G7
 10
1714051.387
 20
5029233.125
 30
0.0
 40
7.5
  1
S. GAETANO
 41
0.733
  0
TEXT
  5
19D
  8
14O15
 62
     5
 10
1715020.055
 20
5028413.438
 30
0.0
 40
10.0
  1
RIALTELLO
 50
309.47
 41
0.75
 51
15.0
  0
TEXT
  5
19E
  8
14O15
 62
     5
 10
1714687.289
 20
5029109.086
 30
0.0
 40
10.0
  1
SCOLO
 50
266.33
 41
0.75
 51
15.0
  0
TEXT
  5
19F
  8
14G7
 10
1715162.746
 20
5028838.305
 30
0.0
 40
7.5
  1
SELVATICO
 50
282.83
 41
0.733
  0
TEXT
  5
1A0
  8
14G7
 10
1715118.582
 20
5029039.602
 30
0.0
 40
7.5
  1
VIA
 50
282.26
 41
0.733
  0
TEXT
  5
1A1
  8
14G7
 10
1714825.676
 20
5029516.625
 30
0.0
 40
7.5
  1
CASA FINCATO
 41
0.733
  0
TEXT
  5
1A2
  8
14G7
 10
1713685.238
 20
5029688.297
 30
0.0
 40
7.5
  1
SELVE
 50
88.53
 41
0.733
  0
TEXT
  5
1A3
  8
14G7
 10
1713683.047
 20
5029590.211
 30
0.0
 40
7.5
  1
VIA
 50
88.26
 41
0.733
  0
TEXT
  5
1A4
  8
14G7
 10
1713588.07
 20
5029785.344
 30
0.0
 40
7.5
  1
S. BENEDETTO
 41
0.733
  0
TEXT
  5
1A5
  8
14G7
 10
1713476.598
 20
5029509.742
 30
0.0
 40
7.5
  1
CASA FABRIS
 41
0.733
  0
TEXT
  5
1A6
  8
14G7
 10
1713064.332
 20
5029706.82
 30
0.0
 40
7.5
  1
CASA FRIZZARIN
 41
0.733
  0
TEXT
  5
1A7
  8
14G7
 10
1712136.949
 20
5029733.695
 30
0.0
 40
7.5
  1
ROVERI
 50
51.65
 41
0.733
  0
TEXT
  5
1A8
  8
14G7
 10
1712088.125
 20
5029660.234
 30
0.0
 40
7.5
  1
VIA
 50
31.29
 41
0.733
  0
TEXT
  5
1A9
  8
14G7
 10
1712366.824
 20
5030303.711
 30
0.0
 40
7.5
  1
REPOISE
 50
22.72
 41
0.733
  0
TEXT
  5
1AA
  8
14G7
 10
1712307.289
 20
5030264.82
 30
0.0
 40
7.5
  1
VIA
 50
36.28
 41
0.733
  0
TEXT
  5
1AB
  8
14G7
 10
1712488.293
 20
5030255.977
 30
0.0
 40
7.5
  1
EX BOARIA PAPAFAVA
 41
0.733
  0
TEXT
  5
1AC
  8
14G7
 10
1712925.559
 20
5030043.742
 30
0.0
 40
7.5
  1
S. BENEDETTO
 50
355.61
 41
0.733
  0
TEXT
  5
1AD
  8
14G7
 10
1712678.32
 20
5030052.211
 30
0.0
 40
7.5
  1
VIA
 50
7.44
 41
0.733
  0
TEXT
  5
1AE
  8
14O15
 62
     5
 10
1712706.102
 20
5030203.93
 30
0.0
 40
10.0
  1
SPINOSELLA
 50
4.56
 51
15.0
  7
ROMANS
  0
TEXT
  5
1AF
  8
14O15
 62
     5
 10
1712352.254
 20
5030061.125
 30
0.0
 40
10.0
  1
FOSSO
 50
71.56
 51
15.0
  7
ROMANS
  0
TEXT
  5
1B0
  8
14G7
 10
1713106.445
 20
5030446.484
 30
0.0
 40
7.5
  1
CASA MAIOLO
 41
0.733
  0
TEXT
  5
1B1
  8
14O15
 62
     5
 10
1714047.879
 20
5029979.203
 30
0.0
 40
10.0
  1
RIALTELLO
 50
345.53
 51
15.0
  7
ROMANS
  0
TEXT
  5
1B2
  8
14O15
 62
     5
 10
1713774.25
 20
5030299.656
 30
0.0
 40
10.0
  1
SCOLO
 50
305.52
 51
15.0
  7
ROMANS
  0
TEXT
  5
1B3
  8
14G7
 10
1714317.191
 20
5030061.867
 30
0.0
 40
7.5
  1
CASA BENETTON
 41
0.733
  0
TEXT
  5
1B4
  8
14G7
 10
1714296.633
 20
5030387.695
 30
0.0
 40
7.5
  1
CASA ZARAMELLA
 41
0.733
  0
TEXT
  5
1B5
  8
14G7
 10
1715083.109
 20
5030777.297
 30
0.0
 40
7.5
  1
BOCCALARA
 50
333.79
 41
0.733
  0
TEXT
  5
1B6
  8
14G7
 10
1715009.703
 20
5030814.523
 30
0.0
 40
7.5
  1
VIA
 50
325.68
 41
0.733
  0
TEXT
  5
1B7
  8
14G7
 10
1714886.348
 20
5030352.977
 30
0.0
 40
7.5
  1
MONTECCHIA
 50
336.25
 41
0.733
  0
TEXT
  5
1B8
  8
14G7
 10
1714725.195
 20
5030427.68
 30
0.0
 40
7.5
  1
VIA
 50
334.39
 41
0.733
  0
TEXT
  5
1B9
  8
14G7
 10
1714148.922
 20
5030464.43
 30
0.0
 40
7.5
  1
BELLINATO
 50
335.22
 41
0.733
  0
TEXT
  5
1BA
  8
14G7
 10
1714027.578
 20
5030519.898
 30
0.0
 40
7.5
  1
VIA
 50
335.44
 41
0.733
  0
TEXT
  5
1BB
  8
14G7
 10
1713832.102
 20
5030694.734
 30
0.0
 40
7.5
  1
SELVE
 50
281.84
 41
0.733
  0
TEXT
  5
1BC
  8
14G7
 10
1713803.977
 20
5030830.516
 30
0.0
 40
7.5
  1
VIA
 50
281.82
 41
0.733
  0
TEXT
  5
1BD
  8
14G7
 10
1713556.438
 20
5030798.219
 30
0.0
 40
7.5
  1
CASA CARLOTTO
 41
0.733
  0
TEXT
  5
1BE
  8
11B2
 10
1715020.41
 20
5029504.813
 30
21.99
 40
8.0
  1
22.0               
 41
0.75
 51
15.0
  7
STYLE1
  0
TEXT
  5
1C0
  8
11B2
 10
1715167.219
 20
5029148.656
 30
14.0
 40
8.0
  1
14.0               
 41
0.75
 51
15.0
  7
STYLE1
  0
TEXT
  5
1C1
  8
11B2
 10
1714803.805
 20
5029402.781
 30
19.45
 40
8.0
  1
19.5               
 41
0.75
 51
15.0
  7
STYLE1
  0
TEXT
  5
1C2
  8
11B2
 10
1714662.453
 20
5029343.047
 30
14.052
 40
8.0
  1
14.1               
 41
0.75
 51
15.0
  7
STYLE1
  0
TEXT
  5
1C3
  8
11B2
 10
1714948.461
 20
5028963.164
 30
14.22
 40
8.0
  1
14.2               
 41
0.75
 51
15.0
  7
STYLE1
  0
TEXT
  5
1C4
  8
11B2
 10
1715048.063
 20
5028915.078
 30
14.28
 40
8.0
  1
14.3               
 41
0.75
 51
15.0
  7
STYLE1
  0
TEXT
  5
1C5
  8
11B2
 10
1714761.961
 20
5029230.242
 30
15.994
 40
8.0
  1
16.0               
 41
0.75
 51
15.0
  7
STYLE1
  0
TEXT
  5
1C6
  8
11B2
 10
1714807.863
 20
5029301.57
 30
16.51
 40
8.0
  1
16.5               
 41
0.75
 51
15.0
  7
STYLE1
  0
TEXT
  5
1C7
  8
11B2
 10
1714942.754
 20
5029640.867
 30
14.761
 40
8.0
  1
14.8               
 41
0.75
 51
15.0
  7
STYLE1
  0
TEXT
  5
1C8
  8
11B2
 10
1714803.051
 20
5029731.789
 30
15.96
 40
8.0
  1
16.0               
 41
0.75
 51
15.0
  7
STYLE1
  0
TEXT
  5
1C9
  8
11B2
 10
1714590.797
 20
5029734.758
 30
14.86
 40
8.0
  1
14.9               
 41
0.75
 51
15.0
  7
STYLE1
  0
TEXT
  5
1CA
  8
11B2
 10
1714897.816
 20
5029396.305
 30
19.45
 40
8.0
  1
19.5               
 41
0.75
 51
15.0
  7
STYLE1
  0
TEXT
  5
1CB
  8
11B2
 10
1714796.996
 20
5029488.648
 30
18.92
 40
8.0
  1
18.9               
 41
0.75
 51
15.0
  7
STYLE1
  0
TEXT
  5
1CC
  8
11B2
 10
1714609.426
 20
5029440.375
 30
14.62
 40
8.0
  1
14.6               
 41
0.75
 51
15.0
  7
STYLE1
  0
TEXT
  5
1CD
  8
11B2
 10
1714565.617
 20
5029546.453
 30
14.527
 40
8.0
  1
14.5               
 41
0.75
 51
15.0
  7
STYLE1
  0
TEXT
  5
1CE
  8
11B2
 10
1714724.027
 20
5029565.859
 30
14.97
 40
8.0
  1
15.0               
 41
0.75
 51
15.0
  7
STYLE1
  0
TEXT
  5
1CF
  8
11B2
 10
1714733.207
 20
5029637.93
 30
15.21
 40
8.0
  1
15.2               
 41
0.75
 51
15.0
  7
STYLE1
  0
TEXT
  5
1D0
  8
11B2
 10
1714846.695
 20
5029611.984
 30
15.18
 40
8.0
  1
15.2               
 41
0.75
 51
15.0
  7
STYLE1
  0
TEXT
  5
1D1
  8
11B2
 10
1714934.68
 20
5029486.758
 30
25.18
 40
8.0
  1
25.2               
 41
0.75
 51
15.0
  7
STYLE1
  0
TEXT
  5
1D2
  8
11B2
 10
1714819.82
 20
5028918.719
 30
19.52
 40
8.0
  1
19.5               
 41
0.75
 51
15.0
  7
STYLE1
  0
TEXT
  5
1D3
  8
11B2
 10
1714762.109
 20
5029040.336
 30
21.84
 40
8.0
  1
21.8               
 41
0.75
 51
15.0
  7
STYLE1
  0
TEXT
  5
1D4
  8
11B2
 10
1714690.742
 20
5029123.57
 30
14.63
 40
8.0
  1
14.6               
 41
0.75
 51
15.0
  7
STYLE1
  0
TEXT
  5
1D5
  8
11B2
 10
1714810.43
 20
5029108.695
 30
20.98
 40
8.0
  1
21.0               
 41
0.75
 51
15.0
  7
STYLE1
  0
TEXT
  5
1D6
  8
11B2
 10
1714885.047
 20
5029021.938
 30
18.49
 40
8.0
  1
18.5               
 41
0.75
 51
15.0
  7
STYLE1
  0
TEXT
  5
1D7
  8
11B2
 10
1715041.289
 20
5029079.391
 30
14.982
 40
8.0
  1
15.0               
 41
0.75
 51
15.0
  7
STYLE1
  0
TEXT
  5
1D8
  8
11B2
 10
1714951.516
 20
5029060.438
 30
15.354
 40
8.0
  1
15.4               
 41
0.75
 51
15.0
  7
STYLE1
  0
TEXT
  5
1D9
  8
11B2
 10
1714910.941
 20
5029220.961
 30
15.0
 40
8.0
  1
15.0               
 41
0.75
 51
15.0
  7
STYLE1
  0
TEXT
  5
1DA
  8
11B2
 10
1714957.023
 20
5029315.797
 30
14.54
 40
8.0
  1
14.5               
 41
0.75
 51
15.0
  7
STYLE1
  0
TEXT
  5
1DB
  8
11B2
 10
1715080.352
 20
5029205.93
 30
14.55
 40
8.0
  1
14.6               
 41
0.75
 51
15.0
  7
STYLE1
  0
TEXT
  5
1DC
  8
11B2
 10
1715097.23
 20
5029447.969
 30
14.61
 40
8.0
  1
14.6               
 41
0.75
 51
15.0
  7
STYLE1
  0
TEXT
  5
1DD
  8
11B2
 10
1715113.0
 20
5029334.828
 30
14.514
 40
8.0
  1
14.5               
 41
0.75
 51
15.0
  7
STYLE1
  0
TEXT
  5
1DE
  8
11B2
 10
1715218.84
 20
5029308.727
 30
14.84
 40
8.0
  1
14.8               
 41
0.75
 51
15.0
  7
STYLE1
  0
TEXT
  5
1DF
  8
11B2
 10
1715156.793
 20
5029605.227
 30
21.7
 40
8.0
  1
21.7               
 41
0.75
 51
15.0
  7
STYLE1
  0
TEXT
  5
1E0
  8
11B2
 10
1715142.586
 20
5029534.664
 30
19.57
 40
8.0
  1
19.6               
 41
0.75
 51
15.0
  7
STYLE1
  0
TEXT
  5
1E1
  8
12B2
 10
1715179.672
 20
5028205.227
 30
14.72
 40
8.0
  1
14.72              
 41
0.938
  0
TEXT
  5
1E3
  8
12B2
 10
1713167.023
 20
5030811.578
 30
16.82
 40
8.0
  1
16.82              
 41
0.938
  0
TEXT
  5
1E4
  8
12B2
 10
1713025.723
 20
5030101.344
 30
16.67
 40
8.0
  1
16.67              
 41
0.938
  0
TEXT
  5
1E5
  8
12B2
 10
1714002.27
 20
5029046.242
 30
15.33
 40
8.0
  1
15.33              
 41
0.938
  0
TEXT
  5
1E6
  8
12B2
 10
1714288.781
 20
5028241.898
 30
14.79
 40
8.0
  1
14.79              
 41
0.938
  0
TEXT
  5
1E7
  8
12A1
 10
1714122.82
 20
5028740.906
 30
21.77
 40
8.0
  1
21.8               
 41
0.938
  0
TEXT
  5
1E9
  8
12A1
 10
1714077.027
 20
5030199.539
 30
16.5
 40
8.0
  1
16.5               
 41
0.938
  0
TEXT
  5
1EA
  8
12A1
 10
1712625.91
 20
5028507.727
 30
21.64
 40
8.0
  1
21.6               
 41
0.938
  0
TEXT
  5
1EB
  8
12A1
 10
1714297.02
 20
5029937.984
 30
19.36
 40
8.0
  1
19.4               
 41
0.938
  0
TEXT
  5
1EC
  8
12A1
 10
1712891.801
 20
5030078.797
 30
23.86
 40
8.0
  1
23.9               
 41
0.938
  0
TEXT
  5
1ED
  8
12A1
 10
1713201.809
 20
5030056.328
 30
22.75
 40
8.0
  1
22.8               
 41
0.938
  0
TEXT
  5
1EE
  8
12A1
 10
1712142.758
 20
5029827.141
 30
23.42
 40
8.0
  1
23.4               
 41
0.938
  0
TEXT
  5
1EF
  8
11B2
 10
1712010.945
 20
5028425.906
 30
16.46
 40
8.0
  1
16.5               
 41
0.75
 51
15.0
  7
STYLE1
  0
TEXT
  5
1F0
  8
11B2
 10
1712024.395
 20
5028280.023
 30
16.76
 40
8.0
  1
16.8               
 41
0.75
 51
15.0
  7
STYLE1
  0
TEXT
  5
1F1
  8
11B2
 10
1712030.055
 20
5028206.875
 30
22.26
 40
8.0
  1
22.3               
 41
0.75
 51
15.0
  7
STYLE1
  0
TEXT
  5
1F2
  8
11B2
 10
1712001.559
 20
5028727.766
 30
15.58
 40
8.0
  1
15.6               
 41
0.75
 51
15.0
  7
STYLE1
  0
TEXT
  5
1F3
  8
11B2
 10
1711968.949
 20
5029806.758
 30
15.26
 40
8.0
  1
15.3               
 41
0.75
 51
15.0
  7
STYLE1
  0
TEXT
  5
1F4
  8
11B2
 10
1711975.289
 20
5029488.203
 30
15.98
 40
8.0
  1
16.0               
 41
0.75
 51
15.0
  7
STYLE1
  0
TEXT
  5
1F5
  8
11B2
 10
1712036.047
 20
5029579.406
 30
15.92
 40
8.0
  1
15.9               
 41
0.75
 51
15.0
  7
STYLE1
  0
TEXT
  5
1F6
  8
11B2
 10
1712013.098
 20
5029049.859
 30
15.8
 40
8.0
  1
15.8               
 41
0.75
 51
15.0
  7
STYLE1
  0
TEXT
  5
1F7
  8
11B2
 10
1712005.219
 20
5029200.336
 30
15.89
 40
8.0
  1
15.9               
 41
0.75
 51
15.0
  7
STYLE1
  0
TEXT
  5
1F8
  8
11B2
 10
1711986.629
 20
5029414.477
 30
15.92
 40
8.0
  1
15.9               
 41
0.75
 51
15.0
  7
STYLE1
  0
TEXT
  5
1F9
  8
11B2
 10
1712071.699
 20
5028805.992
 30
15.56
 40
8.0
  1
15.6               
 41
0.75
 51
15.0
  7
STYLE1
  0
TEXT
  5
1FA
  8
11B2
 10
1713201.992
 20
5028203.875
 30
14.104
 40
8.0
  1
14.1               
 41
0.75
 51
15.0
  7
STYLE1
  0
TEXT
  5
1FB
  8
11B2
 10
1713071.223
 20
5028139.859
 30
14.914
 40
8.0
  1
14.9               
 41
0.75
 51
15.0
  7
STYLE1
  0
TEXT
  5
1FC
  8
11B2
 10
1713060.773
 20
5028200.375
 30
14.404
 40
8.0
  1
14.4               
 41
0.75
 51
15.0
  7
STYLE1
  0
TEXT
  5
1FD
  8
11B2
 10
1713148.441
 20
5028305.32
 30
14.284
 40
8.0
  1
14.3               
 41
0.75
 51
15.0
  7
STYLE1
  0
TEXT
  5
1FE
  8
11B2
 10
1713029.855
 20
5028341.148
 30
14.824
 40
8.0
  1
14.8               
 41
0.75
 51
15.0
  7
STYLE1
  0
TEXT
  5
1FF
  8
11B2
 10
1712913.719
 20
5028307.367
 30
15.214
 40
8.0
  1
15.2               
 41
0.75
 51
15.0
  7
STYLE1
  0
TEXT
  5
200
  8
11B2
 10
1712920.688
 20
5028199.391
 30
15.154
 40
8.0
  1
15.2               
 41
0.75
 51
15.0
  7
STYLE1
  0
TEXT
  5
201
  8
11B2
 10
1712852.23
 20
5028154.227
 30
16.054
 40
8.0
  1
16.1               
 41
0.75
 51
15.0
  7
STYLE1
  0
TEXT
  5
202
  8
11B2
 10
1712718.246
 20
5028142.656
 30
14.794
 40
8.0
  1
14.8               
 41
0.75
 51
15.0
  7
STYLE1
  0
TEXT
  5
203
  8
11B2
 10
1712805.313
 20
5028242.93
 30
15.844
 40
8.0
  1
15.8               
 41
0.75
 51
15.0
  7
STYLE1
  0
TEXT
  5
204
  8
11B2
 10
1712693.531
 20
5028351.211
 30
15.754
 40
8.0
  1
15.8               
 41
0.75
 51
15.0
  7
STYLE1
  0
TEXT
  5
205
  8
11B2
 10
1712656.957
 20
5028280.68
 30
14.224
 40
8.0
  1
14.2               
 41
0.75
 51
15.0
  7
STYLE1
  0
TEXT
  5
206
  8
11B2
 10
1712405.148
 20
5028272.664
 30
14.794
 40
8.0
  1
14.8               
 41
0.75
 51
15.0
  7
STYLE1
  0
TEXT
  5
207
  8
11B2
 10
1712133.168
 20
5028152.758
 30
14.074
 40
8.0
  1
14.1               
 41
0.75
 51
15.0
  7
STYLE1
  0
TEXT
  5
208
  8
11B2
 10
1712200.285
 20
5028198.172
 30
14.434
 40
8.0
  1
14.4               
 41
0.75
 51
15.0
  7
STYLE1
  0
TEXT
  5
209
  8
11B2
 10
1712215.523
 20
5028284.813
 30
15.154
 40
8.0
  1
15.2               
 41
0.75
 51
15.0
  7
STYLE1
  0
TEXT
  5
20A
  8
11B2
 10
1712308.496
 20
5028203.008
 30
15.004
 40
8.0
  1
15.0               
 41
0.75
 51
15.0
  7
STYLE1
  0
TEXT
  5
20B
  8
11B2
 10
1712380.66
 20
5028120.539
 30
14.704
 40
8.0
  1
14.7               
 41
0.75
 51
15.0
  7
STYLE1
  0
TEXT
  5
20C
  8
11B2
 10
1712514.426
 20
5028192.555
 30
14.554
 40
8.0
  1
14.6               
 41
0.75
 51
15.0
  7
STYLE1
  0
TEXT
  5
20D
  8
11B2
 10
1712545.203
 20
5028407.484
 30
14.824
 40
8.0
  1
14.8               
 41
0.75
 51
15.0
  7
STYLE1
  0
TEXT
  5
20E
  8
11B2
 10
1712554.211
 20
5028300.273
 30
15.304
 40
8.0
  1
15.3               
 41
0.75
 51
15.0
  7
STYLE1
  0
TEXT
  5
20F
  8
11B2
 10
1712388.605
 20
5028320.555
 30
15.514
 40
8.0
  1
15.5               
 41
0.75
 51
15.0
  7
STYLE1
  0
TEXT
  5
210
  8
11B2
 10
1712268.496
 20
5028382.289
 30
15.154
 40
8.0
  1
15.2               
 41
0.75
 51
15.0
  7
STYLE1
  0
TEXT
  5
211
  8
11B2
 10
1712147.605
 20
5028339.664
 30
15.874
 40
8.0
  1
15.9               
 41
0.75
 51
15.0
  7
STYLE1
  0
TEXT
  5
212
  8
11B2
 10
1712916.77
 20
5028414.469
 30
15.394
 40
8.0
  1
15.4               
 41
0.75
 51
15.0
  7
STYLE1
  0
TEXT
  5
213
  8
11B2
 10
1713059.434
 20
5028453.641
 30
14.104
 40
8.0
  1
14.1               
 41
0.75
 51
15.0
  7
STYLE1
  0
TEXT
  5
214
  8
11B2
 10
1713196.082
 20
5028488.078
 30
14.524
 40
8.0
  1
14.5               
 41
0.75
 51
15.0
  7
STYLE1
  0
TEXT
  5
215
  8
11B2
 10
1713142.43
 20
5028633.258
 30
14.554
 40
8.0
  1
14.6               
 41
0.75
 51
15.0
  7
STYLE1
  0
TEXT
  5
216
  8
11B2
 10
1713028.566
 20
5028631.906
 30
14.074
 40
8.0
  1
14.1               
 41
0.75
 51
15.0
  7
STYLE1
  0
TEXT
  5
217
  8
11B2
 10
1712870.543
 20
5028584.25
 30
15.124
 40
8.0
  1
15.1               
 41
0.75
 51
15.0
  7
STYLE1
  0
TEXT
  5
218
  8
11B2
 10
1712776.504
 20
5028508.063
 30
15.394
 40
8.0
  1
15.4               
 41
0.75
 51
15.0
  7
STYLE1
  0
TEXT
  5
219
  8
11B2
 10
1712644.906
 20
5028561.789
 30
15.304
 40
8.0
  1
15.3               
 41
0.75
 51
15.0
  7
STYLE1
  0
TEXT
  5
21A
  8
11B2
 10
1712622.266
 20
5028444.672
 30
15.424
 40
8.0
  1
15.4               
 41
0.75
 51
15.0
  7
STYLE1
  0
TEXT
  5
21B
  8
11B2
 10
1712536.934
 20
5028536.539
 30
15.544
 40
8.0
  1
15.5               
 41
0.75
 51
15.0
  7
STYLE1
  0
TEXT
  5
21C
  8
11B2
 10
1712574.691
 20
5028671.656
 30
14.794
 40
8.0
  1
14.8               
 41
0.75
 51
15.0
  7
STYLE1
  0
TEXT
  5
21D
  8
11B2
 10
1712969.727
 20
5028701.18
 30
14.764
 40
8.0
  1
14.8               
 41
0.75
 51
15.0
  7
STYLE1
  0
TEXT
  5
21E
  8
11B2
 10
1712867.816
 20
5028728.297
 30
15.694
 40
8.0
  1
15.7               
 41
0.75
 51
15.0
  7
STYLE1
  0
TEXT
  5
21F
  8
11B2
 10
1712708.469
 20
5028727.43
 30
15.994
 40
8.0
  1
16.0               
 41
0.75
 51
15.0
  7
STYLE1
  0
TEXT
  5
220
  8
11B2
 10
1712564.246
 20
5028759.602
 30
15.904
 40
8.0
  1
15.9               
 41
0.75
 51
15.0
  7
STYLE1
  0
TEXT
  5
221
  8
11B2
 10
1712541.914
 20
5029043.492
 30
15.874
 40
8.0
  1
15.9               
 41
0.75
 51
15.0
  7
STYLE1
  0
TEXT
  5
222
  8
11B2
 10
1713218.184
 20
5028712.93
 30
14.254
 40
8.0
  1
14.3               
 41
0.75
 51
15.0
  7
STYLE1
  0
TEXT
  5
223
  8
11B2
 10
1713179.727
 20
5028929.5
 30
14.794
 40
8.0
  1
14.8               
 41
0.75
 51
15.0
  7
STYLE1
  0
TEXT
  5
224
  8
11B2
 10
1713151.262
 20
5028836.992
 30
15.094
 40
8.0
  1
15.1               
 41
0.75
 51
15.0
  7
STYLE1
  0
TEXT
  5
225
  8
11B2
 10
1713064.203
 20
5028757.773
 30
14.614
 40
8.0
  1
14.6               
 41
0.75
 51
15.0
  7
STYLE1
  0
TEXT
  5
226
  8
11B2
 10
1712964.762
 20
5028843.906
 30
15.004
 40
8.0
  1
15.0               
 41
0.75
 51
15.0
  7
STYLE1
  0
TEXT
  5
227
  8
11B2
 10
1712846.48
 20
5028810.586
 30
15.364
 40
8.0
  1
15.4               
 41
0.75
 51
15.0
  7
STYLE1
  0
TEXT
  5
228
  8
11B2
 10
1712878.641
 20
5028945.336
 30
15.034
 40
8.0
  1
15.0               
 41
0.75
 51
15.0
  7
STYLE1
  0
TEXT
  5
229
  8
11B2
 10
1712708.938
 20
5028911.867
 30
15.634
 40
8.0
  1
15.6               
 41
0.75
 51
15.0
  7
STYLE1
  0
TEXT
  5
22A
  8
11B2
 10
1712587.129
 20
5028856.852
 30
15.904
 40
8.0
  1
15.9               
 41
0.75
 51
15.0
  7
STYLE1
  0
TEXT
  5
22B
  8
11B2
 10
1712419.863
 20
5028834.344
 30
14.974
 40
8.0
  1
15.0               
 41
0.75
 51
15.0
  7
STYLE1
  0
TEXT
  5
22C
  8
11B2
 10
1712419.055
 20
5028708.18
 30
14.734
 40
8.0
  1
14.7               
 41
0.75
 51
15.0
  7
STYLE1
  0
TEXT
  5
22D
  8
11B2
 10
1712463.801
 20
5028569.016
 30
14.494
 40
8.0
  1
14.5               
 41
0.75
 51
15.0
  7
STYLE1
  0
TEXT
  5
22E
  8
11B2
 10
1712446.281
 20
5028459.094
 30
15.334
 40
8.0
  1
15.3               
 41
0.75
 51
15.0
  7
STYLE1
  0
TEXT
  5
22F
  8
11B2
 10
1712378.035
 20
5028557.695
 30
14.914
 40
8.0
  1
14.9               
 41
0.75
 51
15.0
  7
STYLE1
  0
TEXT
  5
230
  8
11B2
 10
1712330.672
 20
5028702.953
 30
15.274
 40
8.0
  1
15.3               
 41
0.75
 51
15.0
  7
STYLE1
  0
TEXT
  5
231
  8
11B2
 10
1712223.219
 20
5028581.25
 30
15.574
 40
8.0
  1
15.6               
 41
0.75
 51
15.0
  7
STYLE1
  0
TEXT
  5
232
  8
11B2
 10
1712185.34
 20
5028461.086
 30
15.844
 40
8.0
  1
15.8               
 41
0.75
 51
15.0
  7
STYLE1
  0
TEXT
  5
233
  8
11B2
 10
1712046.645
 20
5028557.391
 30
15.994
 40
8.0
  1
16.0               
 41
0.75
 51
15.0
  7
STYLE1
  0
TEXT
  5
234
  8
11B2
 10
1712113.883
 20
5028685.102
 30
15.574
 40
8.0
  1
15.6               
 41
0.75
 51
15.0
  7
STYLE1
  0
TEXT
  5
235
  8
11B2
 10
1712163.953
 20
5028766.953
 30
15.454
 40
8.0
  1
15.5               
 41
0.75
 51
15.0
  7
STYLE1
  0
TEXT
  5
236
  8
11B2
 10
1712275.168
 20
5028807.781
 30
15.214
 40
8.0
  1
15.2               
 41
0.75
 51
15.0
  7
STYLE1
  0
TEXT
  5
237
  8
11B2
 10
1712279.09
 20
5028982.367
 30
16.084
 40
8.0
  1
16.1               
 41
0.75
 51
15.0
  7
STYLE1
  0
TEXT
  5
238
  8
11B2
 10
1712165.457
 20
5028941.445
 30
15.964
 40
8.0
  1
16.0               
 41
0.75
 51
15.0
  7
STYLE1
  0
TEXT
  5
239
  8
11B2
 10
1712137.008
 20
5028973.609
 30
15.844
 40
8.0
  1
15.8               
 41
0.75
 51
15.0
  7
STYLE1
  0
TEXT
  5
23A
  8
11B2
 10
1713083.012
 20
5028980.68
 30
15.214
 40
8.0
  1
15.2               
 41
0.75
 51
15.0
  7
STYLE1
  0
TEXT
  5
23B
  8
11B2
 10
1713190.52
 20
5029091.5
 30
15.184
 40
8.0
  1
15.2               
 41
0.75
 51
15.0
  7
STYLE1
  0
TEXT
  5
23C
  8
11B2
 10
1713074.172
 20
5029146.086
 30
15.454
 40
8.0
  1
15.5               
 41
0.75
 51
15.0
  7
STYLE1
  0
TEXT
  5
23D
  8
11B2
 10
1713081.0
 20
5029359.234
 30
15.784
 40
8.0
  1
15.8               
 41
0.75
 51
15.0
  7
STYLE1
  0
TEXT
  5
23E
  8
11B2
 10
1713239.246
 20
5029361.766
 30
15.844
 40
8.0
  1
15.8               
 41
0.75
 51
15.0
  7
STYLE1
  0
TEXT
  5
23F
  8
11B2
 10
1713265.34
 20
5029260.75
 30
15.844
 40
8.0
  1
15.8               
 41
0.75
 51
15.0
  7
STYLE1
  0
TEXT
  5
240
  8
11B2
 10
1713162.648
 20
5029254.438
 30
15.724
 40
8.0
  1
15.7               
 41
0.75
 51
15.0
  7
STYLE1
  0
TEXT
  5
241
  8
11B2
 10
1713090.684
 20
5029435.367
 30
16.384
 40
8.0
  1
16.4               
 41
0.75
 51
15.0
  7
STYLE1
  0
TEXT
  5
242
  8
11B2
 10
1713181.59
 20
5029474.125
 30
15.814
 40
8.0
  1
15.8               
 41
0.75
 51
15.0
  7
STYLE1
  0
TEXT
  5
243
  8
11B2
 10
1712752.695
 20
5029154.703
 30
14.974
 40
8.0
  1
15.0               
 41
0.75
 51
15.0
  7
STYLE1
  0
TEXT
  5
244
  8
11B2
 10
1712900.352
 20
5029056.016
 30
15.274
 40
8.0
  1
15.3               
 41
0.75
 51
15.0
  7
STYLE1
  0
TEXT
  5
245
  8
11B2
 10
1712884.012
 20
5029128.672
 30
15.484
 40
8.0
  1
15.5               
 41
0.75
 51
15.0
  7
STYLE1
  0
TEXT
  5
246
  8
11B2
 10
1712704.371
 20
5029032.555
 30
15.154
 40
8.0
  1
15.2               
 41
0.75
 51
15.0
  7
STYLE1
  0
TEXT
  5
247
  8
11B2
 10
1712598.313
 20
5029106.625
 30
15.214
 40
8.0
  1
15.2               
 41
0.75
 51
15.0
  7
STYLE1
  0
TEXT
  5
248
  8
11B2
 10
1712768.875
 20
5029392.852
 30
15.274
 40
8.0
  1
15.3               
 41
0.75
 51
15.0
  7
STYLE1
  0
TEXT
  5
249
  8
11B2
 10
1712871.289
 20
5029369.016
 30
15.544
 40
8.0
  1
15.5               
 41
0.75
 51
15.0
  7
STYLE1
  0
TEXT
  5
24A
  8
11B2
 10
1712974.438
 20
5029344.977
 30
15.424
 40
8.0
  1
15.4               
 41
0.75
 51
15.0
  7
STYLE1
  0
TEXT
  5
24B
  8
11B2
 10
1713048.93
 20
5029247.758
 30
15.304
 40
8.0
  1
15.3               
 41
0.75
 51
15.0
  7
STYLE1
  0
TEXT
  5
24C
  8
11B2
 10
1712961.391
 20
5029267.117
 30
15.304
 40
8.0
  1
15.3               
 41
0.75
 51
15.0
  7
STYLE1
  0
TEXT
  5
24D
  8
11B2
 10
1712803.949
 20
5029240.234
 30
15.124
 40
8.0
  1
15.1               
 41
0.75
 51
15.0
  7
STYLE1
  0
TEXT
  5
24E
  8
11B2
 10
1712725.25
 20
5029306.383
 30
15.244
 40
8.0
  1
15.2               
 41
0.75
 51
15.0
  7
STYLE1
  0
TEXT
  5
24F
  8
11B2
 10
1712680.59
 20
5029393.25
 30
15.214
 40
8.0
  1
15.2               
 41
0.75
 51
15.0
  7
STYLE1
  0
TEXT
  5
250
  8
11B2
 10
1712532.766
 20
5029342.344
 30
14.794
 40
8.0
  1
14.8               
 41
0.75
 51
15.0
  7
STYLE1
  0
TEXT
  5
251
  8
11B2
 10
1712627.043
 20
5029253.961
 30
15.214
 40
8.0
  1
15.2               
 41
0.75
 51
15.0
  7
STYLE1
  0
TEXT
  5
252
  8
11B2
 10
1712501.75
 20
5029209.508
 30
15.814
 40
8.0
  1
15.8               
 41
0.75
 51
15.0
  7
STYLE1
  0
TEXT
  5
253
  8
11B2
 10
1712417.574
 20
5029193.094
 30
15.904
 40
8.0
  1
15.9               
 41
0.75
 51
15.0
  7
STYLE1
  0
TEXT
  5
254
  8
11B2
 10
1712460.266
 20
5028984.57
 30
15.814
 40
8.0
  1
15.8               
 41
0.75
 51
15.0
  7
STYLE1
  0
TEXT
  5
255
  8
11B2
 10
1712394.945
 20
5029058.641
 30
15.964
 40
8.0
  1
16.0               
 41
0.75
 51
15.0
  7
STYLE1
  0
TEXT
  5
256
  8
11B2
 10
1712284.254
 20
5029052.328
 30
16.504
 40
8.0
  1
16.5               
 41
0.75
 51
15.0
  7
STYLE1
  0
TEXT
  5
257
  8
11B2
 10
1712141.043
 20
5029063.75
 30
15.994
 40
8.0
  1
16.0               
 41
0.75
 51
15.0
  7
STYLE1
  0
TEXT
  5
258
  8
11B2
 10
1712362.535
 20
5029159.227
 30
15.844
 40
8.0
  1
15.8               
 41
0.75
 51
15.0
  7
STYLE1
  0
TEXT
  5
259
  8
11B2
 10
1712190.004
 20
5029174.414
 30
16.114
 40
8.0
  1
16.1               
 41
0.75
 51
15.0
  7
STYLE1
  0
TEXT
  5
25A
  8
11B2
 10
1712035.246
 20
5029309.359
 30
15.634
 40
8.0
  1
15.6               
 41
0.75
 51
15.0
  7
STYLE1
  0
TEXT
  5
25B
  8
11B2
 10
1712137.715
 20
5029430.273
 30
15.634
 40
8.0
  1
15.6               
 41
0.75
 51
15.0
  7
STYLE1
  0
TEXT
  5
25C
  8
11B2
 10
1712155.91
 20
5029341.086
 30
16.174
 40
8.0
  1
16.2               
 41
0.75
 51
15.0
  7
STYLE1
  0
TEXT
  5
25D
  8
11B2
 10
1712290.473
 20
5029415.313
 30
16.354
 40
8.0
  1
16.4               
 41
0.75
 51
15.0
  7
STYLE1
  0
TEXT
  5
25E
  8
11B2
 10
1712254.395
 20
5029325.086
 30
15.844
 40
8.0
  1
15.8               
 41
0.75
 51
15.0
  7
STYLE1
  0
TEXT
  5
25F
  8
11B2
 10
1712424.91
 20
5029361.063
 30
16.384
 40
8.0
  1
16.4               
 41
0.75
 51
15.0
  7
STYLE1
  0
TEXT
  5
260
  8
11B2
 10
1712448.809
 20
5029474.672
 30
15.574
 40
8.0
  1
15.6               
 41
0.75
 51
15.0
  7
STYLE1
  0
TEXT
  5
261
  8
11B2
 10
1712717.047
 20
5029503.836
 30
15.334
 40
8.0
  1
15.3               
 41
0.75
 51
15.0
  7
STYLE1
  0
TEXT
  5
262
  8
11B2
 10
1713068.176
 20
5029521.922
 30
15.814
 40
8.0
  1
15.8               
 41
0.75
 51
15.0
  7
STYLE1
  0
TEXT
  5
263
  8
11B2
 10
1713283.426
 20
5029554.992
 30
15.394
 40
8.0
  1
15.4               
 41
0.75
 51
15.0
  7
STYLE1
  0
TEXT
  5
264
  8
11B2
 10
1713163.102
 20
5029612.508
 30
15.784
 40
8.0
  1
15.8               
 41
0.75
 51
15.0
  7
STYLE1
  0
TEXT
  5
265
  8
11B2
 10
1713250.594
 20
5029719.438
 30
16.444
 40
8.0
  1
16.4               
 41
0.75
 51
15.0
  7
STYLE1
  0
TEXT
  5
266
  8
11B2
 10
1713263.859
 20
5029866.438
 30
16.744
 40
8.0
  1
16.7               
 41
0.75
 51
15.0
  7
STYLE1
  0
TEXT
  5
267
  8
11B2
 10
1713317.324
 20
5029985.125
 30
15.994
 40
8.0
  1
16.0               
 41
0.75
 51
15.0
  7
STYLE1
  0
TEXT
  5
268
  8
11B2
 10
1713175.289
 20
5030019.766
 30
16.234
 40
8.0
  1
16.2               
 41
0.75
 51
15.0
  7
STYLE1
  0
TEXT
  5
269
  8
11B2
 10
1713089.172
 20
5030030.328
 30
16.594
 40
8.0
  1
16.6               
 41
0.75
 51
15.0
  7
STYLE1
  0
TEXT
  5
26A
  8
11B2
 10
1712968.004
 20
5030068.133
 30
16.714
 40
8.0
  1
16.7               
 41
0.75
 51
15.0
  7
STYLE1
  0
TEXT
  5
26B
  8
11B2
 10
1713048.809
 20
5029922.336
 30
16.624
 40
8.0
  1
16.6               
 41
0.75
 51
15.0
  7
STYLE1
  0
TEXT
  5
26C
  8
11B2
 10
1713195.031
 20
5029913.836
 30
16.504
 40
8.0
  1
16.5               
 41
0.75
 51
15.0
  7
STYLE1
  0
TEXT
  5
26D
  8
11B2
 10
1713144.398
 20
5029822.695
 30
16.504
 40
8.0
  1
16.5               
 41
0.75
 51
15.0
  7
STYLE1
  0
TEXT
  5
26E
  8
11B2
 10
1713030.148
 20
5029759.781
 30
16.444
 40
8.0
  1
16.4               
 41
0.75
 51
15.0
  7
STYLE1
  0
TEXT
  5
26F
  8
11B2
 10
1713081.996
 20
5029647.984
 30
16.084
 40
8.0
  1
16.1               
 41
0.75
 51
15.0
  7
STYLE1
  0
TEXT
  5
270
  8
11B2
 10
1713026.91
 20
5029624.898
 30
15.994
 40
8.0
  1
16.0               
 41
0.75
 51
15.0
  7
STYLE1
  0
TEXT
  5
271
  8
11B2
 10
1712881.566
 20
5029510.336
 30
15.664
 40
8.0
  1
15.7               
 41
0.75
 51
15.0
  7
STYLE1
  0
TEXT
  5
272
  8
11B2
 10
1712795.125
 20
5029599.594
 30
15.844
 40
8.0
  1
15.8               
 41
0.75
 51
15.0
  7
STYLE1
  0
TEXT
  5
273
  8
11B2
 10
1712586.93
 20
5029532.188
 30
15.784
 40
8.0
  1
15.8               
 41
0.75
 51
15.0
  7
STYLE1
  0
TEXT
  5
274
  8
11B2
 10
1712666.059
 20
5029652.82
 30
16.294
 40
8.0
  1
16.3               
 41
0.75
 51
15.0
  7
STYLE1
  0
TEXT
  5
275
  8
11B2
 10
1712575.734
 20
5029735.047
 30
16.474
 40
8.0
  1
16.5               
 41
0.75
 51
15.0
  7
STYLE1
  0
TEXT
  5
276
  8
11B2
 10
1712617.145
 20
5029820.883
 30
16.414
 40
8.0
  1
16.4               
 41
0.75
 51
15.0
  7
STYLE1
  0
TEXT
  5
277
  8
11B2
 10
1712738.969
 20
5029847.813
 30
16.774
 40
8.0
  1
16.8               
 41
0.75
 51
15.0
  7
STYLE1
  0
TEXT
  5
278
  8
11B2
 10
1712647.832
 20
5029769.477
 30
16.714
 40
8.0
  1
16.7               
 41
0.75
 51
15.0
  7
STYLE1
  0
TEXT
  5
279
  8
11B2
 10
1712719.934
 20
5029701.023
 30
16.744
 40
8.0
  1
16.7               
 41
0.75
 51
15.0
  7
STYLE1
  0
TEXT
  5
27A
  8
11B2
 10
1712864.793
 20
5029720.297
 30
16.894
 40
8.0
  1
16.9               
 41
0.75
 51
15.0
  7
STYLE1
  0
TEXT
  5
27B
  8
11B2
 10
1712850.883
 20
5029819.266
 30
16.804
 40
8.0
  1
16.8               
 41
0.75
 51
15.0
  7
STYLE1
  0
TEXT
  5
27C
  8
11B2
 10
1712901.918
 20
5029945.641
 30
16.774
 40
8.0
  1
16.8               
 41
0.75
 51
15.0
  7
STYLE1
  0
TEXT
  5
27D
  8
11B2
 10
1712802.969
 20
5029969.328
 30
16.744
 40
8.0
  1
16.7               
 41
0.75
 51
15.0
  7
STYLE1
  0
TEXT
  5
27E
  8
11B2
 10
1712627.676
 20
5029965.086
 30
16.384
 40
8.0
  1
16.4               
 41
0.75
 51
15.0
  7
STYLE1
  0
TEXT
  5
27F
  8
11B2
 10
1712057.109
 20
5029763.297
 30
15.604
 40
8.0
  1
15.6               
 41
0.75
 51
15.0
  7
STYLE1
  0
TEXT
  5
280
  8
11B2
 10
1712113.414
 20
5029659.203
 30
15.844
 40
8.0
  1
15.8               
 41
0.75
 51
15.0
  7
STYLE1
  0
TEXT
  5
281
  8
11B2
 10
1712190.777
 20
5029535.188
 30
14.794
 40
8.0
  1
14.8               
 41
0.75
 51
15.0
  7
STYLE1
  0
TEXT
  5
282
  8
11B2
 10
1712403.973
 20
5029626.086
 30
16.114
 40
8.0
  1
16.1               
 41
0.75
 51
15.0
  7
STYLE1
  0
TEXT
  5
283
  8
11B2
 10
1712319.906
 20
5029553.797
 30
16.804
 40
8.0
  1
16.8               
 41
0.75
 51
15.0
  7
STYLE1
  0
TEXT
  5
284
  8
11B2
 10
1712260.273
 20
5029674.289
 30
16.894
 40
8.0
  1
16.9               
 41
0.75
 51
15.0
  7
STYLE1
  0
TEXT
  5
285
  8
11B2
 10
1712477.34
 20
5029725.422
 30
16.354
 40
8.0
  1
16.4               
 41
0.75
 51
15.0
  7
STYLE1
  0
TEXT
  5
286
  8
11B2
 10
1712529.652
 20
5029907.164
 30
16.384
 40
8.0
  1
16.4               
 41
0.75
 51
15.0
  7
STYLE1
  0
TEXT
  5
287
  8
11B2
 10
1712410.688
 20
5029844.023
 30
16.174
 40
8.0
  1
16.2               
 41
0.75
 51
15.0
  7
STYLE1
  0
TEXT
  5
288
  8
11B2
 10
1712305.375
 20
5029904.375
 30
16.414
 40
8.0
  1
16.4               
 41
0.75
 51
15.0
  7
STYLE1
  0
TEXT
  5
289
  8
11B2
 10
1712314.301
 20
5029762.242
 30
16.174
 40
8.0
  1
16.2               
 41
0.75
 51
15.0
  7
STYLE1
  0
TEXT
  5
28A
  8
11B2
 10
1712209.645
 20
5029807.953
 30
16.264
 40
8.0
  1
16.3               
 41
0.75
 51
15.0
  7
STYLE1
  0
TEXT
  5
28B
  8
11B2
 10
1712176.52
 20
5029863.625
 30
16.444
 40
8.0
  1
16.4               
 41
0.75
 51
15.0
  7
STYLE1
  0
TEXT
  5
28C
  8
11B2
 10
1712016.746
 20
5029923.414
 30
16.024
 40
8.0
  1
16.0               
 41
0.75
 51
15.0
  7
STYLE1
  0
TEXT
  5
28D
  8
11B2
 10
1713293.328
 20
5028557.023
 30
14.389
 40
8.0
  1
14.4               
 41
0.75
 51
15.0
  7
STYLE1
  0
TEXT
  5
28E
  8
11B2
 10
1713827.0
 20
5028189.32
 30
14.214
 40
8.0
  1
14.2               
 41
0.75
 51
15.0
  7
STYLE1
  0
TEXT
  5
28F
  8
11B2
 10
1713967.461
 20
5028441.977
 30
14.817
 40
8.0
  1
14.8               
 41
0.75
 51
15.0
  7
STYLE1
  0
TEXT
  5
290
  8
11B2
 10
1713544.672
 20
5028442.805
 30
14.968
 40
8.0
  1
15.0               
 41
0.75
 51
15.0
  7
STYLE1
  0
TEXT
  5
291
  8
11B2
 10
1713565.633
 20
5028262.914
 30
13.946
 40
8.0
  1
13.9               
 41
0.75
 51
15.0
  7
STYLE1
  0
TEXT
  5
292
  8
11B2
 10
1713742.48
 20
5028336.656
 30
14.197
 40
8.0
  1
14.2               
 41
0.75
 51
15.0
  7
STYLE1
  0
TEXT
  5
293
  8
11B2
 10
1713971.504
 20
5028255.078
 30
14.883
 40
8.0
  1
14.9               
 41
0.75
 51
15.0
  7
STYLE1
  0
TEXT
  5
294
  8
11B2
 10
1713931.883
 20
5028197.602
 30
14.33
 40
8.0
  1
14.3               
 41
0.75
 51
15.0
  7
STYLE1
  0
TEXT
  5
295
  8
11B2
 10
1713924.484
 20
5028278.148
 30
15.402
 40
8.0
  1
15.4               
 41
0.75
 51
15.0
  7
STYLE1
  0
TEXT
  5
296
  8
11B2
 10
1713659.238
 20
5028205.875
 30
15.067
 40
8.0
  1
15.1               
 41
0.75
 51
15.0
  7
STYLE1
  0
TEXT
  5
297
  8
11B2
 10
1713547.719
 20
5028549.469
 30
14.04
 40
8.0
  1
14.0               
 41
0.75
 51
15.0
  7
STYLE1
  0
TEXT
  5
298
  8
11B2
 10
1713970.992
 20
5028631.922
 30
15.011
 40
8.0
  1
15.0               
 41
0.75
 51
15.0
  7
STYLE1
  0
TEXT
  5
299
  8
11B2
 10
1713804.645
 20
5028474.5
 30
14.212
 40
8.0
  1
14.2               
 41
0.75
 51
15.0
  7
STYLE1
  0
TEXT
  5
29A
  8
11B2
 10
1713692.719
 20
5028515.555
 30
14.177
 40
8.0
  1
14.2               
 41
0.75
 51
15.0
  7
STYLE1
  0
TEXT
  5
29B
  8
11B2
 10
1713661.375
 20
5028371.445
 30
14.513
 40
8.0
  1
14.5               
 41
0.75
 51
15.0
  7
STYLE1
  0
TEXT
  5
29C
  8
11B2
 10
1713361.938
 20
5028201.57
 30
14.697
 40
8.0
  1
14.7               
 41
0.75
 51
15.0
  7
STYLE1
  0
TEXT
  5
29D
  8
11B2
 10
1713303.164
 20
5028265.57
 30
14.546
 40
8.0
  1
14.5               
 41
0.75
 51
15.0
  7
STYLE1
  0
TEXT
  5
29E
  8
11B2
 10
1713290.121
 20
5028390.992
 30
14.546
 40
8.0
  1
14.5               
 41
0.75
 51
15.0
  7
STYLE1
  0
TEXT
  5
29F
  8
11B2
 10
1713324.953
 20
5028482.422
 30
14.429
 40
8.0
  1
14.4               
 41
0.75
 51
15.0
  7
STYLE1
  0
TEXT
  5
2A0
  8
11B2
 10
1713820.867
 20
5028906.82
 30
15.636
 40
8.0
  1
15.6               
 41
0.75
 51
15.0
  7
STYLE1
  0
TEXT
  5
2A1
  8
11B2
 10
1713744.727
 20
5028803.633
 30
15.468
 40
8.0
  1
15.5               
 41
0.75
 51
15.0
  7
STYLE1
  0
TEXT
  5
2A2
  8
11B2
 10
1713567.504
 20
5028641.758
 30
14.06
 40
8.0
  1
14.1               
 41
0.75
 51
15.0
  7
STYLE1
  0
TEXT
  5
2A3
  8
11B2
 10
1713750.141
 20
5028654.125
 30
13.9
 40
8.0
  1
13.9               
 41
0.75
 51
15.0
  7
STYLE1
  0
TEXT
  5
2A4
  8
11B2
 10
1713978.395
 20
5028752.516
 30
15.084
 40
8.0
  1
15.1               
 41
0.75
 51
15.0
  7
STYLE1
  0
TEXT
  5
2A5
  8
11B2
 10
1714035.66
 20
5029011.641
 30
14.868
 40
8.0
  1
14.9               
 41
0.75
 51
15.0
  7
STYLE1
  0
TEXT
  5
2A6
  8
11B2
 10
1713969.121
 20
5028970.789
 30
15.371
 40
8.0
  1
15.4               
 41
0.75
 51
15.0
  7
STYLE1
  0
TEXT
  5
2A7
  8
11B2
 10
1713937.781
 20
5028866.211
 30
14.946
 40
8.0
  1
14.9               
 41
0.75
 51
15.0
  7
STYLE1
  0
TEXT
  5
2A8
  8
11B2
 10
1713852.887
 20
5028965.164
 30
14.794
 40
8.0
  1
14.8               
 41
0.75
 51
15.0
  7
STYLE1
  0
TEXT
  5
2A9
  8
11B2
 10
1713701.676
 20
5028915.359
 30
15.309
 40
8.0
  1
15.3               
 41
0.75
 51
15.0
  7
STYLE1
  0
TEXT
  5
2AA
  8
11B2
 10
1713332.395
 20
5029145.719
 30
15.312
 40
8.0
  1
15.3               
 41
0.75
 51
15.0
  7
STYLE1
  0
TEXT
  5
2AB
  8
11B2
 10
1713474.406
 20
5029169.297
 30
15.688
 40
8.0
  1
15.7               
 41
0.75
 51
15.0
  7
STYLE1
  0
TEXT
  5
2AC
  8
11B2
 10
1713278.992
 20
5028866.523
 30
15.314
 40
8.0
  1
15.3               
 41
0.75
 51
15.0
  7
STYLE1
  0
TEXT
  5
2AD
  8
11B2
 10
1713300.422
 20
5028772.5
 30
14.51
 40
8.0
  1
14.5               
 41
0.75
 51
15.0
  7
STYLE1
  0
TEXT
  5
2AE
  8
11B2
 10
1713453.672
 20
5028650.594
 30
14.235
 40
8.0
  1
14.2               
 41
0.75
 51
15.0
  7
STYLE1
  0
TEXT
  5
2AF
  8
11B2
 10
1713413.055
 20
5028819.359
 30
14.69
 40
8.0
  1
14.7               
 41
0.75
 51
15.0
  7
STYLE1
  0
TEXT
  5
2B0
  8
11B2
 10
1713461.445
 20
5028932.859
 30
15.0
 40
8.0
  1
15.0               
 41
0.75
 51
15.0
  7
STYLE1
  0
TEXT
  5
2B1
  8
11B2
 10
1713381.215
 20
5029012.719
 30
14.57
 40
8.0
  1
14.6               
 41
0.75
 51
15.0
  7
STYLE1
  0
TEXT
  5
2B2
  8
11B2
 10
1713426.672
 20
5029089.742
 30
14.854
 40
8.0
  1
14.9               
 41
0.75
 51
15.0
  7
STYLE1
  0
TEXT
  5
2B3
  8
11B2
 10
1713607.941
 20
5029040.758
 30
14.777
 40
8.0
  1
14.8               
 41
0.75
 51
15.0
  7
STYLE1
  0
TEXT
  5
2B4
  8
11B2
 10
1713812.098
 20
5029060.805
 30
15.211
 40
8.0
  1
15.2               
 41
0.75
 51
15.0
  7
STYLE1
  0
TEXT
  5
2B5
  8
11B2
 10
1713846.609
 20
5029144.555
 30
14.934
 40
8.0
  1
14.9               
 41
0.75
 51
15.0
  7
STYLE1
  0
TEXT
  5
2B6
  8
11B2
 10
1713878.289
 20
5029298.0
 30
15.571
 40
8.0
  1
15.6               
 41
0.75
 51
15.0
  7
STYLE1
  0
TEXT
  5
2B7
  8
11B2
 10
1713749.07
 20
5029524.969
 30
14.968
 40
8.0
  1
15.0               
 41
0.75
 51
15.0
  7
STYLE1
  0
TEXT
  5
2B8
  8
11B2
 10
1713756.363
 20
5029418.445
 30
15.426
 40
8.0
  1
15.4               
 41
0.75
 51
15.0
  7
STYLE1
  0
TEXT
  5
2B9
  8
11B2
 10
1713540.391
 20
5029387.016
 30
15.578
 40
8.0
  1
15.6               
 41
0.75
 51
15.0
  7
STYLE1
  0
TEXT
  5
2BA
  8
11B2
 10
1713555.121
 20
5029248.547
 30
15.444
 40
8.0
  1
15.4               
 41
0.75
 51
15.0
  7
STYLE1
  0
TEXT
  5
2BB
  8
11B2
 10
1713337.313
 20
5029202.672
 30
15.713
 40
8.0
  1
15.7               
 41
0.75
 51
15.0
  7
STYLE1
  0
TEXT
  5
2BC
  8
11B2
 10
1713407.57
 20
5029399.695
 30
15.042
 40
8.0
  1
15.0               
 41
0.75
 51
15.0
  7
STYLE1
  0
TEXT
  5
2BD
  8
11B2
 10
1713461.863
 20
5029244.813
 30
15.728
 40
8.0
  1
15.7               
 41
0.75
 51
15.0
  7
STYLE1
  0
TEXT
  5
2BE
  8
11B2
 10
1713679.066
 20
5029116.094
 30
15.761
 40
8.0
  1
15.8               
 41
0.75
 51
15.0
  7
STYLE1
  0
TEXT
  5
2BF
  8
11B2
 10
1714000.688
 20
5029113.883
 30
15.544
 40
8.0
  1
15.5               
 41
0.75
 51
15.0
  7
STYLE1
  0
TEXT
  5
2C0
  8
11B2
 10
1714016.156
 20
5029318.57
 30
15.778
 40
8.0
  1
15.8               
 41
0.75
 51
15.0
  7
STYLE1
  0
TEXT
  5
2C1
  8
11B2
 10
1713959.34
 20
5029219.664
 30
16.013
 40
8.0
  1
16.0               
 41
0.75
 51
15.0
  7
STYLE1
  0
TEXT
  5
2C2
  8
11B2
 10
1713815.156
 20
5029229.398
 30
15.829
 40
8.0
  1
15.8               
 41
0.75
 51
15.0
  7
STYLE1
  0
TEXT
  5
2C3
  8
11B2
 10
1713698.996
 20
5029224.352
 30
15.745
 40
8.0
  1
15.7               
 41
0.75
 51
15.0
  7
STYLE1
  0
TEXT
  5
2C4
  8
11B2
 10
1713688.535
 20
5029269.172
 30
16.03
 40
8.0
  1
16.0               
 41
0.75
 51
15.0
  7
STYLE1
  0
TEXT
  5
2C5
  8
11B2
 10
1713692.867
 20
5029389.492
 30
16.247
 40
8.0
  1
16.2               
 41
0.75
 51
15.0
  7
STYLE1
  0
TEXT
  5
2C6
  8
11B2
 10
1713797.676
 20
5029588.156
 30
16.046
 40
8.0
  1
16.0               
 41
0.75
 51
15.0
  7
STYLE1
  0
TEXT
  5
2C7
  8
11B2
 10
1713474.148
 20
5029945.617
 30
16.361
 40
8.0
  1
16.4               
 41
0.75
 51
15.0
  7
STYLE1
  0
TEXT
  5
2C8
  8
11B2
 10
1713711.68
 20
5029661.734
 30
16.025
 40
8.0
  1
16.0               
 41
0.75
 51
15.0
  7
STYLE1
  0
TEXT
  5
2C9
  8
11B2
 10
1713927.527
 20
5029505.602
 30
15.573
 40
8.0
  1
15.6               
 41
0.75
 51
15.0
  7
STYLE1
  0
TEXT
  5
2CA
  8
11B2
 10
1713662.391
 20
5029566.695
 30
16.183
 40
8.0
  1
16.2               
 41
0.75
 51
15.0
  7
STYLE1
  0
TEXT
  5
2CB
  8
11B2
 10
1713529.957
 20
5029560.75
 30
16.569
 40
8.0
  1
16.6               
 41
0.75
 51
15.0
  7
STYLE1
  0
TEXT
  5
2CC
  8
11B2
 10
1713345.254
 20
5029672.133
 30
15.504
 40
8.0
  1
15.5               
 41
0.75
 51
15.0
  7
STYLE1
  0
TEXT
  5
2CD
  8
11B2
 10
1713361.07
 20
5029827.961
 30
16.017
 40
8.0
  1
16.0               
 41
0.75
 51
15.0
  7
STYLE1
  0
TEXT
  5
2CE
  8
11B2
 10
1713437.199
 20
5029720.742
 30
16.353
 40
8.0
  1
16.4               
 41
0.75
 51
15.0
  7
STYLE1
  0
TEXT
  5
2CF
  8
11B2
 10
1713451.523
 20
5029581.727
 30
16.32
 40
8.0
  1
16.3               
 41
0.75
 51
15.0
  7
STYLE1
  0
TEXT
  5
2D0
  8
11B2
 10
1713401.297
 20
5029482.086
 30
16.638
 40
8.0
  1
16.6               
 41
0.75
 51
15.0
  7
STYLE1
  0
TEXT
  5
2D1
  8
11B2
 10
1713601.102
 20
5029750.844
 30
15.85
 40
8.0
  1
15.9               
 41
0.75
 51
15.0
  7
STYLE1
  0
TEXT
  5
2D2
  8
11B2
 10
1713952.109
 20
5029790.453
 30
15.482
 40
8.0
  1
15.5               
 41
0.75
 51
15.0
  7
STYLE1
  0
TEXT
  5
2D3
  8
11B2
 10
1714044.34
 20
5029867.148
 30
15.264
 40
8.0
  1
15.3               
 41
0.75
 51
15.0
  7
STYLE1
  0
TEXT
  5
2D4
  8
11B2
 10
1713963.844
 20
5029648.797
 30
15.499
 40
8.0
  1
15.5               
 41
0.75
 51
15.0
  7
STYLE1
  0
TEXT
  5
2D5
  8
11B2
 10
1713888.922
 20
5029756.836
 30
14.879
 40
8.0
  1
14.9               
 41
0.75
 51
15.0
  7
STYLE1
  0
TEXT
  5
2D6
  8
11B2
 10
1713649.535
 20
5029848.805
 30
15.147
 40
8.0
  1
15.1               
 41
0.75
 51
15.0
  7
STYLE1
  0
TEXT
  5
2D7
  8
11B2
 10
1713794.664
 20
5029963.273
 30
15.147
 40
8.0
  1
15.1               
 41
0.75
 51
15.0
  7
STYLE1
  0
TEXT
  5
2D8
  8
11B2
 10
1713804.266
 20
5029861.508
 30
15.331
 40
8.0
  1
15.3               
 41
0.75
 51
15.0
  7
STYLE1
  0
TEXT
  5
2D9
  8
11B2
 10
1713779.68
 20
5029794.773
 30
15.432
 40
8.0
  1
15.4               
 41
0.75
 51
15.0
  7
STYLE1
  0
TEXT
  5
2DA
  8
11B2
 10
1713709.793
 20
5029766.82
 30
15.75
 40
8.0
  1
15.7               
 41
0.75
 51
15.0
  7
STYLE1
  0
TEXT
  5
2DB
  8
11B2
 10
1713560.828
 20
5029826.531
 30
15.599
 40
8.0
  1
15.6               
 41
0.75
 51
15.0
  7
STYLE1
  0
TEXT
  5
2DC
  8
11B2
 10
1713476.176
 20
5029902.68
 30
15.7
 40
8.0
  1
15.7               
 41
0.75
 51
15.0
  7
STYLE1
  0
TEXT
  5
2DD
  8
11B2
 10
1713370.387
 20
5029923.555
 30
16.47
 40
8.0
  1
16.5               
 41
0.75
 51
15.0
  7
STYLE1
  0
TEXT
  5
2DE
  8
11B2
 10
1713245.516
 20
5030021.617
 30
16.454
 40
8.0
  1
16.5               
 41
0.75
 51
15.0
  7
STYLE1
  0
TEXT
  5
2DF
  8
11B2
 10
1715088.746
 20
5028292.563
 30
13.531
 40
8.0
  1
13.5               
 41
0.75
 51
15.0
  7
STYLE1
  0
TEXT
  5
2E0
  8
11B2
 10
1715209.563
 20
5028448.688
 30
14.985
 40
8.0
  1
15.0               
 41
0.75
 51
15.0
  7
STYLE1
  0
TEXT
  5
2E1
  8
11B2
 10
1714970.77
 20
5028725.445
 30
14.0
 40
8.0
  1
14.0               
 41
0.75
 51
15.0
  7
STYLE1
  0
TEXT
  5
2E2
  8
11B2
 10
1714283.141
 20
5028569.789
 30
14.83
 40
8.0
  1
14.8               
 41
0.75
 51
15.0
  7
STYLE1
  0
TEXT
  5
2E3
  8
11B2
 10
1714448.395
 20
5028640.188
 30
15.036
 40
8.0
  1
15.0               
 41
0.75
 51
15.0
  7
STYLE1
  0
TEXT
  5
2E4
  8
11B2
 10
1714423.508
 20
5028809.617
 30
14.926
 40
8.0
  1
14.9               
 41
0.75
 51
15.0
  7
STYLE1
  0
TEXT
  5
2E5
  8
11B2
 10
1714323.555
 20
5028896.344
 30
14.764
 40
8.0
  1
14.8               
 41
0.75
 51
15.0
  7
STYLE1
  0
TEXT
  5
2E6
  8
11B2
 10
1715219.164
 20
5029019.109
 30
15.522
 40
8.0
  1
15.5               
 41
0.75
 51
15.0
  7
STYLE1
  0
TEXT
  5
2E7
  8
11B2
 10
1715078.059
 20
5029002.148
 30
14.402
 40
8.0
  1
14.4               
 41
0.75
 51
15.0
  7
STYLE1
  0
TEXT
  5
2E8
  8
11B2
 10
1715108.887
 20
5028807.898
 30
14.703
 40
8.0
  1
14.7               
 41
0.75
 51
15.0
  7
STYLE1
  0
TEXT
  5
2E9
  8
11B2
 10
1715026.824
 20
5028842.203
 30
14.653
 40
8.0
  1
14.7               
 41
0.75
 51
15.0
  7
STYLE1
  0
TEXT
  5
2EA
  8
11B2
 10
1715174.734
 20
5028685.438
 30
14.251
 40
8.0
  1
14.3               
 41
0.75
 51
15.0
  7
STYLE1
  0
TEXT
  5
2EB
  8
11B2
 10
1715214.789
 20
5028571.367
 30
14.234
 40
8.0
  1
14.2               
 41
0.75
 51
15.0
  7
STYLE1
  0
TEXT
  5
2EC
  8
11B2
 10
1715239.313
 20
5028234.359
 30
14.402
 40
8.0
  1
14.4               
 41
0.75
 51
15.0
  7
STYLE1
  0
TEXT
  5
2ED
  8
11B2
 10
1715229.23
 20
5028328.391
 30
13.766
 40
8.0
  1
13.8               
 41
0.75
 51
15.0
  7
STYLE1
  0
TEXT
  5
2EE
  8
11B2
 10
1715131.633
 20
5028366.398
 30
13.916
 40
8.0
  1
13.9               
 41
0.75
 51
15.0
  7
STYLE1
  0
TEXT
  5
2EF
  8
11B2
 10
1715130.367
 20
5028235.25
 30
13.849
 40
8.0
  1
13.8               
 41
0.75
 51
15.0
  7
STYLE1
  0
TEXT
  5
2F0
  8
11B2
 10
1715010.379
 20
5028212.453
 30
13.665
 40
8.0
  1
13.7               
 41
0.75
 51
15.0
  7
STYLE1
  0
TEXT
  5
2F1
  8
11B2
 10
1715007.984
 20
5028369.445
 30
13.196
 40
8.0
  1
13.2               
 41
0.75
 51
15.0
  7
STYLE1
  0
TEXT
  5
2F2
  8
11B2
 10
1715135.551
 20
5028542.727
 30
13.933
 40
8.0
  1
13.9               
 41
0.75
 51
15.0
  7
STYLE1
  0
TEXT
  5
2F3
  8
11B2
 10
1715037.016
 20
5028438.344
 30
13.699
 40
8.0
  1
13.7               
 41
0.75
 51
15.0
  7
STYLE1
  0
TEXT
  5
2F4
  8
11B2
 10
1715000.375
 20
5028595.266
 30
13.498
 40
8.0
  1
13.5               
 41
0.75
 51
15.0
  7
STYLE1
  0
TEXT
  5
2F5
  8
11B2
 10
1714844.0
 20
5028794.641
 30
14.153
 40
8.0
  1
14.2               
 41
0.75
 51
15.0
  7
STYLE1
  0
TEXT
  5
2F6
  8
11B2
 10
1714691.633
 20
5028781.609
 30
14.418
 40
8.0
  1
14.4               
 41
0.75
 51
15.0
  7
STYLE1
  0
TEXT
  5
2F7
  8
11B2
 10
1714612.73
 20
5028677.344
 30
14.801
 40
8.0
  1
14.8               
 41
0.75
 51
15.0
  7
STYLE1
  0
TEXT
  5
2F8
  8
11B2
 10
1714833.641
 20
5028717.688
 30
14.742
 40
8.0
  1
14.7               
 41
0.75
 51
15.0
  7
STYLE1
  0
TEXT
  5
2F9
  8
11B2
 10
1714837.559
 20
5028637.141
 30
14.911
 40
8.0
  1
14.9               
 41
0.75
 51
15.0
  7
STYLE1
  0
TEXT
  5
2FA
  8
11B2
 10
1714814.5
 20
5028525.906
 30
15.183
 40
8.0
  1
15.2               
 41
0.75
 51
15.0
  7
STYLE1
  0
TEXT
  5
2FB
  8
11B2
 10
1714940.164
 20
5028455.914
 30
13.849
 40
8.0
  1
13.8               
 41
0.75
 51
15.0
  7
STYLE1
  0
TEXT
  5
2FC
  8
11B2
 10
1714897.93
 20
5028392.781
 30
14.067
 40
8.0
  1
14.1               
 41
0.75
 51
15.0
  7
STYLE1
  0
TEXT
  5
2FD
  8
11B2
 10
1714939.414
 20
5028317.383
 30
13.682
 40
8.0
  1
13.7               
 41
0.75
 51
15.0
  7
STYLE1
  0
TEXT
  5
2FE
  8
11B2
 10
1714942.461
 20
5028222.906
 30
13.431
 40
8.0
  1
13.4               
 41
0.75
 51
15.0
  7
STYLE1
  0
TEXT
  5
2FF
  8
11B2
 10
1714857.012
 20
5028241.063
 30
14.845
 40
8.0
  1
14.8               
 41
0.75
 51
15.0
  7
STYLE1
  0
TEXT
  5
300
  8
11B2
 10
1714104.219
 20
5028704.188
 30
15.235
 40
8.0
  1
15.2               
 41
0.75
 51
15.0
  7
STYLE1
  0
TEXT
  5
301
  8
11B2
 10
1714119.844
 20
5028513.813
 30
14.926
 40
8.0
  1
14.9               
 41
0.75
 51
15.0
  7
STYLE1
  0
TEXT
  5
302
  8
11B2
 10
1714153.781
 20
5028192.813
 30
14.801
 40
8.0
  1
14.8               
 41
0.75
 51
15.0
  7
STYLE1
  0
TEXT
  5
303
  8
11B2
 10
1714471.035
 20
5028451.914
 30
14.631
 40
8.0
  1
14.6               
 41
0.75
 51
15.0
  7
STYLE1
  0
TEXT
  5
304
  8
11B2
 10
1714640.379
 20
5028528.102
 30
14.742
 40
8.0
  1
14.7               
 41
0.75
 51
15.0
  7
STYLE1
  0
TEXT
  5
305
  8
11B2
 10
1714742.824
 20
5028614.953
 30
14.896
 40
8.0
  1
14.9               
 41
0.75
 51
15.0
  7
STYLE1
  0
TEXT
  5
306
  8
11B2
 10
1714763.156
 20
5028459.75
 30
15.073
 40
8.0
  1
15.1               
 41
0.75
 51
15.0
  7
STYLE1
  0
TEXT
  5
307
  8
11B2
 10
1714820.875
 20
5028312.023
 30
14.977
 40
8.0
  1
15.0               
 41
0.75
 51
15.0
  7
STYLE1
  0
TEXT
  5
308
  8
11B2
 10
1714875.734
 20
5028322.477
 30
15.066
 40
8.0
  1
15.1               
 41
0.75
 51
15.0
  7
STYLE1
  0
TEXT
  5
309
  8
11B2
 10
1714674.34
 20
5028419.258
 30
15.301
 40
8.0
  1
15.3               
 41
0.75
 51
15.0
  7
STYLE1
  0
TEXT
  5
30A
  8
11B2
 10
1714571.156
 20
5028443.641
 30
14.999
 40
8.0
  1
15.0               
 41
0.75
 51
15.0
  7
STYLE1
  0
TEXT
  5
30B
  8
11B2
 10
1714571.168
 20
5028365.711
 30
14.904
 40
8.0
  1
14.9               
 41
0.75
 51
15.0
  7
STYLE1
  0
TEXT
  5
30C
  8
11B2
 10
1714575.164
 20
5028313.898
 30
14.749
 40
8.0
  1
14.7               
 41
0.75
 51
15.0
  7
STYLE1
  0
TEXT
  5
30D
  8
11B2
 10
1714389.324
 20
5028405.891
 30
15.801
 40
8.0
  1
15.8               
 41
0.75
 51
15.0
  7
STYLE1
  0
TEXT
  5
30E
  8
11B2
 10
1714316.961
 20
5028397.641
 30
15.264
 40
8.0
  1
15.3               
 41
0.75
 51
15.0
  7
STYLE1
  0
TEXT
  5
30F
  8
11B2
 10
1714506.297
 20
5028372.672
 30
15.029
 40
8.0
  1
15.0               
 41
0.75
 51
15.0
  7
STYLE1
  0
TEXT
  5
310
  8
11B2
 10
1714465.93
 20
5028318.688
 30
15.058
 40
8.0
  1
15.1               
 41
0.75
 51
15.0
  7
STYLE1
  0
TEXT
  5
311
  8
11B2
 10
1714336.191
 20
5028345.242
 30
15.007
 40
8.0
  1
15.0               
 41
0.75
 51
15.0
  7
STYLE1
  0
TEXT
  5
312
  8
11B2
 10
1714442.855
 20
5028192.867
 30
15.448
 40
8.0
  1
15.4               
 41
0.75
 51
15.0
  7
STYLE1
  0
TEXT
  5
313
  8
11B2
 10
1714528.578
 20
5028276.023
 30
15.08
 40
8.0
  1
15.1               
 41
0.75
 51
15.0
  7
STYLE1
  0
TEXT
  5
314
  8
11B2
 10
1714776.469
 20
5028252.383
 30
15.066
 40
8.0
  1
15.1               
 41
0.75
 51
15.0
  7
STYLE1
  0
TEXT
  5
315
  8
11B2
 10
1714742.508
 20
5028323.781
 30
15.22
 40
8.0
  1
15.2               
 41
0.75
 51
15.0
  7
STYLE1
  0
TEXT
  5
316
  8
11B2
 10
1714632.633
 20
5028295.18
 30
15.117
 40
8.0
  1
15.1               
 41
0.75
 51
15.0
  7
STYLE1
  0
TEXT
  5
317
  8
11B2
 10
1714478.57
 20
5028277.008
 30
15.073
 40
8.0
  1
15.1               
 41
0.75
 51
15.0
  7
STYLE1
  0
TEXT
  5
318
  8
11B2
 10
1714171.203
 20
5028399.359
 30
15.426
 40
8.0
  1
15.4               
 41
0.75
 51
15.0
  7
STYLE1
  0
TEXT
  5
319
  8
11B2
 10
1714121.563
 20
5028353.031
 30
15.36
 40
8.0
  1
15.4               
 41
0.75
 51
15.0
  7
STYLE1
  0
TEXT
  5
31A
  8
11B2
 10
1714233.453
 20
5028270.75
 30
15.478
 40
8.0
  1
15.5               
 41
0.75
 51
15.0
  7
STYLE1
  0
TEXT
  5
31B
  8
11B2
 10
1714019.828
 20
5028228.953
 30
14.955
 40
8.0
  1
15.0               
 41
0.75
 51
15.0
  7
STYLE1
  0
TEXT
  5
31C
  8
11B2
 10
1714102.844
 20
5028284.68
 30
14.977
 40
8.0
  1
15.0               
 41
0.75
 51
15.0
  7
STYLE1
  0
TEXT
  5
31D
  8
11B2
 10
1714196.883
 20
5028322.555
 30
14.955
 40
8.0
  1
15.0               
 41
0.75
 51
15.0
  7
STYLE1
  0
TEXT
  5
31E
  8
11B2
 10
1714287.863
 20
5028262.086
 30
15.272
 40
8.0
  1
15.3               
 41
0.75
 51
15.0
  7
STYLE1
  0
TEXT
  5
31F
  8
11B2
 10
1714310.938
 20
5028194.602
 30
15.411
 40
8.0
  1
15.4               
 41
0.75
 51
15.0
  7
STYLE1
  0
TEXT
  5
320
  8
11B2
 10
1714257.398
 20
5028349.984
 30
15.397
 40
8.0
  1
15.4               
 41
0.75
 51
15.0
  7
STYLE1
  0
TEXT
  5
321
  8
11B2
 10
1714181.121
 20
5028937.25
 30
15.117
 40
8.0
  1
15.1               
 41
0.75
 51
15.0
  7
STYLE1
  0
TEXT
  5
322
  8
11B2
 10
1714238.461
 20
5028958.023
 30
14.742
 40
8.0
  1
14.7               
 41
0.75
 51
15.0
  7
STYLE1
  0
TEXT
  5
323
  8
11B2
 10
1714226.941
 20
5028874.047
 30
15.485
 40
8.0
  1
15.5               
 41
0.75
 51
15.0
  7
STYLE1
  0
TEXT
  5
324
  8
11B2
 10
1714220.996
 20
5028782.633
 30
14.852
 40
8.0
  1
14.9               
 41
0.75
 51
15.0
  7
STYLE1
  0
TEXT
  5
325
  8
11B2
 10
1714263.984
 20
5028715.641
 30
14.97
 40
8.0
  1
15.0               
 41
0.75
 51
15.0
  7
STYLE1
  0
TEXT
  5
326
  8
11B2
 10
1714106.207
 20
5028917.094
 30
15.102
 40
8.0
  1
15.1               
 41
0.75
 51
15.0
  7
STYLE1
  0
TEXT
  5
327
  8
11B2
 10
1714089.098
 20
5028845.984
 30
15.183
 40
8.0
  1
15.2               
 41
0.75
 51
15.0
  7
STYLE1
  0
TEXT
  5
328
  8
11B2
 10
1714147.797
 20
5028788.617
 30
15.183
 40
8.0
  1
15.2               
 41
0.75
 51
15.0
  7
STYLE1
  0
TEXT
  5
329
  8
11B2
 10
1714152.094
 20
5028661.656
 30
15.345
 40
8.0
  1
15.3               
 41
0.75
 51
15.0
  7
STYLE1
  0
TEXT
  5
32A
  8
11B2
 10
1714215.223
 20
5028593.297
 30
15.264
 40
8.0
  1
15.3               
 41
0.75
 51
15.0
  7
STYLE1
  0
TEXT
  5
32B
  8
11B2
 10
1714255.75
 20
5028467.008
 30
15.36
 40
8.0
  1
15.4               
 41
0.75
 51
15.0
  7
STYLE1
  0
TEXT
  5
32C
  8
11B2
 10
1714311.73
 20
5028462.328
 30
14.823
 40
8.0
  1
14.8               
 41
0.75
 51
15.0
  7
STYLE1
  0
TEXT
  5
32D
  8
11B2
 10
1714477.563
 20
5028513.734
 30
15.014
 40
8.0
  1
15.0               
 41
0.75
 51
15.0
  7
STYLE1
  0
TEXT
  5
32E
  8
11B2
 10
1714416.176
 20
5028481.953
 30
15.198
 40
8.0
  1
15.2               
 41
0.75
 51
15.0
  7
STYLE1
  0
TEXT
  5
32F
  8
11B2
 10
1714678.188
 20
5028876.391
 30
14.234
 40
8.0
  1
14.2               
 41
0.75
 51
15.0
  7
STYLE1
  0
TEXT
  5
330
  8
11B2
 10
1714573.836
 20
5028832.883
 30
14.963
 40
8.0
  1
15.0               
 41
0.75
 51
15.0
  7
STYLE1
  0
TEXT
  5
331
  8
11B2
 10
1714592.047
 20
5028913.523
 30
15.176
 40
8.0
  1
15.2               
 41
0.75
 51
15.0
  7
STYLE1
  0
TEXT
  5
332
  8
11B2
 10
1714508.438
 20
5028861.5
 30
15.522
 40
8.0
  1
15.5               
 41
0.75
 51
15.0
  7
STYLE1
  0
TEXT
  5
333
  8
11B2
 10
1714512.523
 20
5028788.664
 30
15.669
 40
8.0
  1
15.7               
 41
0.75
 51
15.0
  7
STYLE1
  0
TEXT
  5
334
  8
11B2
 10
1714525.02
 20
5028699.398
 30
15.294
 40
8.0
  1
15.3               
 41
0.75
 51
15.0
  7
STYLE1
  0
TEXT
  5
335
  8
11B2
 10
1714522.395
 20
5028570.531
 30
14.977
 40
8.0
  1
15.0               
 41
0.75
 51
15.0
  7
STYLE1
  0
TEXT
  5
336
  8
11B2
 10
1714654.746
 20
5028595.781
 30
14.44
 40
8.0
  1
14.4               
 41
0.75
 51
15.0
  7
STYLE1
  0
TEXT
  5
337
  8
11B2
 10
1714755.273
 20
5028683.289
 30
14.411
 40
8.0
  1
14.4               
 41
0.75
 51
15.0
  7
STYLE1
  0
TEXT
  5
338
  8
11B2
 10
1714867.164
 20
5028671.969
 30
14.352
 40
8.0
  1
14.4               
 41
0.75
 51
15.0
  7
STYLE1
  0
TEXT
  5
339
  8
11B2
 10
1715205.871
 20
5028952.82
 30
16.0
 40
8.0
  1
16.0               
 41
0.75
 51
15.0
  7
STYLE1
  0
TEXT
  5
33A
  8
11B2
 10
1715100.383
 20
5029059.922
 30
14.787
 40
8.0
  1
14.8               
 41
0.75
 51
15.0
  7
STYLE1
  0
TEXT
  5
33B
  8
11B2
 10
1715122.637
 20
5028962.148
 30
14.938
 40
8.0
  1
14.9               
 41
0.75
 51
15.0
  7
STYLE1
  0
TEXT
  5
33C
  8
11B2
 10
1715174.66
 20
5028898.57
 30
14.938
 40
8.0
  1
14.9               
 41
0.75
 51
15.0
  7
STYLE1
  0
TEXT
  5
33D
  8
11B2
 10
1715169.074
 20
5028765.547
 30
14.603
 40
8.0
  1
14.6               
 41
0.75
 51
15.0
  7
STYLE1
  0
TEXT
  5
33E
  8
11B2
 10
1715223.031
 20
5028699.352
 30
14.536
 40
8.0
  1
14.5               
 41
0.75
 51
15.0
  7
STYLE1
  0
TEXT
  5
33F
  8
11B2
 10
1714508.617
 20
5029513.922
 30
14.528
 40
8.0
  1
14.5               
 41
0.75
 51
15.0
  7
STYLE1
  0
TEXT
  5
340
  8
11B2
 10
1714185.285
 20
5029450.758
 30
14.86
 40
8.0
  1
14.9               
 41
0.75
 51
15.0
  7
STYLE1
  0
TEXT
  5
341
  8
11B2
 10
1714361.98
 20
5029554.125
 30
14.705
 40
8.0
  1
14.7               
 41
0.75
 51
15.0
  7
STYLE1
  0
TEXT
  5
342
  8
11B2
 10
1714171.754
 20
5029600.188
 30
14.528
 40
8.0
  1
14.5               
 41
0.75
 51
15.0
  7
STYLE1
  0
TEXT
  5
343
  8
11B2
 10
1714270.352
 20
5029702.695
 30
14.418
 40
8.0
  1
14.4               
 41
0.75
 51
15.0
  7
STYLE1
  0
TEXT
  5
344
  8
11B2
 10
1714104.516
 20
5029805.148
 30
14.014
 40
8.0
  1
14.0               
 41
0.75
 51
15.0
  7
STYLE1
  0
TEXT
  5
345
  8
11B2
 10
1714650.777
 20
5029044.805
 30
14.587
 40
8.0
  1
14.6               
 41
0.75
 51
15.0
  7
STYLE1
  0
TEXT
  5
346
  8
11B2
 10
1714551.945
 20
5029182.414
 30
14.668
 40
8.0
  1
14.7               
 41
0.75
 51
15.0
  7
STYLE1
  0
TEXT
  5
347
  8
11B2
 10
1714530.426
 20
5029033.758
 30
15.014
 40
8.0
  1
15.0               
 41
0.75
 51
15.0
  7
STYLE1
  0
TEXT
  5
348
  8
11B2
 10
1714390.699
 20
5029037.969
 30
14.573
 40
8.0
  1
14.6               
 41
0.75
 51
15.0
  7
STYLE1
  0
TEXT
  5
349
  8
11B2
 10
1714439.113
 20
5029364.914
 30
14.97
 40
8.0
  1
15.0               
 41
0.75
 51
15.0
  7
STYLE1
  0
TEXT
  5
34A
  8
11B2
 10
1714105.469
 20
5029254.125
 30
14.742
 40
8.0
  1
14.7               
 41
0.75
 51
15.0
  7
STYLE1
  0
TEXT
  5
34B
  8
11B2
 10
1714160.602
 20
5029321.039
 30
14.514
 40
8.0
  1
14.5               
 41
0.75
 51
15.0
  7
STYLE1
  0
TEXT
  5
34C
  8
11B2
 10
1714249.285
 20
5029364.883
 30
14.499
 40
8.0
  1
14.5               
 41
0.75
 51
15.0
  7
STYLE1
  0
TEXT
  5
34D
  8
11B2
 10
1714360.988
 20
5029327.039
 30
14.823
 40
8.0
  1
14.8               
 41
0.75
 51
15.0
  7
STYLE1
  0
TEXT
  5
34E
  8
11B2
 10
1714266.715
 20
5029261.383
 30
14.448
 40
8.0
  1
14.4               
 41
0.75
 51
15.0
  7
STYLE1
  0
TEXT
  5
34F
  8
11B2
 10
1714241.41
 20
5029208.25
 30
15.47
 40
8.0
  1
15.5               
 41
0.75
 51
15.0
  7
STYLE1
  0
TEXT
  5
350
  8
11B2
 10
1714089.914
 20
5029164.813
 30
15.051
 40
8.0
  1
15.1               
 41
0.75
 51
15.0
  7
STYLE1
  0
TEXT
  5
351
  8
11B2
 10
1714090.234
 20
5029063.563
 30
15.661
 40
8.0
  1
15.7               
 41
0.75
 51
15.0
  7
STYLE1
  0
TEXT
  5
352
  8
11B2
 10
1714107.266
 20
5028964.789
 30
15.352
 40
8.0
  1
15.4               
 41
0.75
 51
15.0
  7
STYLE1
  0
TEXT
  5
353
  8
11B2
 10
1714137.504
 20
5029041.07
 30
15.522
 40
8.0
  1
15.5               
 41
0.75
 51
15.0
  7
STYLE1
  0
TEXT
  5
354
  8
11B2
 10
1714172.438
 20
5029024.656
 30
14.867
 40
8.0
  1
14.9               
 41
0.75
 51
15.0
  7
STYLE1
  0
TEXT
  5
355
  8
11B2
 10
1714293.648
 20
5029100.836
 30
14.749
 40
8.0
  1
14.7               
 41
0.75
 51
15.0
  7
STYLE1
  0
TEXT
  5
356
  8
11B2
 10
1714385.242
 20
5029191.938
 30
14.565
 40
8.0
  1
14.6               
 41
0.75
 51
15.0
  7
STYLE1
  0
TEXT
  5
357
  8
11B2
 10
1714468.996
 20
5029248.336
 30
14.676
 40
8.0
  1
14.7               
 41
0.75
 51
15.0
  7
STYLE1
  0
TEXT
  5
358
  8
11B2
 10
1714559.523
 20
5029331.828
 30
14.609
 40
8.0
  1
14.6               
 41
0.75
 51
15.0
  7
STYLE1
  0
TEXT
  5
359
  8
11B2
 10
1714398.543
 20
5029624.922
 30
14.734
 40
8.0
  1
14.7               
 41
0.75
 51
15.0
  7
STYLE1
  0
TEXT
  5
35A
  8
11B2
 10
1714332.73
 20
5029724.969
 30
14.492
 40
8.0
  1
14.5               
 41
0.75
 51
15.0
  7
STYLE1
  0
TEXT
  5
35B
  8
11B2
 10
1714280.883
 20
5029792.211
 30
14.389
 40
8.0
  1
14.4               
 41
0.75
 51
15.0
  7
STYLE1
  0
TEXT
  5
35C
  8
11B2
 10
1714951.121
 20
5029930.211
 30
15.069
 40
8.0
  1
15.1               
 41
0.75
 51
15.0
  7
STYLE1
  0
TEXT
  5
35D
  8
11B2
 10
1714816.742
 20
5029901.859
 30
14.802
 40
8.0
  1
14.8               
 41
0.75
 51
15.0
  7
STYLE1
  0
TEXT
  5
35E
  8
11B2
 10
1715110.109
 20
5029571.648
 30
19.58
 40
8.0
  1
19.6               
 41
0.75
 51
15.0
  7
STYLE1
  0
TEXT
  5
35F
  8
11B2
 10
1715165.199
 20
5029691.133
 30
15.069
 40
8.0
  1
15.1               
 41
0.75
 51
15.0
  7
STYLE1
  0
TEXT
  5
360
  8
11B2
 10
1715099.578
 20
5029793.617
 30
15.42
 40
8.0
  1
15.4               
 41
0.75
 51
15.0
  7
STYLE1
  0
TEXT
  5
361
  8
11B2
 10
1714957.699
 20
5029715.18
 30
14.735
 40
8.0
  1
14.7               
 41
0.75
 51
15.0
  7
STYLE1
  0
TEXT
  5
362
  8
11B2
 10
1714645.195
 20
5029914.414
 30
15.537
 40
8.0
  1
15.5               
 41
0.75
 51
15.0
  7
STYLE1
  0
TEXT
  5
363
  8
11B2
 10
1714753.957
 20
5029802.211
 30
14.501
 40
8.0
  1
14.5               
 41
0.75
 51
15.0
  7
STYLE1
  0
TEXT
  5
364
  8
11B2
 10
1714977.449
 20
5029835.836
 30
15.166
 40
8.0
  1
15.2               
 41
0.75
 51
15.0
  7
STYLE1
  0
TEXT
  5
365
  8
11B2
 10
1715163.387
 20
5029984.461
 30
15.65
 40
8.0
  1
15.7               
 41
0.75
 51
15.0
  7
STYLE1
  0
TEXT
  5
366
  8
11B2
 10
1715056.859
 20
5029972.313
 30
15.153
 40
8.0
  1
15.2               
 41
0.75
 51
15.0
  7
STYLE1
  0
TEXT
  5
367
  8
11B2
 10
1714906.973
 20
5029936.289
 30
15.404
 40
8.0
  1
15.4               
 41
0.75
 51
15.0
  7
STYLE1
  0
TEXT
  5
368
  8
11B2
 10
1714830.512
 20
5029826.516
 30
15.404
 40
8.0
  1
15.4               
 41
0.75
 51
15.0
  7
STYLE1
  0
TEXT
  5
369
  8
11B2
 10
1714454.414
 20
5029883.227
 30
14.669
 40
8.0
  1
14.7               
 41
0.75
 51
15.0
  7
STYLE1
  0
TEXT
  5
36A
  8
11B2
 10
1714218.918
 20
5029872.008
 30
14.35
 40
8.0
  1
14.4               
 41
0.75
 51
15.0
  7
STYLE1
  0
TEXT
  5
36B
  8
11B2
 10
1714360.539
 20
5029931.266
 30
17.137
 40
8.0
  1
17.1               
 41
0.75
 51
15.0
  7
STYLE1
  0
TEXT
  5
36C
  8
11B2
 10
1715134.109
 20
5030097.391
 30
15.584
 40
8.0
  1
15.6               
 41
0.75
 51
15.0
  7
STYLE1
  0
TEXT
  5
36D
  8
11B2
 10
1715066.871
 20
5030075.922
 30
15.133
 40
8.0
  1
15.1               
 41
0.75
 51
15.0
  7
STYLE1
  0
TEXT
  5
36E
  8
11B2
 10
1715044.594
 20
5030166.25
 30
15.317
 40
8.0
  1
15.3               
 41
0.75
 51
15.0
  7
STYLE1
  0
TEXT
  5
36F
  8
11B2
 10
1715166.273
 20
5030362.766
 30
15.113
 40
8.0
  1
15.1               
 41
0.75
 51
15.0
  7
STYLE1
  0
TEXT
  5
370
  8
11B2
 10
1715021.766
 20
5030359.961
 30
14.721
 40
8.0
  1
14.7               
 41
0.75
 51
15.0
  7
STYLE1
  0
TEXT
  5
371
  8
11B2
 10
1715154.906
 20
5030446.242
 30
15.389
 40
8.0
  1
15.4               
 41
0.75
 51
15.0
  7
STYLE1
  0
TEXT
  5
372
  8
11B2
 10
1715156.957
 20
5030213.711
 30
15.422
 40
8.0
  1
15.4               
 41
0.75
 51
15.0
  7
STYLE1
  0
TEXT
  5
373
  8
11B2
 10
1715071.492
 20
5030275.273
 30
15.055
 40
8.0
  1
15.1               
 41
0.75
 51
15.0
  7
STYLE1
  0
TEXT
  5
374
  8
11B2
 10
1714899.68
 20
5030473.781
 30
16.107
 40
8.0
  1
16.1               
 41
0.75
 51
15.0
  7
STYLE1
  0
TEXT
  5
375
  8
11B2
 10
1714632.898
 20
5030157.93
 30
14.702
 40
8.0
  1
14.7               
 41
0.75
 51
15.0
  7
STYLE1
  0
TEXT
  5
376
  8
11B2
 10
1714634.922
 20
5030048.164
 30
15.302
 40
8.0
  1
15.3               
 41
0.75
 51
15.0
  7
STYLE1
  0
TEXT
  5
377
  8
11B2
 10
1714783.672
 20
5030020.211
 30
14.785
 40
8.0
  1
14.8               
 41
0.75
 51
15.0
  7
STYLE1
  0
TEXT
  5
378
  8
11B2
 10
1714970.063
 20
5030094.148
 30
14.935
 40
8.0
  1
14.9               
 41
0.75
 51
15.0
  7
STYLE1
  0
TEXT
  5
379
  8
11B2
 10
1714885.34
 20
5030170.492
 30
15.102
 40
8.0
  1
15.1               
 41
0.75
 51
15.0
  7
STYLE1
  0
TEXT
  5
37A
  8
11B2
 10
1714812.664
 20
5030314.211
 30
15.67
 40
8.0
  1
15.7               
 41
0.75
 51
15.0
  7
STYLE1
  0
TEXT
  5
37B
  8
11B2
 10
1714753.121
 20
5030223.883
 30
15.937
 40
8.0
  1
15.9               
 41
0.75
 51
15.0
  7
STYLE1
  0
TEXT
  5
37C
  8
11B2
 10
1714530.539
 20
5030185.664
 30
15.252
 40
8.0
  1
15.3               
 41
0.75
 51
15.0
  7
STYLE1
  0
TEXT
  5
37D
  8
11B2
 10
1714453.578
 20
5030029.719
 30
15.085
 40
8.0
  1
15.1               
 41
0.75
 51
15.0
  7
STYLE1
  0
TEXT
  5
37E
  8
11B2
 10
1714341.715
 20
5030004.016
 30
15.62
 40
8.0
  1
15.6               
 41
0.75
 51
15.0
  7
STYLE1
  0
TEXT
  5
37F
  8
11B2
 10
1714346.148
 20
5030463.82
 30
16.605
 40
8.0
  1
16.6               
 41
0.75
 51
15.0
  7
STYLE1
  0
TEXT
  5
380
  8
11B2
 10
1714277.617
 20
5030294.82
 30
16.268
 40
8.0
  1
16.3               
 41
0.75
 51
15.0
  7
STYLE1
  0
TEXT
  5
381
  8
11B2
 10
1714229.512
 20
5030361.68
 30
15.453
 40
8.0
  1
15.5               
 41
0.75
 51
15.0
  7
STYLE1
  0
TEXT
  5
382
  8
11B2
 10
1714532.352
 20
5030436.273
 30
16.088
 40
8.0
  1
16.1               
 41
0.75
 51
15.0
  7
STYLE1
  0
TEXT
  5
383
  8
11B2
 10
1714451.34
 20
5030424.938
 30
15.687
 40
8.0
  1
15.7               
 41
0.75
 51
15.0
  7
STYLE1
  0
TEXT
  5
384
  8
11B2
 10
1714379.691
 20
5030294.82
 30
15.687
 40
8.0
  1
15.7               
 41
0.75
 51
15.0
  7
STYLE1
  0
TEXT
  5
385
  8
11B2
 10
1714408.449
 20
5030347.07
 30
15.319
 40
8.0
  1
15.3               
 41
0.75
 51
15.0
  7
STYLE1
  0
TEXT
  5
386
  8
11B2
 10
1714605.398
 20
5030357.578
 30
15.654
 40
8.0
  1
15.7               
 41
0.75
 51
15.0
  7
STYLE1
  0
TEXT
  5
387
  8
11B2
 10
1714593.246
 20
5030276.57
 30
15.52
 40
8.0
  1
15.5               
 41
0.75
 51
15.0
  7
STYLE1
  0
TEXT
  5
388
  8
11B2
 10
1714845.387
 20
5030750.094
 30
16.723
 40
8.0
  1
16.7               
 41
0.75
 51
15.0
  7
STYLE1
  0
TEXT
  5
389
  8
11B2
 10
1715097.793
 20
5030446.242
 30
15.361
 40
8.0
  1
15.4               
 41
0.75
 51
15.0
  7
STYLE1
  0
TEXT
  5
38A
  8
11B2
 10
1715011.113
 20
5030417.883
 30
14.325
 40
8.0
  1
14.3               
 41
0.75
 51
15.0
  7
STYLE1
  0
TEXT
  5
38B
  8
11B2
 10
1714912.141
 20
5030362.57
 30
14.943
 40
8.0
  1
14.9               
 41
0.75
 51
15.0
  7
STYLE1
  0
TEXT
  5
38C
  8
11B2
 10
1714837.617
 20
5030364.82
 30
14.977
 40
8.0
  1
15.0               
 41
0.75
 51
15.0
  7
STYLE1
  0
TEXT
  5
38D
  8
11B2
 10
1715167.465
 20
5030516.719
 30
15.695
 40
8.0
  1
15.7               
 41
0.75
 51
15.0
  7
STYLE1
  0
TEXT
  5
38E
  8
11B2
 10
1715051.215
 20
5030569.781
 30
15.678
 40
8.0
  1
15.7               
 41
0.75
 51
15.0
  7
STYLE1
  0
TEXT
  5
38F
  8
11B2
 10
1715139.73
 20
5030671.758
 30
16.057
 40
8.0
  1
16.1               
 41
0.75
 51
15.0
  7
STYLE1
  0
TEXT
  5
390
  8
11B2
 10
1714844.172
 20
5030591.313
 30
15.857
 40
8.0
  1
15.9               
 41
0.75
 51
15.0
  7
STYLE1
  0
TEXT
  5
391
  8
11B2
 10
1714573.668
 20
5030533.898
 30
15.873
 40
8.0
  1
15.9               
 41
0.75
 51
15.0
  7
STYLE1
  0
TEXT
  5
392
  8
11B2
 10
1714692.414
 20
5030437.305
 30
15.589
 40
8.0
  1
15.6               
 41
0.75
 51
15.0
  7
STYLE1
  0
TEXT
  5
393
  8
11B2
 10
1714621.816
 20
5030559.547
 30
15.088
 40
8.0
  1
15.1               
 41
0.75
 51
15.0
  7
STYLE1
  0
TEXT
  5
394
  8
11B2
 10
1714742.238
 20
5030579.07
 30
16.274
 40
8.0
  1
16.3               
 41
0.75
 51
15.0
  7
STYLE1
  0
TEXT
  5
395
  8
11B2
 10
1714931.035
 20
5030686.5
 30
15.846
 40
8.0
  1
15.8               
 41
0.75
 51
15.0
  7
STYLE1
  0
TEXT
  5
396
  8
11B2
 10
1714972.176
 20
5030772.0
 30
15.897
 40
8.0
  1
15.9               
 41
0.75
 51
15.0
  7
STYLE1
  0
TEXT
  5
397
  8
11B2
 10
1715045.492
 20
5030893.109
 30
16.572
 40
8.0
  1
16.6               
 41
0.75
 51
15.0
  7
STYLE1
  0
TEXT
  5
398
  8
11B2
 10
1715142.566
 20
5030740.617
 30
15.637
 40
8.0
  1
15.6               
 41
0.75
 51
15.0
  7
STYLE1
  0
TEXT
  5
399
  8
11B2
 10
1715085.313
 20
5030800.336
 30
15.637
 40
8.0
  1
15.6               
 41
0.75
 51
15.0
  7
STYLE1
  0
TEXT
  5
39A
  8
11B2
 10
1714975.012
 20
5030839.242
 30
16.138
 40
8.0
  1
16.1               
 41
0.75
 51
15.0
  7
STYLE1
  0
TEXT
  5
39B
  8
11B2
 10
1715001.34
 20
5030946.172
 30
16.171
 40
8.0
  1
16.2               
 41
0.75
 51
15.0
  7
STYLE1
  0
TEXT
  5
39C
  8
11B2
 10
1714815.73
 20
5030864.188
 30
17.04
 40
8.0
  1
17.0               
 41
0.75
 51
15.0
  7
STYLE1
  0
TEXT
  5
39D
  8
11B2
 10
1714631.133
 20
5030713.859
 30
16.392
 40
8.0
  1
16.4               
 41
0.75
 51
15.0
  7
STYLE1
  0
TEXT
  5
39E
  8
11B2
 10
1714291.891
 20
5030677.102
 30
15.874
 40
8.0
  1
15.9               
 41
0.75
 51
15.0
  7
STYLE1
  0
TEXT
  5
39F
  8
11B2
 10
1714313.504
 20
5030936.531
 30
17.344
 40
8.0
  1
17.3               
 41
0.75
 51
15.0
  7
STYLE1
  0
TEXT
  5
3A0
  8
11B2
 10
1714401.113
 20
5030587.766
 30
16.041
 40
8.0
  1
16.0               
 41
0.75
 51
15.0
  7
STYLE1
  0
TEXT
  5
3A1
  8
11B2
 10
1714508.5
 20
5030757.25
 30
16.592
 40
8.0
  1
16.6               
 41
0.75
 51
15.0
  7
STYLE1
  0
TEXT
  5
3A2
  8
11B2
 10
1714575.707
 20
5030838.883
 30
16.475
 40
8.0
  1
16.5               
 41
0.75
 51
15.0
  7
STYLE1
  0
TEXT
  5
3A3
  8
11B2
 10
1714557.82
 20
5030726.414
 30
16.291
 40
8.0
  1
16.3               
 41
0.75
 51
15.0
  7
STYLE1
  0
TEXT
  5
3A4
  8
11B2
 10
1714537.566
 20
5030636.492
 30
16.091
 40
8.0
  1
16.1               
 41
0.75
 51
15.0
  7
STYLE1
  0
TEXT
  5
3A5
  8
11B2
 10
1714506.426
 20
5030570.352
 30
15.874
 40
8.0
  1
15.9               
 41
0.75
 51
15.0
  7
STYLE1
  0
TEXT
  5
3A6
  8
11B2
 10
1714358.301
 20
5030540.781
 30
15.757
 40
8.0
  1
15.8               
 41
0.75
 51
15.0
  7
STYLE1
  0
TEXT
  5
3A7
  8
11B2
 10
1714279.883
 20
5030815.82
 30
16.158
 40
8.0
  1
16.2               
 41
0.75
 51
15.0
  7
STYLE1
  0
TEXT
  5
3A8
  8
11B2
 10
1714271.379
 20
5030864.43
 30
16.974
 40
8.0
  1
17.0               
 41
0.75
 51
15.0
  7
STYLE1
  0
TEXT
  5
3A9
  8
11B2
 10
1714392.934
 20
5030866.047
 30
16.49
 40
8.0
  1
16.5               
 41
0.75
 51
15.0
  7
STYLE1
  0
TEXT
  5
3AA
  8
11B2
 10
1714476.094
 20
5030804.641
 30
16.958
 40
8.0
  1
17.0               
 41
0.75
 51
15.0
  7
STYLE1
  0
TEXT
  5
3AB
  8
11B2
 10
1714670.895
 20
5030798.781
 30
16.39
 40
8.0
  1
16.4               
 41
0.75
 51
15.0
  7
STYLE1
  0
TEXT
  5
3AC
  8
11B2
 10
1714414.809
 20
5030947.461
 30
18.108
 40
8.0
  1
18.1               
 41
0.75
 51
15.0
  7
STYLE1
  0
TEXT
  5
3AD
  8
11B2
 10
1714725.984
 20
5030928.398
 30
18.026
 40
8.0
  1
18.0               
 41
0.75
 51
15.0
  7
STYLE1
  0
TEXT
  5
3AE
  8
11B2
 10
1714893.504
 20
5030914.82
 30
17.661
 40
8.0
  1
17.7               
 41
0.75
 51
15.0
  7
STYLE1
  0
TEXT
  5
3AF
  8
11B2
 10
1714114.414
 20
5029943.297
 30
13.352
 40
8.0
  1
13.4               
 41
0.75
 51
15.0
  7
STYLE1
  0
TEXT
  5
3B0
  8
11B2
 10
1714006.934
 20
5030064.961
 30
15.533
 40
8.0
  1
15.5               
 41
0.75
 51
15.0
  7
STYLE1
  0
TEXT
  5
3B1
  8
11B2
 10
1713898.262
 20
5030050.594
 30
14.495
 40
8.0
  1
14.5               
 41
0.75
 51
15.0
  7
STYLE1
  0
TEXT
  5
3B2
  8
11B2
 10
1713801.145
 20
5030016.336
 30
16.575
 40
8.0
  1
16.6               
 41
0.75
 51
15.0
  7
STYLE1
  0
TEXT
  5
3B3
  8
11B2
 10
1713705.77
 20
5030033.773
 30
16.684
 40
8.0
  1
16.7               
 41
0.75
 51
15.0
  7
STYLE1
  0
TEXT
  5
3B4
  8
11B2
 10
1713697.668
 20
5030172.703
 30
16.703
 40
8.0
  1
16.7               
 41
0.75
 51
15.0
  7
STYLE1
  0
TEXT
  5
3B5
  8
11B2
 10
1714188.602
 20
5030212.211
 30
16.447
 40
8.0
  1
16.4               
 41
0.75
 51
15.0
  7
STYLE1
  0
TEXT
  5
3B6
  8
11B2
 10
1714163.492
 20
5030086.234
 30
15.935
 40
8.0
  1
15.9               
 41
0.75
 51
15.0
  7
STYLE1
  0
TEXT
  5
3B7
  8
11B2
 10
1714029.617
 20
5030188.906
 30
16.666
 40
8.0
  1
16.7               
 41
0.75
 51
15.0
  7
STYLE1
  0
TEXT
  5
3B8
  8
11B2
 10
1713967.996
 20
5030305.781
 30
16.94
 40
8.0
  1
16.9               
 41
0.75
 51
15.0
  7
STYLE1
  0
TEXT
  5
3B9
  8
11B2
 10
1713856.945
 20
5030191.961
 30
16.867
 40
8.0
  1
16.9               
 41
0.75
 51
15.0
  7
STYLE1
  0
TEXT
  5
3BA
  8
11B2
 10
1713883.68
 20
5030390.289
 30
17.617
 40
8.0
  1
17.6               
 41
0.75
 51
15.0
  7
STYLE1
  0
TEXT
  5
3BB
  8
11B2
 10
1714091.535
 20
5030246.641
 30
16.812
 40
8.0
  1
16.8               
 41
0.75
 51
15.0
  7
STYLE1
  0
TEXT
  5
3BC
  8
11B2
 10
1714012.152
 20
5030400.227
 30
17.215
 40
8.0
  1
17.2               
 41
0.75
 51
15.0
  7
STYLE1
  0
TEXT
  5
3BD
  8
11B2
 10
1714142.02
 20
5030323.602
 30
16.849
 40
8.0
  1
16.8               
 41
0.75
 51
15.0
  7
STYLE1
  0
TEXT
  5
3BE
  8
11B2
 10
1714191.824
 20
5030435.469
 30
16.959
 40
8.0
  1
17.0               
 41
0.75
 51
15.0
  7
STYLE1
  0
TEXT
  5
3BF
  8
11B2
 10
1714115.254
 20
5030471.016
 30
17.087
 40
8.0
  1
17.1               
 41
0.75
 51
15.0
  7
STYLE1
  0
TEXT
  5
3C0
  8
11B2
 10
1714192.148
 20
5030564.078
 30
17.087
 40
8.0
  1
17.1               
 41
0.75
 51
15.0
  7
STYLE1
  0
TEXT
  5
3C1
  8
11B2
 10
1714053.602
 20
5030618.148
 30
17.251
 40
8.0
  1
17.3               
 41
0.75
 51
15.0
  7
STYLE1
  0
TEXT
  5
3C2
  8
11B2
 10
1713775.531
 20
5030215.852
 30
14.55
 40
8.0
  1
14.5               
 41
0.75
 51
15.0
  7
STYLE1
  0
TEXT
  5
3C3
  8
11B2
 10
1713757.652
 20
5030401.758
 30
14.605
 40
8.0
  1
14.6               
 41
0.75
 51
15.0
  7
STYLE1
  0
TEXT
  5
3C4
  8
11B2
 10
1713667.422
 20
5030240.734
 30
14.29
 40
8.0
  1
14.3               
 41
0.75
 51
15.0
  7
STYLE1
  0
TEXT
  5
3C5
  8
11B2
 10
1713551.039
 20
5030092.906
 30
16.63
 40
8.0
  1
16.6               
 41
0.75
 51
15.0
  7
STYLE1
  0
TEXT
  5
3C6
  8
11B2
 10
1713445.656
 20
5030061.719
 30
15.094
 40
8.0
  1
15.1               
 41
0.75
 51
15.0
  7
STYLE1
  0
TEXT
  5
3C7
  8
11B2
 10
1713565.348
 20
5030273.539
 30
14.29
 40
8.0
  1
14.3               
 41
0.75
 51
15.0
  7
STYLE1
  0
TEXT
  5
3C8
  8
11B2
 10
1713417.891
 20
5030340.398
 30
17.032
 40
8.0
  1
17.0               
 41
0.75
 51
15.0
  7
STYLE1
  0
TEXT
  5
3C9
  8
11B2
 10
1713430.855
 20
5030202.68
 30
16.849
 40
8.0
  1
16.8               
 41
0.75
 51
15.0
  7
STYLE1
  0
TEXT
  5
3CA
  8
11B2
 10
1712898.211
 20
5030304.109
 30
17.343
 40
8.0
  1
17.3               
 41
0.75
 51
15.0
  7
STYLE1
  0
TEXT
  5
3CB
  8
11B2
 10
1713004.742
 20
5030236.063
 30
17.324
 40
8.0
  1
17.3               
 41
0.75
 51
15.0
  7
STYLE1
  0
TEXT
  5
3CC
  8
11B2
 10
1713132.426
 20
5030196.203
 30
15.185
 40
8.0
  1
15.2               
 41
0.75
 51
15.0
  7
STYLE1
  0
TEXT
  5
3CD
  8
11B2
 10
1713073.504
 20
5030080.172
 30
17.873
 40
8.0
  1
17.9               
 41
0.75
 51
15.0
  7
STYLE1
  0
TEXT
  5
3CE
  8
11B2
 10
1713329.809
 20
5030067.797
 30
16.118
 40
8.0
  1
16.1               
 41
0.75
 51
15.0
  7
STYLE1
  0
TEXT
  5
3CF
  8
11B2
 10
1713302.223
 20
5030178.375
 30
15.971
 40
8.0
  1
16.0               
 41
0.75
 51
15.0
  7
STYLE1
  0
TEXT
  5
3D0
  8
11B2
 10
1713181.844
 20
5030296.25
 30
17.142
 40
8.0
  1
17.1               
 41
0.75
 51
15.0
  7
STYLE1
  0
TEXT
  5
3D1
  8
11B2
 10
1713340.121
 20
5030316.906
 30
17.16
 40
8.0
  1
17.2               
 41
0.75
 51
15.0
  7
STYLE1
  0
TEXT
  5
3D2
  8
11B2
 10
1713549.148
 20
5030354.148
 30
16.758
 40
8.0
  1
16.8               
 41
0.75
 51
15.0
  7
STYLE1
  0
TEXT
  5
3D3
  8
11B2
 10
1713546.574
 20
5030523.398
 30
17.434
 40
8.0
  1
17.4               
 41
0.75
 51
15.0
  7
STYLE1
  0
TEXT
  5
3D4
  8
11B2
 10
1713856.945
 20
5030504.922
 30
17.397
 40
8.0
  1
17.4               
 41
0.75
 51
15.0
  7
STYLE1
  0
TEXT
  5
3D5
  8
11B2
 10
1713879.629
 20
5030622.391
 30
17.69
 40
8.0
  1
17.7               
 41
0.75
 51
15.0
  7
STYLE1
  0
TEXT
  5
3D6
  8
11B2
 10
1713977.25
 20
5030564.063
 30
17.672
 40
8.0
  1
17.7               
 41
0.75
 51
15.0
  7
STYLE1
  0
TEXT
  5
3D7
  8
11B2
 10
1713772.289
 20
5030538.539
 30
16.41
 40
8.0
  1
16.4               
 41
0.75
 51
15.0
  7
STYLE1
  0
TEXT
  5
3D8
  8
11B2
 10
1713458.074
 20
5030400.18
 30
16.483
 40
8.0
  1
16.5               
 41
0.75
 51
15.0
  7
STYLE1
  0
TEXT
  5
3D9
  8
11B2
 10
1713648.449
 20
5030506.703
 30
16.666
 40
8.0
  1
16.7               
 41
0.75
 51
15.0
  7
STYLE1
  0
TEXT
  5
3DA
  8
11B2
 10
1713568.617
 20
5030655.82
 30
17.982
 40
8.0
  1
18.0               
 41
0.75
 51
15.0
  7
STYLE1
  0
TEXT
  5
3DB
  8
11B2
 10
1713692.059
 20
5030655.391
 30
17.032
 40
8.0
  1
17.0               
 41
0.75
 51
15.0
  7
STYLE1
  0
TEXT
  5
3DC
  8
11B2
 10
1713844.359
 20
5030742.477
 30
17.763
 40
8.0
  1
17.8               
 41
0.75
 51
15.0
  7
STYLE1
  0
TEXT
  5
3DD
  8
11B2
 10
1713733.781
 20
5030788.25
 30
16.447
 40
8.0
  1
16.4               
 41
0.75
 51
15.0
  7
STYLE1
  0
TEXT
  5
3DE
  8
11B2
 10
1713512.859
 20
5030914.227
 30
17.599
 40
8.0
  1
17.6               
 41
0.75
 51
15.0
  7
STYLE1
  0
TEXT
  5
3DF
  8
11B2
 10
1713422.125
 20
5030827.141
 30
16.721
 40
8.0
  1
16.7               
 41
0.75
 51
15.0
  7
STYLE1
  0
TEXT
  5
3E0
  8
11B2
 10
1713510.195
 20
5030742.336
 30
17.489
 40
8.0
  1
17.5               
 41
0.75
 51
15.0
  7
STYLE1
  0
TEXT
  5
3E1
  8
11B2
 10
1713371.668
 20
5030740.719
 30
17.233
 40
8.0
  1
17.2               
 41
0.75
 51
15.0
  7
STYLE1
  0
TEXT
  5
3E2
  8
11B2
 10
1713475.766
 20
5030643.508
 30
17.123
 40
8.0
  1
17.1               
 41
0.75
 51
15.0
  7
STYLE1
  0
TEXT
  5
3E3
  8
11B2
 10
1713383.164
 20
5030476.813
 30
14.6
 40
8.0
  1
14.6               
 41
0.75
 51
15.0
  7
STYLE1
  0
TEXT
  5
3E4
  8
11B2
 10
1713246.922
 20
5030542.328
 30
16.776
 40
8.0
  1
16.8               
 41
0.75
 51
15.0
  7
STYLE1
  0
TEXT
  5
3E5
  8
11B2
 10
1712838.492
 20
5030424.648
 30
16.447
 40
8.0
  1
16.4               
 41
0.75
 51
15.0
  7
STYLE1
  0
TEXT
  5
3E6
  8
11B2
 10
1712900.465
 20
5030476.898
 30
16.154
 40
8.0
  1
16.2               
 41
0.75
 51
15.0
  7
STYLE1
  0
TEXT
  5
3E7
  8
11B2
 10
1712884.82
 20
5030650.633
 30
16.246
 40
8.0
  1
16.2               
 41
0.75
 51
15.0
  7
STYLE1
  0
TEXT
  5
3E8
  8
11B2
 10
1712808.859
 20
5030775.0
 30
16.611
 40
8.0
  1
16.6               
 41
0.75
 51
15.0
  7
STYLE1
  0
TEXT
  5
3E9
  8
11B2
 10
1712970.883
 20
5030809.023
 30
18.184
 40
8.0
  1
18.2               
 41
0.75
 51
15.0
  7
STYLE1
  0
TEXT
  5
3EA
  8
11B2
 10
1713272.957
 20
5030682.633
 30
17.324
 40
8.0
  1
17.3               
 41
0.75
 51
15.0
  7
STYLE1
  0
TEXT
  5
3EB
  8
11B2
 10
1713101.523
 20
5030666.023
 30
17.306
 40
8.0
  1
17.3               
 41
0.75
 51
15.0
  7
STYLE1
  0
TEXT
  5
3EC
  8
11B2
 10
1713257.156
 20
5030612.961
 30
17.489
 40
8.0
  1
17.5               
 41
0.75
 51
15.0
  7
STYLE1
  0
TEXT
  5
3ED
  8
11B2
 10
1713075.195
 20
5030608.508
 30
17.507
 40
8.0
  1
17.5               
 41
0.75
 51
15.0
  7
STYLE1
  0
TEXT
  5
3EE
  8
11B2
 10
1713132.68
 20
5030481.164
 30
17.306
 40
8.0
  1
17.3               
 41
0.75
 51
15.0
  7
STYLE1
  0
TEXT
  5
3EF
  8
11B2
 10
1713281.082
 20
5030381.719
 30
17.434
 40
8.0
  1
17.4               
 41
0.75
 51
15.0
  7
STYLE1
  0
TEXT
  5
3F0
  8
11B2
 10
1713072.73
 20
5030382.758
 30
18.202
 40
8.0
  1
18.2               
 41
0.75
 51
15.0
  7
STYLE1
  0
TEXT
  5
3F1
  8
11B2
 10
1713073.195
 20
5030228.773
 30
17.05
 40
8.0
  1
17.1               
 41
0.75
 51
15.0
  7
STYLE1
  0
TEXT
  5
3F2
  8
11B2
 10
1712966.961
 20
5030120.805
 30
17.672
 40
8.0
  1
17.7               
 41
0.75
 51
15.0
  7
STYLE1
  0
TEXT
  5
3F3
  8
11B2
 10
1712986.512
 20
5030332.063
 30
17.672
 40
8.0
  1
17.7               
 41
0.75
 51
15.0
  7
STYLE1
  0
TEXT
  5
3F4
  8
11B2
 10
1712943.129
 20
5030482.633
 30
17.727
 40
8.0
  1
17.7               
 41
0.75
 51
15.0
  7
STYLE1
  0
TEXT
  5
3F5
  8
11B2
 10
1713007.145
 20
5030680.203
 30
17.964
 40
8.0
  1
18.0               
 41
0.75
 51
15.0
  7
STYLE1
  0
TEXT
  5
3F6
  8
11B2
 10
1713224.848
 20
5030878.961
 30
17.909
 40
8.0
  1
17.9               
 41
0.75
 51
15.0
  7
STYLE1
  0
TEXT
  5
3F7
  8
11B2
 10
1713120.223
 20
5030804.211
 30
17.946
 40
8.0
  1
17.9               
 41
0.75
 51
15.0
  7
STYLE1
  0
TEXT
  5
3F8
  8
11B2
 10
1713007.621
 20
5030864.969
 30
18.129
 40
8.0
  1
18.1               
 41
0.75
 51
15.0
  7
STYLE1
  0
TEXT
  5
3F9
  8
11B2
 10
1713283.578
 20
5030799.57
 30
16.063
 40
8.0
  1
16.1               
 41
0.75
 51
15.0
  7
STYLE1
  0
TEXT
  5
3FA
  8
11B2
 10
1713921.578
 20
5030841.742
 30
16.794
 40
8.0
  1
16.8               
 41
0.75
 51
15.0
  7
STYLE1
  0
TEXT
  5
3FB
  8
11B2
 10
1714064.277
 20
5030791.117
 30
15.734
 40
8.0
  1
15.7               
 41
0.75
 51
15.0
  7
STYLE1
  0
TEXT
  5
3FC
  8
11B2
 10
1713599.539
 20
5030889.516
 30
17.507
 40
8.0
  1
17.5               
 41
0.75
 51
15.0
  7
STYLE1
  0
TEXT
  5
3FD
  8
11B2
 10
1712360.191
 20
5030039.68
 30
15.906
 40
8.0
  1
15.9               
 41
0.75
 51
15.0
  7
STYLE1
  0
TEXT
  5
3FE
  8
11B2
 10
1712284.957
 20
5030024.18
 30
15.362
 40
8.0
  1
15.4               
 41
0.75
 51
15.0
  7
STYLE1
  0
TEXT
  5
3FF
  8
11B2
 10
1712688.324
 20
5030242.711
 30
15.925
 40
8.0
  1
15.9               
 41
0.75
 51
15.0
  7
STYLE1
  0
TEXT
  5
400
  8
11B2
 10
1712544.199
 20
5030230.555
 30
16.016
 40
8.0
  1
16.0               
 41
0.75
 51
15.0
  7
STYLE1
  0
TEXT
  5
401
  8
11B2
 10
1712543.52
 20
5030149.211
 30
16.049
 40
8.0
  1
16.0               
 41
0.75
 51
15.0
  7
STYLE1
  0
TEXT
  5
402
  8
11B2
 10
1712802.441
 20
5030185.211
 30
16.191
 40
8.0
  1
16.2               
 41
0.75
 51
15.0
  7
STYLE1
  0
TEXT
  5
403
  8
11B2
 10
1712914.008
 20
5030184.219
 30
16.438
 40
8.0
  1
16.4               
 41
0.75
 51
15.0
  7
STYLE1
  0
TEXT
  5
404
  8
11B2
 10
1712806.898
 20
5030064.102
 30
16.088
 40
8.0
  1
16.1               
 41
0.75
 51
15.0
  7
STYLE1
  0
TEXT
  5
405
  8
11B2
 10
1712719.719
 20
5030057.672
 30
16.094
 40
8.0
  1
16.1               
 41
0.75
 51
15.0
  7
STYLE1
  0
TEXT
  5
406
  8
11B2
 10
1712531.629
 20
5029957.305
 30
15.653
 40
8.0
  1
15.7               
 41
0.75
 51
15.0
  7
STYLE1
  0
TEXT
  5
407
  8
11B2
 10
1712611.973
 20
5030039.844
 30
15.964
 40
8.0
  1
16.0               
 41
0.75
 51
15.0
  7
STYLE1
  0
TEXT
  5
408
  8
11B2
 10
1712620.48
 20
5030120.047
 30
15.595
 40
8.0
  1
15.6               
 41
0.75
 51
15.0
  7
STYLE1
  0
TEXT
  5
409
  8
11B2
 10
1712444.188
 20
5030110.969
 30
15.562
 40
8.0
  1
15.6               
 41
0.75
 51
15.0
  7
STYLE1
  0
TEXT
  5
40A
  8
11B2
 10
1712415.379
 20
5030019.273
 30
15.504
 40
8.0
  1
15.5               
 41
0.75
 51
15.0
  7
STYLE1
  0
TEXT
  5
40B
  8
11B2
 10
1712803.656
 20
5030591.93
 30
16.937
 40
8.0
  1
16.9               
 41
0.75
 51
15.0
  7
STYLE1
  0
TEXT
  5
40C
  8
11B2
 10
1712231.43
 20
5030517.0
 30
16.451
 40
8.0
  1
16.5               
 41
0.75
 51
15.0
  7
STYLE1
  0
TEXT
  5
40D
  8
11B2
 10
1711960.691
 20
5030314.969
 30
16.172
 40
8.0
  1
16.2               
 41
0.75
 51
15.0
  7
STYLE1
  0
TEXT
  5
40E
  8
11B2
 10
1712348.609
 20
5030376.203
 30
16.042
 40
8.0
  1
16.0               
 41
0.75
 51
15.0
  7
STYLE1
  0
TEXT
  5
40F
  8
11B2
 10
1712044.535
 20
5030214.117
 30
15.705
 40
8.0
  1
15.7               
 41
0.75
 51
15.0
  7
STYLE1
  0
TEXT
  5
410
  8
11B2
 10
1711995.25
 20
5030020.531
 30
14.914
 40
8.0
  1
14.9               
 41
0.75
 51
15.0
  7
STYLE1
  0
TEXT
  5
411
  8
11B2
 10
1712108.844
 20
5030337.656
 30
15.822
 40
8.0
  1
15.8               
 41
0.75
 51
15.0
  7
STYLE1
  0
TEXT
  5
412
  8
11B2
 10
1712160.605
 20
5029978.0
 30
15.783
 40
8.0
  1
15.8               
 41
0.75
 51
15.0
  7
STYLE1
  0
TEXT
  5
413
  8
11B2
 10
1712203.137
 20
5030072.781
 30
16.107
 40
8.0
  1
16.1               
 41
0.75
 51
15.0
  7
STYLE1
  0
TEXT
  5
414
  8
11B2
 10
1712249.895
 20
5030196.125
 30
16.178
 40
8.0
  1
16.2               
 41
0.75
 51
15.0
  7
STYLE1
  0
TEXT
  5
415
  8
11B2
 10
1712326.047
 20
5030292.125
 30
16.448
 40
8.0
  1
16.4               
 41
0.75
 51
15.0
  7
STYLE1
  0
TEXT
  5
416
  8
11B2
 10
1712363.055
 20
5030146.422
 30
15.692
 40
8.0
  1
15.7               
 41
0.75
 51
15.0
  7
STYLE1
  0
TEXT
  5
417
  8
11B2
 10
1712343.867
 20
5030260.938
 30
16.088
 40
8.0
  1
16.1               
 41
0.75
 51
15.0
  7
STYLE1
  0
TEXT
  5
418
  8
11B2
 10
1712762.047
 20
5030323.313
 30
16.827
 40
8.0
  1
16.8               
 41
0.75
 51
15.0
  7
STYLE1
  0
TEXT
  5
419
  8
11B2
 10
1712649.918
 20
5030342.758
 30
16.489
 40
8.0
  1
16.5               
 41
0.75
 51
15.0
  7
STYLE1
  0
TEXT
  5
41A
  8
11B2
 10
1712521.109
 20
5030347.211
 30
16.477
 40
8.0
  1
16.5               
 41
0.75
 51
15.0
  7
STYLE1
  0
TEXT
  5
41B
  8
11B2
 10
1712625.148
 20
5030529.555
 30
16.515
 40
8.0
  1
16.5               
 41
0.75
 51
15.0
  7
STYLE1
  0
TEXT
  5
41C
  8
11B2
 10
1712728.973
 20
5030701.453
 30
17.267
 40
8.0
  1
17.3               
 41
0.75
 51
15.0
  7
STYLE1
  0
TEXT
  5
41D
  8
11B2
 10
1712477.504
 20
5030829.164
 30
17.773
 40
8.0
  1
17.8               
 41
0.75
 51
15.0
  7
STYLE1
  0
TEXT
  5
41E
  8
11B2
 10
1712176.48
 20
5030842.531
 30
16.697
 40
8.0
  1
16.7               
 41
0.75
 51
15.0
  7
STYLE1
  0
TEXT
  5
41F
  8
11B2
 10
1712306.238
 20
5030688.109
 30
16.522
 40
8.0
  1
16.5               
 41
0.75
 51
15.0
  7
STYLE1
  0
TEXT
  5
420
  8
11B2
 10
1712000.859
 20
5030466.367
 30
16.814
 40
8.0
  1
16.8               
 41
0.75
 51
15.0
  7
STYLE1
  0
TEXT
  5
421
  8
11B2
 10
1712119.945
 20
5030454.617
 30
16.827
 40
8.0
  1
16.8               
 41
0.75
 51
15.0
  7
STYLE1
  0
TEXT
  5
422
  8
11B2
 10
1712244.793
 20
5030459.078
 30
16.496
 40
8.0
  1
16.5               
 41
0.75
 51
15.0
  7
STYLE1
  0
TEXT
  5
423
  8
11B2
 10
1712343.672
 20
5030485.805
 30
16.464
 40
8.0
  1
16.5               
 41
0.75
 51
15.0
  7
STYLE1
  0
TEXT
  5
424
  8
11B2
 10
1712422.25
 20
5030444.492
 30
16.224
 40
8.0
  1
16.2               
 41
0.75
 51
15.0
  7
STYLE1
  0
TEXT
  5
425
  8
11B2
 10
1712439.461
 20
5030316.023
 30
16.496
 40
8.0
  1
16.5               
 41
0.75
 51
15.0
  7
STYLE1
  0
TEXT
  5
426
  8
11B2
 10
1712424.68
 20
5030536.844
 30
16.25
 40
8.0
  1
16.2               
 41
0.75
 51
15.0
  7
STYLE1
  0
TEXT
  5
427
  8
11B2
 10
1712527.047
 20
5030672.5
 30
16.833
 40
8.0
  1
16.8               
 41
0.75
 51
15.0
  7
STYLE1
  0
TEXT
  5
428
  8
11B2
 10
1712564.242
 20
5030727.852
 30
16.976
 40
8.0
  1
17.0               
 41
0.75
 51
15.0
  7
STYLE1
  0
TEXT
  5
429
  8
11B2
 10
1712016.324
 20
5030617.633
 30
16.6
 40
8.0
  1
16.6               
 41
0.75
 51
15.0
  7
STYLE1
  0
TEXT
  5
42A
  8
11B2
 10
1712087.613
 20
5030675.148
 30
16.736
 40
8.0
  1
16.7               
 41
0.75
 51
15.0
  7
STYLE1
  0
TEXT
  5
42B
  8
11B2
 10
1712340.934
 20
5030800.406
 30
17.112
 40
8.0
  1
17.1               
 41
0.75
 51
15.0
  7
STYLE1
  0
TEXT
  5
42C
  8
11B2
 10
1712613.102
 20
5030808.695
 30
16.917
 40
8.0
  1
16.9               
 41
0.75
 51
15.0
  7
STYLE1
  0
ENDSEC
  0
EOF
